<?xml version="1.0" encoding="UTF-8" standalone="no"?>
<svg
   xmlns:dc="http://purl.org/dc/elements/1.1/"
   xmlns:cc="http://creativecommons.org/ns#"
   xmlns:rdf="http://www.w3.org/1999/02/22-rdf-syntax-ns#"
   xmlns:svg="http://www.w3.org/2000/svg"
   xmlns="http://www.w3.org/2000/svg"
   height="117.2"
   width="119.1"
   xml:space="preserve"
   enable-background="new 0 0 169.2 169.2"
   viewBox="0 0 119.1 117.2"
   y="0px"
   x="0px"
   id="Layer_1"
   version="1.1"><metadata
   id="metadata1022"><rdf:RDF><cc:Work
       rdf:about=""><dc:format>image/svg+xml</dc:format><dc:type
         rdf:resource="http://purl.org/dc/dcmitype/StillImage" /><dc:title></dc:title></cc:Work></rdf:RDF></metadata><defs
   id="defs1020">
	
	
</defs>


<g
   id="g1015"
   transform="translate(-25.5,-15)"><g
     id="g1011"><path
       id="path1009"
       d="M 139.6,132.2 H 30.5 c -2.8,0 -5,-2.2 -5,-5 V 20 c 0,-2.8 2.2,-5 5,-5 h 109.1 c 2.8,0 5,2.2 5,5 v 107.2 c 0,2.8 -2.3,5 -5,5 z m -104.1,-10 h 99 V 25.1 h -99 z"
       style="fill:#f08921" /></g><path
     id="path1013"
     d="m 47.8,35.8 v 73.8 h 73.8 V 35.8 Z m 36.9,12.5 c 5.6,0 10.7,1.8 14.9,4.9 l -2.5,3.4 C 93.7,54 89.4,52.5 84.8,52.5 76.1,52.5 68.6,58 65.6,65.7 l -3.9,-1.5 c 3.5,-9.3 12.5,-15.9 23,-15.9 z M 68.8,73.1 c 0,6.7 4.1,12.4 10,14.8 l -1.6,3.9 c -3.7,-1.5 -6.9,-4 -9.1,-7.3 -2.2,-3.2 -3.5,-7.2 -3.5,-11.4 z M 66,65.8 c 1.5,-3.7 4,-7 7.3,-9.2 3.3,-2.3 7.2,-3.6 11.5,-3.6 v 4.2 c -6.7,0 -12.5,4.2 -14.8,10.1 z m 3.3,7.3 c 0,-8.5 6.9,-15.4 15.4,-15.4 7.4,0 13.6,5.3 15.1,12.3 h -4.3 c -1.4,-4.7 -5.7,-8.1 -10.8,-8.1 -6.2,0 -11.2,5 -11.2,11.2 0,6.2 5,11.2 11.2,11.2 5.1,0 9.4,-3.4 10.8,-8.1 h 4.3 c -1.4,7 -7.7,12.3 -15.1,12.3 -8.5,0 -15.4,-6.9 -15.4,-15.4 z M 90.1,70 C 89.4,68.8 88.3,67.8 87,67.3 l 1.6,-4.2 c 3,1.2 5.4,3.7 6.3,6.8 h -4.8 z m 4.8,6.2 c -1,3.1 -3.3,5.7 -6.3,6.8 L 87,78.9 c 1.3,-0.5 2.4,-1.5 3.1,-2.7 z M 78.5,73.1 c 0,0.9 0.2,1.7 0.5,2.5 l -4.1,1.8 C 74.3,76.1 74,74.6 74,73.1 74,67.2 78.8,62.4 84.7,62.4 v 4.5 c -3.4,0 -6.2,2.8 -6.2,6.2 z m 6.2,6.2 v 4.5 c -2.9,0 -5.6,-1.2 -7.5,-3.1 l 3.1,-3.1 c 1.2,1.1 2.7,1.7 4.4,1.7 z m 0,9.8 c 7.7,0 14.2,-5.5 15.6,-12.8 h 4.3 c -1.5,9.6 -9.8,17 -19.9,17 z M 100.3,70 C 99.2,64.6 95.5,60.2 90.5,58.3 L 92,54.4 c 6.6,2.6 11.5,8.5 12.6,15.6 z M 62,83.1 c -0.4,-0.9 -0.7,-1.8 -1,-2.8 0,-0.1 0,-0.1 -0.1,-0.2 0,-0.2 -0.1,-0.4 -0.2,-0.5 0,-0.1 -0.1,-0.3 -0.1,-0.4 0,-0.2 -0.1,-0.3 -0.1,-0.5 0,-0.2 -0.1,-0.3 -0.1,-0.5 0,-0.1 -0.1,-0.2 -0.1,-0.3 0,-0.2 -0.1,-0.4 -0.1,-0.7 0,-0.1 0,-0.1 0,-0.2 0,-0.3 -0.1,-0.5 -0.1,-0.8 0,0 0,0 0,-0.1 -0.1,-1 -0.2,-2 -0.2,-3 h 4.2 c 0,0.9 0.1,1.8 0.2,2.7 0,0.1 0,0.3 0.1,0.4 0,0.2 0.1,0.3 0.1,0.5 0,0.1 0,0.2 0,0.3 0,0.2 0.1,0.4 0.1,0.6 0,0 0,0.1 0,0.1 0.1,0.2 0.1,0.4 0.2,0.7 0,0 0,0 0,0 0.1,0.2 0.1,0.5 0.2,0.7 0.2,0.8 0.5,1.6 0.9,2.3 z M 84.7,98 C 77.8,98 71.6,95.2 67.1,90.7 l 3,-3 c 3.7,3.7 8.9,6.1 14.6,6.1 10.3,0 18.9,-7.6 20.4,-17.5 h 4.3 C 107.8,88.5 97.4,98 84.7,98 Z m 20.4,-28 c -0.4,-2.8 -1.4,-5.5 -2.9,-7.8 l 3.6,-2.2 c 1.9,3 3.1,6.4 3.6,10 z"
     style="fill:#f08921" /></g></svg>