<?xml version="1.0" encoding="UTF-8" standalone="no"?>
<svg
   xmlns:dc="http://purl.org/dc/elements/1.1/"
   xmlns:cc="http://creativecommons.org/ns#"
   xmlns:rdf="http://www.w3.org/1999/02/22-rdf-syntax-ns#"
   xmlns:svg="http://www.w3.org/2000/svg"
   xmlns="http://www.w3.org/2000/svg"
   height="43.900002"
   width="43.900002"
   xml:space="preserve"
   viewBox="0 0 43.900001 43.900002"
   y="0px"
   x="0px"
   id="Layer_1"
   version="1.1"><metadata
   id="metadata45"><rdf:RDF><cc:Work
       rdf:about=""><dc:format>image/svg+xml</dc:format><dc:type
         rdf:resource="http://purl.org/dc/dcmitype/StillImage" /><dc:title></dc:title></cc:Work></rdf:RDF></metadata><defs
   id="defs43" />
<style
   id="style2"
   type="text/css">
	.st0{fill:#3F5464;}
	.st1{fill:#F09820;}
</style>

















<g
   id="g865"><path
     style="fill:#3f5464"
     class="st0"
     d="m 22,31.9 c -5.5,0 -9.9,-4.4 -9.9,-9.9 0,-5.5 4.4,-9.9 9.9,-9.9 4.5,0 8.3,3 9.5,7.2 h 3.8 C 34.1,13 28.6,8.4 22,8.4 14.5,8.4 8.4,14.5 8.4,22 c 0,7.5 6.1,13.6 13.6,13.6 6.6,0 12.1,-4.7 13.4,-10.9 h -3.8 c -1.3,4.2 -5.1,7.2 -9.6,7.2"
     id="path14" /><path
     style="fill:#3f5464"
     class="st0"
     d="m 15.3,28.7 c 1.7,1.7 4.1,2.8 6.7,2.8 v -4 c -1.5,0 -2.9,-0.6 -3.9,-1.6 z"
     id="path16" /><path
     style="fill:#f09820"
     class="st1"
     d="m 12.5,22 c 0,1.4 0.3,2.6 0.8,3.8 l 3.6,-1.6 c -0.3,-0.7 -0.5,-1.4 -0.5,-2.2 0,-3 2.5,-5.5 5.5,-5.5 v -4 c -5.1,0 -9.4,4.3 -9.4,9.5"
     id="path18" /><path
     style="fill:#3f5464"
     class="st0"
     d="M 25.4,13.2 24,16.9 c 1.2,0.5 2.1,1.3 2.8,2.4 H 31 c -0.8,-2.8 -2.9,-5.1 -5.6,-6.1"
     id="path20" /><path
     style="fill:#f09820"
     class="st1"
     d="m 24,27.1 1.4,3.7 c 2.7,-1 4.8,-3.3 5.6,-6.1 h -4.3 c -0.6,1.1 -1.5,2 -2.7,2.4"
     id="path22" /><path
     style="fill:#f09820"
     class="st1"
     d="m 22,40.3 c -5,0 -9.6,-2.1 -12.9,-5.4 l -2.6,2.6 c 4,4 9.5,6.4 15.6,6.4 11.2,0 20.5,-8.4 21.8,-19.2 h -3.8 c -1.4,8.8 -9,15.6 -18.1,15.6"
     id="path24" /><path
     style="fill:#f09820"
     class="st1"
     d="m 22,3.7 c 4.1,0 7.9,1.4 10.9,3.6 l 2.2,-3 C 31.5,1.6 26.9,0 22,0 12.7,0 4.7,5.8 1.5,14 L 5,15.4 C 7.6,8.6 14.3,3.7 22,3.7"
     id="path26" /><path
     style="fill:#3f5464"
     class="st0"
     d="m 40.1,19.3 h 3.8 C 43.5,16.1 42.4,13 40.7,10.4 l -3.2,2 c 1.3,2 2.2,4.3 2.6,6.9"
     id="path28" /><path
     style="fill:#f09820"
     class="st1"
     d="m 35.8,19.3 h 3.8 C 38.6,13 34.3,7.7 28.5,5.5 L 27.1,9 c 4.4,1.6 7.8,5.5 8.7,10.3"
     id="path30" /><path
     style="fill:#3f5464"
     class="st0"
     d="m 22,7.9 v 0 -3.7 C 14.5,4.2 8,8.9 5.4,15.6 l 3.5,1.3 c 2,-5.3 7.1,-9 13.1,-9"
     id="path32" /><path
     style="fill:#f09820"
     class="st1"
     d="m 7.9,22 v 0 H 4.2 c 0,7.5 4.6,13.9 11.2,16.5 L 16.8,35 C 11.6,33 7.9,27.9 7.9,22"
     id="path34" /><path
     style="fill:#3f5464"
     class="st0"
     d="m 22,36.1 v 3.7 c 8.9,0 16.3,-6.5 17.6,-15.1 h -3.8 c -1.3,6.5 -7,11.4 -13.8,11.4"
     id="path36" /><path
     style="fill:#3f5464"
     class="st0"
     d="M 1.9,30.9 C 0.6,28 0,25 0,22 h 3.7 c 0,2.5 0.5,5 1.5,7.4 z"
     id="path38" /></g>
</svg>