<?xml version="1.0" encoding="UTF-8" standalone="no"?>
<svg
   xmlns:dc="http://purl.org/dc/elements/1.1/"
   xmlns:cc="http://creativecommons.org/ns#"
   xmlns:rdf="http://www.w3.org/1999/02/22-rdf-syntax-ns#"
   xmlns:svg="http://www.w3.org/2000/svg"
   xmlns="http://www.w3.org/2000/svg"
   height="114.8"
   width="116.6"
   xml:space="preserve"
   enable-background="new 0 0 169.2 169.2"
   viewBox="0 0 116.6 114.80001"
   y="0px"
   x="0px"
   id="Layer_1"
   version="1.1"><metadata
   id="metadata1026"><rdf:RDF><cc:Work
       rdf:about=""><dc:format>image/svg+xml</dc:format><dc:type
         rdf:resource="http://purl.org/dc/dcmitype/StillImage" /><dc:title></dc:title></cc:Work></rdf:RDF></metadata><defs
   id="defs1024">
	
	

	
	
</defs>


<g
   transform="translate(-21.348318,-22.880447)"
   id="g1132"><g
     transform="translate(-5.9516823,7.8804473)"
     id="g989"><path
       style="fill:#f08921"
       id="path987"
       d="M 139,129.8 H 32.2 c -2.7,0 -4.9,-2.2 -4.9,-4.9 v -105 c 0,-2.7 2.2,-4.9 4.9,-4.9 H 139 c 2.7,0 4.9,2.2 4.9,4.9 v 104.9 c 0,2.8 -2.2,5 -4.9,5 z M 37.1,119.9 h 97 V 24.8 h -97 z" /></g><g
     transform="translate(-5.9516823,7.8804473)"
     id="g1017"><path
       style="fill:#f08921"
       id="path991"
       d="m 85.8,88.7 c -9,0 -16.3,-7.3 -16.3,-16.3 0,-9 7.3,-16.3 16.3,-16.3 7.4,0 13.7,5 15.6,11.8 h 6.3 C 105.6,57.7 96.6,50 85.8,50 73.5,50 63.4,60 63.4,72.4 c 0,12.3 10,22.4 22.4,22.4 10.8,0 19.8,-7.7 21.9,-17.9 h -6.3 c -2,6.8 -8.2,11.8 -15.6,11.8" /><path
       style="fill:#f08921"
       id="path993"
       d="m 74.8,83.4 c 2.8,2.8 6.7,4.6 11,4.6 v -6.5 c -2.5,0 -4.8,-1 -6.4,-2.6 z" /><path
       style="fill:#f08921"
       id="path995"
       d="m 70.2,72.4 c 0,2.2 0.5,4.3 1.3,6.2 L 77.4,76 c -0.5,-1.1 -0.8,-2.3 -0.8,-3.6 0,-5 4,-9 9,-9 v -6.5 c -8.4,0 -15.4,6.9 -15.4,15.5" /><path
       style="fill:#f08921"
       id="path997"
       d="M 91.4,57.9 89,64 c 1.9,0.7 3.5,2.1 4.5,3.9 h 7 c -1.3,-4.6 -4.7,-8.3 -9.1,-10" /><path
       style="fill:#f08921"
       id="path999"
       d="m 89,80.8 2.4,6.1 c 4.4,-1.7 7.8,-5.4 9.2,-10 h -7 c -1,1.8 -2.6,3.2 -4.6,3.9" /><path
       style="fill:#f08921"
       id="path1001"
       d="m 57,81.1 c -0.1,-0.3 -0.2,-0.7 -0.3,-1 0,0 0,0 0,-0.1 -0.1,-0.3 -0.2,-0.6 -0.2,-1 0,-0.1 0,-0.1 0,-0.2 -0.1,-0.3 -0.1,-0.6 -0.2,-0.8 0,-0.1 0,-0.2 -0.1,-0.4 0,-0.2 -0.1,-0.4 -0.1,-0.7 0,-0.2 -0.1,-0.4 -0.1,-0.6 -0.2,-1.3 -0.3,-2.6 -0.3,-4 h -6.1 c 0,1.5 0.1,2.9 0.3,4.4 v 0 c 0,0 0,0.1 0,0.1 0,0.4 0.1,0.8 0.2,1.2 0,0.1 0,0.2 0.1,0.3 0.1,0.3 0.1,0.6 0.2,0.9 0,0.2 0.1,0.3 0.1,0.5 0.1,0.3 0.1,0.5 0.2,0.8 0.1,0.2 0.1,0.4 0.2,0.7 0,0.2 0.1,0.4 0.1,0.6 0.1,0.3 0.1,0.5 0.2,0.8 0,0.1 0.1,0.2 0.1,0.3 v 0 c 0.4,1.4 0.9,2.8 1.5,4.1 l 5.6,-2.5 c -0.6,-1.1 -1,-2.3 -1.4,-3.4 z" /><path
       style="fill:#f08921"
       id="path1003"
       d="M 85.8,102.4 C 77.5,102.4 70,99 64.6,93.6 L 60.2,98 c 6.5,6.5 15.6,10.6 25.6,10.6 18.4,0 33.6,-13.8 35.9,-31.6 h -6.2 c -2.3,14.3 -14.7,25.4 -29.7,25.4" /><path
       style="fill:#f08921"
       id="path1005"
       d="m 85.8,42.4 c 6.7,0 12.9,2.2 17.9,6 l 3.7,-4.9 c -6,-4.5 -13.5,-7.2 -21.6,-7.2 -15.3,0 -28.4,9.6 -33.7,23 l 5.7,2.2 C 62.1,50.3 73,42.4 85.8,42.4" /><path
       style="fill:#f08921"
       id="path1007"
       d="m 115.4,67.9 h 6.2 c -0.7,-5.3 -2.5,-10.3 -5.2,-14.6 l -5.2,3.3 c 2.1,3.3 3.6,7.2 4.2,11.3" /><path
       style="fill:#f08921"
       id="path1009"
       d="m 108.5,67.9 h 6.2 c -1.6,-10.4 -8.8,-19 -18.3,-22.8 l -2.2,5.7 c 7.2,2.9 12.7,9.3 14.3,17.1" /><path
       style="fill:#f08921"
       id="path1011"
       d="m 85.8,49.2 v 0 -6.1 0 c -12.4,0 -23,7.7 -27.3,18.7 L 64.2,64 C 67.6,55.4 76,49.2 85.8,49.2" /><path
       style="fill:#f08921"
       id="path1013"
       d="m 62.6,72.4 v 0 h -6.1 v 0 c 0,12.3 7.6,22.8 18.4,27.2 l 2.3,-5.7 C 68.6,90.5 62.6,82.1 62.6,72.4" /><path
       style="fill:#f08921"
       id="path1015"
       d="m 85.8,95.5 v 6.1 c 14.6,0 26.7,-10.7 28.9,-24.7 h -6.2 C 106.4,87.5 97,95.5 85.8,95.5" /></g></g></svg>