<?xml version="1.0" encoding="UTF-8" standalone="no"?>
<svg
   xmlns:dc="http://purl.org/dc/elements/1.1/"
   xmlns:cc="http://creativecommons.org/ns#"
   xmlns:rdf="http://www.w3.org/1999/02/22-rdf-syntax-ns#"
   xmlns:svg="http://www.w3.org/2000/svg"
   xmlns="http://www.w3.org/2000/svg"
   id="svg3358"
   height="450"
   width="800"
   version="1.1">
  <defs
     id="defs3360">
    <clipPath
       id="clipPath274">
      <path
         id="path276"
         d="m 84.461,713.596 77.163,0 0,43.961 -77.163,0 0,-43.961 z" />
    </clipPath>
  </defs>
  <metadata
     id="metadata3363">
    <rdf:RDF>
      <cc:Work
         rdf:about="">
        <dc:format>image/svg+xml</dc:format>
        <dc:type
           rdf:resource="http://purl.org/dc/dcmitype/StillImage" />
        <dc:title></dc:title>
      </cc:Work>
    </rdf:RDF>
  </metadata>
  <g
     id="layer1"
     transform="translate(0,-602.36218)">
    <path
       style="fill:#c4122e;fill-opacity:1;fill-rule:nonzero;stroke:none"
       id="path268"
       d="m 271.00014,1021.205 -32.63478,0 0,-129.33009 32.63478,0 0,129.33009 z" />
    <g
       id="g270"
       transform="matrix(10.337276,0,0,-10.337276,-861.34511,8446.2018)">
      <g
         id="g272"
         clip-path="url(#clipPath274)">
        <g
           id="g278"
           transform="translate(134.9958,727.2001)">
          <path
             style="fill:#c4122e;fill-opacity:1;fill-rule:nonzero;stroke:none"
             id="path280"
             d="m 0,0 c -0.129,0.066 -1.146,0.668 -2.656,0.668 -2.041,0 -3.457,-1.421 -3.457,-3.337 0,-1.859 1.355,-3.34 3.457,-3.34 1.484,0 2.517,0.589 2.656,0.664 l 0,-3.358 c -0.396,-0.111 -1.475,-0.445 -2.877,-0.445 -3.551,0 -6.668,2.448 -6.668,6.479 0,3.736 2.82,6.476 6.668,6.476 1.48,0 2.578,-0.361 2.877,-0.449 L 0,0 z" />
        </g>
        <g
           id="g282"
           transform="translate(102.0426,727.2001)">
          <path
             style="fill:#c4122e;fill-opacity:1;fill-rule:nonzero;stroke:none"
             id="path284"
             d="m 0,0 c -0.127,0.066 -1.142,0.668 -2.652,0.668 -2.045,0 -3.46,-1.421 -3.46,-3.337 0,-1.859 1.356,-3.34 3.46,-3.34 1.484,0 2.516,0.589 2.652,0.664 l 0,-3.358 c -0.392,-0.111 -1.469,-0.445 -2.879,-0.445 -3.549,0 -6.662,2.448 -6.662,6.479 0,3.736 2.82,6.476 6.662,6.476 1.486,0 2.582,-0.361 2.879,-0.449 L 0,0 z" />
        </g>
        <g
           id="g286"
           transform="translate(144.9274,727.8212)">
          <path
             style="fill:#c4122e;fill-opacity:1;fill-rule:nonzero;stroke:none"
             id="path288"
             d="m 0,0 c -1.873,0 -3.264,-1.474 -3.264,-3.29 0,-1.82 1.391,-3.293 3.264,-3.293 1.871,0 3.266,1.473 3.266,3.293 C 3.266,-1.474 1.871,0 0,0 m 6.611,-3.29 c 0,-3.579 -2.763,-6.479 -6.611,-6.479 -3.848,0 -6.607,2.9 -6.607,6.479 0,3.573 2.759,6.476 6.607,6.476 3.848,0 6.611,-2.903 6.611,-6.476" />
        </g>
        <g
           id="g290"
           transform="translate(121.5124,727.9413)">
          <path
             style="fill:#c4122e;fill-opacity:1;fill-rule:nonzero;stroke:none"
             id="path292"
             d="m 0,0 c -0.047,0.015 -1.376,0.382 -2.468,0.382 -1.265,0 -1.953,-0.424 -1.953,-1.025 0,-0.762 0.928,-1.028 1.447,-1.192 l 0.871,-0.277 c 2.049,-0.652 2.983,-2.055 2.983,-3.579 0,-3.143 -2.764,-4.199 -5.18,-4.199 -1.679,0 -3.252,0.309 -3.407,0.342 l 0,2.879 c 0.278,-0.07 1.602,-0.465 2.981,-0.465 1.571,0 2.293,0.459 2.293,1.168 0,0.634 -0.625,1 -1.408,1.246 -0.191,0.064 -0.478,0.154 -0.674,0.218 -1.758,0.556 -3.224,1.589 -3.224,3.66 0,2.34 1.752,3.911 4.662,3.911 1.537,0 2.983,-0.373 3.077,-0.398 L 0,0 z" />
        </g>
        <g
           id="g294"
           transform="translate(89.154,744.2304)">
          <path
             style="fill:#15495d;fill-opacity:1;fill-rule:nonzero;stroke:none"
             id="path296"
             d="M 0,0 C 0,0.862 -0.704,1.561 -1.567,1.561 -2.43,1.561 -3.135,0.862 -3.135,0 l 0,-3.284 c 0,-0.867 0.705,-1.567 1.568,-1.567 0.863,0 1.567,0.7 1.567,1.567 L 0,0 z" />
        </g>
        <g
           id="g298"
           transform="translate(97.7633,748.5409)">
          <path
             style="fill:#15495d;fill-opacity:1;fill-rule:nonzero;stroke:none"
             id="path300"
             d="M 0,0 C 0,0.862 -0.704,1.563 -1.567,1.563 -2.431,1.563 -3.135,0.862 -3.135,0 l 0,-7.595 c 0,-0.867 0.704,-1.566 1.568,-1.566 0.863,0 1.567,0.699 1.567,1.566 L 0,0 z" />
        </g>
        <g
           id="g302"
           transform="translate(106.3727,754.4384)">
          <path
             style="fill:#15495d;fill-opacity:1;fill-rule:nonzero;stroke:none"
             id="path304"
             d="m 0,0 c 0,0.862 -0.704,1.562 -1.567,1.562 -0.864,0 -1.568,-0.7 -1.568,-1.562 l 0,-16.613 c 0,-0.867 0.704,-1.567 1.568,-1.567 0.863,0 1.567,0.7 1.567,1.567 L 0,0 z" />
        </g>
        <g
           id="g306"
           transform="translate(114.9821,748.5409)">
          <path
             style="fill:#15495d;fill-opacity:1;fill-rule:nonzero;stroke:none"
             id="path308"
             d="M 0,0 C 0,0.862 -0.704,1.563 -1.567,1.563 -2.431,1.563 -3.135,0.862 -3.135,0 l 0,-7.595 c 0,-0.867 0.704,-1.566 1.568,-1.566 0.863,0 1.567,0.699 1.567,1.566 L 0,0 z" />
        </g>
        <g
           id="g310"
           transform="translate(123.5817,744.2304)">
          <path
             style="fill:#15495d;fill-opacity:1;fill-rule:nonzero;stroke:none"
             id="path312"
             d="M 0,0 C 0,0.862 -0.699,1.561 -1.558,1.561 -2.421,1.561 -3.125,0.862 -3.125,0 l 0,-3.284 c 0,-0.867 0.704,-1.567 1.567,-1.567 0.859,0 1.558,0.7 1.558,1.567 L 0,0 z" />
        </g>
        <g
           id="g314"
           transform="translate(132.195,748.5409)">
          <path
             style="fill:#15495d;fill-opacity:1;fill-rule:nonzero;stroke:none"
             id="path316"
             d="M 0,0 C 0,0.862 -0.699,1.563 -1.562,1.563 -2.424,1.563 -3.125,0.862 -3.125,0 l 0,-7.595 c 0,-0.867 0.701,-1.566 1.563,-1.566 0.863,0 1.562,0.699 1.562,1.566 L 0,0 z" />
        </g>
        <g
           id="g318"
           transform="translate(140.8102,754.4384)">
          <path
             style="fill:#15495d;fill-opacity:1;fill-rule:nonzero;stroke:none"
             id="path320"
             d="m 0,0 c 0,0.862 -0.699,1.562 -1.562,1.562 -0.864,0 -1.563,-0.7 -1.563,-1.562 l 0,-16.613 c 0,-0.867 0.699,-1.567 1.563,-1.567 0.863,0 1.562,0.7 1.562,1.567 L 0,0 z" />
        </g>
        <g
           id="g322"
           transform="translate(149.4235,748.5409)">
          <path
             style="fill:#15495d;fill-opacity:1;fill-rule:nonzero;stroke:none"
             id="path324"
             d="M 0,0 C 0,0.862 -0.699,1.563 -1.582,1.563 -2.445,1.563 -3.144,0.862 -3.144,0 l 0,-7.595 c 0,-0.867 0.699,-1.566 1.562,-1.566 0.883,0 1.582,0.699 1.582,1.566 L 0,0 z" />
        </g>
        <g
           id="g326"
           transform="translate(158.0192,744.2304)">
          <path
             style="fill:#15495d;fill-opacity:1;fill-rule:nonzero;stroke:none"
             id="path328"
             d="M 0,0 C 0,0.862 -0.701,1.561 -1.563,1.561 -2.426,1.561 -3.127,0.862 -3.127,0 l 0,-3.284 c 0,-0.867 0.701,-1.567 1.564,-1.567 0.862,0 1.563,0.7 1.563,1.567 L 0,0 z" />
        </g>
        <g
           id="g330"
           transform="translate(156.2126,719.9218)">
          <path
             style="fill:#c4122e;fill-opacity:1;fill-rule:nonzero;stroke:none"
             id="path332"
             d="m 0,0 0,-0.196 -0.558,0 0,-1.451 -0.229,0 0,1.451 -0.561,0 0,0.196 L 0,0 z" />
        </g>
        <g
           id="g334"
           transform="translate(156.3297,719.9218)">
          <path
             style="fill:#c4122e;fill-opacity:1;fill-rule:nonzero;stroke:none"
             id="path336"
             d="m 0,0 0.359,0 0.493,-1.351 0.008,0 0.477,1.351 0.352,0 0,-1.647 -0.235,0 0,1.35 -0.008,0 -0.5,-1.35 -0.217,0 -0.488,1.35 -0.011,0 0,-1.35 -0.23,0 L 0,0 z" />
        </g>
      </g>
    </g>
  </g>
</svg>
