<?xml version="1.0" encoding="UTF-8" standalone="no"?>
<svg
   xmlns:dc="http://purl.org/dc/elements/1.1/"
   xmlns:cc="http://creativecommons.org/ns#"
   xmlns:rdf="http://www.w3.org/1999/02/22-rdf-syntax-ns#"
   xmlns:svg="http://www.w3.org/2000/svg"
   xmlns="http://www.w3.org/2000/svg"
   id="svg8"
   version="1.1"
   viewBox="0 0 31.220833 30.568425"
   height="30.568424mm"
   width="31.220833mm">
  <defs
     id="defs2" />
  <metadata
     id="metadata5">
    <rdf:RDF>
      <cc:Work
         rdf:about="">
        <dc:format>image/svg+xml</dc:format>
        <dc:type
           rdf:resource="http://purl.org/dc/dcmitype/StillImage" />
        <dc:title></dc:title>
      </cc:Work>
    </rdf:RDF>
  </metadata>
  <g
     transform="translate(-88.267794,-71.995635)"
     id="layer1">
    <g
       transform="matrix(0.30136107,0,0,0.30136107,61.667317,45.456564)"
       id="g913">
      <g
         id="g889"
         transform="translate(38.754082,-3.4745038)">
        <path
           transform="scale(0.26458333)"
           id="path826-3"
           d="M 369.7168,349.75195 A 178.797,178.797 0 0 0 190.91797,528.54883 178.797,178.797 0 0 0 369.7168,707.3457 178.797,178.797 0 0 0 456.2793,684.94336 l -48.3125,-45.78125 a 117.17769,117.17769 0 0 1 -38.25,6.56445 117.17769,117.17769 0 0 1 -117.17774,-117.17773 117.17769,117.17769 0 0 1 117.17774,-117.17774 117.17769,117.17769 0 0 1 117.17578,117.17774 117.17769,117.17769 0 0 1 -6.03516,36.82226 l 47.68555,45.18555 A 178.797,178.797 0 0 0 548.51367,528.54883 178.797,178.797 0 0 0 369.7168,349.75195 Z"
           style="opacity:1;fill:#83389b;fill-opacity:1;stroke:#51006c;stroke-width:7.55905533;stroke-linecap:round;stroke-linejoin:round;stroke-miterlimit:1;stroke-dasharray:none;stroke-opacity:1;paint-order:stroke markers fill" />
        <rect
           transform="matrix(0.75865818,-0.65148888,0.71508118,0.69904142,0,0)"
           y="182.66232"
           x="-40.264778"
           height="54.496284"
           width="17.172678"
           id="rect870"
           style="opacity:1;fill:#83389b;fill-opacity:1;stroke:#51006c;stroke-width:2.00380993;stroke-linecap:round;stroke-linejoin:round;stroke-miterlimit:1;stroke-dasharray:none;stroke-opacity:1;paint-order:stroke fill markers" />
      </g>
    </g>
  </g>
</svg>
