<?xml version="1.0" encoding="UTF-8" standalone="no"?>
<svg
   xmlns:dc="http://purl.org/dc/elements/1.1/"
   xmlns:cc="http://creativecommons.org/ns#"
   xmlns:rdf="http://www.w3.org/1999/02/22-rdf-syntax-ns#"
   xmlns:svg="http://www.w3.org/2000/svg"
   xmlns="http://www.w3.org/2000/svg"
   width="154.64368mm"
   height="154.64368mm"
   viewBox="0 0 547.95004 547.95003"
   id="svg2"
   version="1.1"
   style="enable-background:new">
  <defs
     id="defs4">
    <filter
       style="color-interpolation-filters:sRGB"
       id="filter4183">
      <feBlend
         mode="lighten"
         in2="BackgroundImage"
         id="feBlend4185" />
    </filter>
  </defs>
  <metadata
     id="metadata7">
    <rdf:RDF>
      <cc:Work
         rdf:about="">
        <dc:format>image/svg+xml</dc:format>
        <dc:type
           rdf:resource="http://purl.org/dc/dcmitype/StillImage" />
        <dc:title></dc:title>
      </cc:Work>
    </rdf:RDF>
  </metadata>
  <rect
     y="9.9999971"
     x="9.999999"
     height="527.95001"
     width="527.95001"
     id="rect4169"
     style="opacity:1;fill:#00ad69;fill-opacity:1;stroke:#139a65;stroke-width:20;stroke-linecap:round;stroke-linejoin:round;stroke-miterlimit:2;stroke-dasharray:none;stroke-opacity:1;filter:url(#filter4183)" />
  <path
     id="rect833-6"
     d="m 82.498001,166.4436 c 8.404747,-8.16848 15.480633,-16.63675 25.327289,-24.10087 6.99646,-5.30358 16.51321,-10.10019 23.86614,-13.92206 23.32396,-12.1232 47.99811,-16.43925 72.07476,-15.88915 19.14065,0.43732 39.39947,5.48911 54.92209,11.62831 19.98254,7.90313 33.30706,17.60815 38.83882,21.59052 5.86898,4.46939 16.48702,13.76999 24.30564,22.88473 7.25497,8.45767 13.09149,17.62292 16.40694,21.82073 2.42239,3.06705 7.49156,12.03955 11.61279,22.10924 2.51996,6.15713 4.48491,13.27598 5.86023,18.09288 1.74755,6.12061 2.99649,16.76434 3.23089,23.44084 0.17821,5.08021 -0.3679,22.32905 -0.75914,25.5149 -0.35259,2.86834 -0.16071,6.98497 -0.87087,11.15398 -0.45646,2.67931 -1.24659,5.63966 -2.17929,8.37069 -0.94834,2.77667 -2.08877,6.07474 -3.24374,8.4804 -2.76224,5.75358 -5.60719,9.42589 -6.10371,10.48307 -2.74038,-18.11031 -3.34787,-34.62319 -6.68498,-49.49502 -1.98577,-8.84945 -4.88768,-17.11786 -7.76303,-24.79599 -4.71702,-12.59605 -10.05181,-23.60364 -16.25611,-32.98214 -8.73952,-13.21081 -21.08744,-23.42291 -31.55832,-32.44105 -12.57457,-10.83003 -26.72044,-17.34456 -41.93354,-21.78738 -14.89227,-4.34907 -30.80722,-6.74095 -47.27194,-6.67388 -13.85729,0.0563 -27.6123,3.11604 -40.70706,8.41831 -7.45373,4.25405 -16.24125,8.84852 -23.87368,15.16423 -10.21893,8.45591 -18.69015,18.70534 -22.21142,22.97667 -4.02025,4.87665 -10.800182,13.84734 -15.288264,22.61086 -3.854619,7.52666 -5.626598,14.90052 -6.997933,19.39669 -4.443475,14.56827 -4.462717,45.71688 -3.718886,50.65972 1.763943,11.72091 6.215672,27.19017 13.055623,40.759 9.77526,19.39161 22.9067,33.21052 29.47497,38.28374 6.59477,5.09372 15.33446,12.63071 26.06314,16.76303 15.01685,5.78393 31.47528,6.83509 40.46353,6.45817 9.58333,14.52492 20.47382,26.43541 32.22873,36.61716 -18.49646,7.71208 -33.70656,4.46966 -49.2371,2.29557 C 127.31005,417.68222 94.939731,400.10408 69.525962,357.13753 58.086467,336.85345 43.641688,306.43813 43.266356,274.68701 42.759608,231.82164 61.045285,187.04857 82.498001,166.4436 Z"
     style="opacity:1;fill:#ffffff;fill-opacity:1;stroke:#139a65;stroke-width:5.12487888;stroke-opacity:1" />
  <path
     id="rect833-3-7"
     d="m 466.11435,379.11908 c -8.40278,8.17062 -15.47654,16.64063 -25.32128,24.10721 -6.9952,5.30528 -16.51074,10.10424 -23.86269,13.92792 -23.32102,12.12899 -47.99407,16.45116 -72.07083,15.90702 -19.14075,-0.4324 -39.40078,-5.47938 -54.92498,-11.61475 -19.98452,-7.89816 -33.31139,-17.5999 -38.84418,-21.5809 -5.87013,-4.46792 -16.49047,-13.76589 -24.31133,-22.87872 -7.25705,-8.45586 -13.09586,-17.61964 -16.4123,-21.81662 -2.42315,-3.06646 -7.49451,-12.03776 -11.61825,-22.10635 -2.52149,-6.15653 -4.48819,-13.27489 -5.86472,-18.09146 -1.74907,-6.12017 -3.00058,-16.76362 -3.23668,-23.44007 -0.1793,-5.08016 0.36189,-22.32911 0.7522,-25.51506 0.35204,-2.86841 0.15907,-6.98504 0.86792,-11.1542 0.45536,-2.67948 1.24522,-5.63994 2.17727,-8.37124 0.94762,-2.77689 2.08717,-6.07529 3.2416,-8.48122 2.76082,-5.7543 5.60484,-9.42726 6.10109,-10.4846 2.74486,18.10965 3.35645,34.62237 6.69727,49.49337 1.98797,8.84896 4.8919,17.11666 7.76916,24.79408 4.72008,12.59491 10.05761,23.60112 16.26426,32.97815 8.7428,13.20858 21.09329,23.41766 31.5663,32.43324 12.5773,10.82686 26.72481,17.33794 41.93895,21.77694 14.89342,4.3454 30.80897,6.73335 47.27363,6.66217 13.85724,-0.0601 27.61154,-3.12281 40.70499,-8.42836 7.45258,-4.25592 16.23906,-8.85251 23.86991,-15.17013 10.21679,-8.45848 18.6855,-18.70994 22.20573,-22.98214 4.01905,-4.87763 10.79679,-13.85002 15.28263,-22.61469 3.85276,-7.52758 5.62294,-14.90189 6.99318,-19.39839 4.43981,-14.56941 4.4514,-45.71796 3.70631,-50.66064 -1.76678,-11.72048 -6.22239,-27.18865 -13.06568,-40.75572 -9.78007,-19.38926 -22.9149,-33.2049 -29.48448,-38.27653 -6.59603,-5.09208 -15.33757,-12.62688 -26.06724,-16.75652 -15.01827,-5.78021 -31.47698,-6.82733 -40.46517,-6.44817 -9.58688,-14.52256 -20.48038,-26.43032 -32.23781,-36.60923 18.49455,-7.71662 33.70552,-4.47797 49.23656,-2.3077 46.26369,12.63579 78.63833,30.2059 104.06275,73.16621 11.44447,20.28124 25.8968,50.69301 26.28,82.44402 0.51714,42.86526 -17.75723,87.64281 -39.20491,108.25308 z"
     style="opacity:1;fill:#ffffff;fill-opacity:1;stroke:#139a65;stroke-width:5.12487841;stroke-opacity:1" />
</svg>
