<?xml version="1.0" encoding="UTF-8" standalone="no"?>
<svg
   xmlns:dc="http://purl.org/dc/elements/1.1/"
   xmlns:cc="http://creativecommons.org/ns#"
   xmlns:rdf="http://www.w3.org/1999/02/22-rdf-syntax-ns#"
   xmlns:svg="http://www.w3.org/2000/svg"
   xmlns="http://www.w3.org/2000/svg"
   id="svg8"
   version="1.1"
   viewBox="0 0 53.952435 37.470455"
   height="37.470455mm"
   width="53.952435mm">
  <defs
     id="defs2" />
  <metadata
     id="metadata5">
    <rdf:RDF>
      <cc:Work
         rdf:about="">
        <dc:format>image/svg+xml</dc:format>
        <dc:type
           rdf:resource="http://purl.org/dc/dcmitype/StillImage" />
        <dc:title></dc:title>
      </cc:Work>
    </rdf:RDF>
  </metadata>
  <g
     transform="translate(-77.450621,-138.3982)"
     id="layer1">
    <path
       id="rect845"
       d="m 77.589593,156.43293 37.911367,0.13364 c 1.19295,-0.0456 2.15202,-0.3189 2.85486,-0.81058 -2.27696,-3.36724 -0.92278,-6.65961 1.07047,-9.9388 2.23257,1.03128 3.95671,2.88259 4.81061,6.13754 2.64085,-0.22238 5.30551,-0.5162 7.16615,1.60205 -1.5711,4.42631 -4.67635,5.35996 -8.32998,5.04519 -1.9501,4.4737 -4.76574,9.04396 -10.22145,12.68542 -3.79095,2.01722 -7.68703,3.63423 -12.51495,4.30118 -3.132757,0.49338 -5.91382,0.23139 -8.321388,-0.001 -1.106959,-0.10701 -2.609091,-0.43003 -3.638734,-0.69966 -2.212114,-0.57928 -3.902005,-1.98094 -5.188182,-2.91508 -4.617032,-4.28804 -6.255433,-9.42917 -5.598773,-15.53955 z"
       style="opacity:1;fill:#066da5;fill-opacity:1;stroke:none;stroke-width:0.79399997;stroke-miterlimit:4;stroke-dasharray:none;stroke-opacity:1" />
    <rect
       ry="0.18898882"
       y="138.39821"
       x="101.38415"
       height="5.2207961"
       width="5.6460195"
       id="rect857"
       style="opacity:1;fill:#066da5;fill-opacity:1;stroke:none;stroke-width:0.79387218;stroke-miterlimit:4;stroke-dasharray:none;stroke-opacity:1" />
    <rect
       ry="0.18898882"
       y="150.4344"
       x="81.647514"
       height="5.2207961"
       width="5.6460195"
       id="rect857-3"
       style="opacity:1;fill:#066da5;fill-opacity:1;stroke:none;stroke-width:0.79387218;stroke-miterlimit:4;stroke-dasharray:none;stroke-opacity:1" />
    <rect
       ry="0.18898882"
       y="150.4344"
       x="88.229027"
       height="5.2207961"
       width="5.6460195"
       id="rect857-3-6"
       style="opacity:1;fill:#066da5;fill-opacity:1;stroke:none;stroke-width:0.79387218;stroke-miterlimit:4;stroke-dasharray:none;stroke-opacity:1" />
    <rect
       ry="0.18898882"
       y="150.4344"
       x="94.803574"
       height="5.2207961"
       width="5.6460195"
       id="rect857-3-6-7"
       style="opacity:1;fill:#066da5;fill-opacity:1;stroke:none;stroke-width:0.79387218;stroke-miterlimit:4;stroke-dasharray:none;stroke-opacity:1" />
    <rect
       ry="0.18898882"
       y="150.4344"
       x="101.38415"
       height="5.2207961"
       width="5.6460195"
       id="rect857-3-6-7-5"
       style="opacity:1;fill:#066da5;fill-opacity:1;stroke:none;stroke-width:0.79387218;stroke-miterlimit:4;stroke-dasharray:none;stroke-opacity:1" />
    <rect
       ry="0.18898882"
       y="150.4344"
       x="107.94572"
       height="5.2207961"
       width="5.6460195"
       id="rect857-3-6-7-5-3"
       style="opacity:1;fill:#066da5;fill-opacity:1;stroke:none;stroke-width:0.79387218;stroke-miterlimit:4;stroke-dasharray:none;stroke-opacity:1" />
    <rect
       ry="0.18898882"
       y="144.46042"
       x="88.229027"
       height="5.2207961"
       width="5.6460195"
       id="rect857-3-6-5"
       style="opacity:1;fill:#066da5;fill-opacity:1;stroke:none;stroke-width:0.79387218;stroke-miterlimit:4;stroke-dasharray:none;stroke-opacity:1" />
    <rect
       ry="0.18898882"
       y="144.46042"
       x="94.803574"
       height="5.2207961"
       width="5.6460195"
       id="rect857-3-6-7-6"
       style="opacity:1;fill:#066da5;fill-opacity:1;stroke:none;stroke-width:0.79387218;stroke-miterlimit:4;stroke-dasharray:none;stroke-opacity:1" />
    <rect
       ry="0.18898882"
       y="144.46042"
       x="101.38415"
       height="5.2207961"
       width="5.6460195"
       id="rect857-3-6-7-5-2"
       style="opacity:1;fill:#066da5;fill-opacity:1;stroke:none;stroke-width:0.79387218;stroke-miterlimit:4;stroke-dasharray:none;stroke-opacity:1" />
  </g>
</svg>
