<?xml version="1.0" encoding="UTF-8" standalone="no"?>
<svg
   xmlns:dc="http://purl.org/dc/elements/1.1/"
   xmlns:cc="http://creativecommons.org/ns#"
   xmlns:rdf="http://www.w3.org/1999/02/22-rdf-syntax-ns#"
   xmlns:svg="http://www.w3.org/2000/svg"
   xmlns="http://www.w3.org/2000/svg"
   id="svg8"
   version="1.1"
   viewBox="0 0 56.279026 56.279026"
   height="56.279026mm"
   width="56.279026mm">
  <defs
     id="defs2" />
  <metadata
     id="metadata5">
    <rdf:RDF>
      <cc:Work
         rdf:about="">
        <dc:format>image/svg+xml</dc:format>
        <dc:type
           rdf:resource="http://purl.org/dc/dcmitype/StillImage" />
        <dc:title></dc:title>
      </cc:Work>
    </rdf:RDF>
  </metadata>
  <g
     transform="translate(-32,-208.72098)"
     id="layer1">
    <g
       transform="translate(-65.34889,125.2119)"
       id="g855">
      <circle
         style="opacity:1;fill:#e21d38;fill-opacity:1;stroke:none;stroke-width:0.48787782;stroke-linecap:butt;stroke-linejoin:miter;stroke-miterlimit:4;stroke-dasharray:none;stroke-opacity:1;paint-order:normal"
         id="path826"
         cx="125.4884"
         cy="111.64859"
         r="28.139513" />
      <path
         style="opacity:1;fill:#ffffff;fill-opacity:1;stroke:none;stroke-width:0.30201903;stroke-linecap:butt;stroke-linejoin:miter;stroke-miterlimit:4;stroke-dasharray:none;stroke-opacity:1;paint-order:normal"
         d="m 110.56711,92.67488 c 0.60209,-0.35232 2.31391,-1.726 4.41715,-2.18202 4.34924,-0.94297 11.03135,0.0753 12.81534,3.38629 0.0828,0.1537 0.0857,0.31317 -0.0289,0.44252 -0.48303,0.54522 -1.3963,1.47835 -2.00685,1.86514 -0.11996,0.076 -0.25872,0.0286 -0.27973,0.0294 -2.31327,-1.31574 -3.51824,-2.35332 -6.54383,-2.95675 -0.65758,-0.19359 -2.38931,0.26706 -3.17809,1.79225 -1.0317,1.99489 -0.91766,5.79211 -0.79073,8.45107 0.0629,1.31702 9.05713,0.16553 8.97169,0.67856 l -0.14765,0.88653 c -0.0394,0.23635 -0.26878,0.29618 -0.48666,0.5666 -0.41269,0.51218 -0.9569,1.26116 -1.30457,1.75227 -2.09249,0.24807 -4.47628,0.2048 -6.87512,0.14649 -0.28854,6.74164 0.34009,13.87635 0.61114,20.85782 l 5.34897,1.39206 c 0.10905,0.36316 -0.0717,0.77643 -0.37825,1.1563 l -5.71723,-0.14516 c -3.24997,0.0305 -6.48605,-0.0143 -9.79709,-0.16704 -0.32365,-0.39604 -1.19066,-1.42278 -1.15587,-1.44175 0,0 0.85075,-1.42409 0.85155,-1.7007 0.0143,-4.89165 -0.0886,-9.55695 -0.28951,-14.16957 -0.0892,-2.04659 -0.038,-4.27179 -0.40133,-6.12382 -0.0441,-0.22466 -3.69169,0.17184 -3.47843,-0.11984 0.13137,-0.17968 0.1022,-1.91775 0.43781,-2.02576 0.91769,-0.29536 3.64507,0.0234 3.66613,-0.1931 0.21064,-2.16455 0.57363,-4.06409 1.12452,-5.877596 0.69987,-2.805136 2.58346,-5.351912 4.61557,-6.300134 z"
         id="rect828-3" />
      <path
         style="opacity:1;fill:#ffffff;fill-opacity:1;stroke:none;stroke-width:0.37650207;stroke-linecap:butt;stroke-linejoin:miter;stroke-miterlimit:4;stroke-dasharray:none;stroke-opacity:1;paint-order:normal"
         d="m 131.61458,92.3408 15.49688,2.29877 c 0.24393,0.13535 0.48716,0.37783 0.59684,0.88069 l 0.19171,4.24515 -14.99621,-1.13888 -1.00958,3.73141 c 4.652,0.94846 10.02145,2.24571 13.79922,4.59295 2.01232,1.89763 3.39571,3.19604 4.36274,6.77147 1.61653,14.47596 -7.22434,15.80038 -10.02261,17.03843 -4.56008,1.54654 -10.08411,2.42129 -13.99823,-0.13363 -2.35157,-1.86715 -2.84131,-4.3451 -3.42307,-5.96098 -0.0264,-0.0732 0.0125,-0.21232 0.0322,-0.2188 1.09513,-1.47736 2.59278,-2.92683 3.61362,-3.65256 0.0504,-0.0358 0.11227,-0.003 0.1864,0.0508 1.92029,3.64569 4.03909,6.91855 6.8846,8.03534 2.79751,1.09794 6.9874,0.14554 8.9371,-2.24705 1.08211,-1.32791 0.919,-6.01141 0.28907,-7.14559 -1.38086,-4.66228 -12.53887,-6.08792 -17.7776,-5.55911 z"
         id="rect831-6" />
    </g>
  </g>
</svg>
