<?xml version="1.0" encoding="UTF-8" standalone="no"?>
<svg
   xmlns:dc="http://purl.org/dc/elements/1.1/"
   xmlns:cc="http://creativecommons.org/ns#"
   xmlns:rdf="http://www.w3.org/1999/02/22-rdf-syntax-ns#"
   xmlns:svg="http://www.w3.org/2000/svg"
   xmlns="http://www.w3.org/2000/svg"
   xml:space="preserve"
   width="512"
   viewBox="0 0 512.00003 512"
   version="1.1"
   id="Layer_1"
   height="512"
   enable-background="new 0 0 515.91 728.5"><metadata
     id="metadata10"><rdf:RDF><cc:Work
         rdf:about=""><dc:format>image/svg+xml</dc:format><dc:type
           rdf:resource="http://purl.org/dc/dcmitype/StillImage" /><dc:title></dc:title></cc:Work></rdf:RDF></metadata><defs
     id="defs7" /><g
     transform="translate(-347.05639,93.46344)"
     id="g4013"><path
       transform="matrix(0.49053894,-0.49053894,0.49053894,0.49053894,1108.4963,-413.80382)"
       style="fill:#294172;fill-opacity:1;fill-rule:nonzero;stroke:none"
       id="path4904"
       d="m -733.62329,72.267944 c 0,203.804876 -165.21649,369.021366 -369.02141,369.021366 -203.8048,0 -369.0213,-165.21649 -369.0213,-369.021366 0,-203.804874 165.2165,-369.021364 369.0213,-369.021364 203.80492,0 369.02141,165.21649 369.02141,369.021364 z" /><path
       style="fill:#ffffff;fill-opacity:1;fill-rule:nonzero;stroke:none"
       id="path4350"
       d="m 622.59048,-29.496022 c -95.23181,2e-5 -172.46231,77.187025 -172.53191,172.404642 l 0,133.45241 c 0.053,21.61957 17.5724,39.14266 39.206,39.14261 l 0.1899,10e-6 133.19911,1e-5 c 95.2431,-0.0354 172.40491,-77.21746 172.40481,-172.46846 0,-95.274737 -77.19471,-172.531612 -172.46831,-172.531652 z m 50.6068,40.916035 c 6.7867,3e-5 11.641,0.76101 17.9247,2.40693 9.1541,2.39878 16.6521,9.88632 16.6578,18.62119 0,10.55597 -7.677,18.24125 -19.1279,18.24131 -5.4577,-2e-5 -7.463,-1.07679 -15.4545,-1.07678 -23.573,2e-5 -42.6482,19.11338 -42.6896,42.68952 l 10e-5,36.925907 c 0,3.33164 2.6793,6.01702 6.0169,6.01702 l 28.0586,-2e-5 c 10.4588,1e-5 18.9291,8.39152 18.9379,18.87462 0,10.49205 -8.482,18.81129 -18.9382,18.81096 l -34.0756,-1e-5 0,43.06957 3e-4,0.0634 c 0,44.71053 -36.29381,80.94558 -81.00901,80.94541 -6.7836,2e-5 -11.5832,-0.76545 -17.8611,-2.40687 -9.1575,-2.3955 -16.6553,-9.88955 -16.6578,-18.62119 0,-10.5555 7.6772,-18.24132 19.128,-18.24128 5.4517,-2e-5 7.4078,1.07677 15.3909,1.07676 23.5758,-6e-5 42.7141,-19.11569 42.7531,-42.68945 l 0,-37.11582 c 0,-3.32763 -2.6849,-6.01712 -6.0171,-6.01711 l -28.0585,-0.063 c -10.4587,-3e-5 -18.938,-8.32257 -18.938,-18.81137 -0.01,-10.55363 8.5562,-18.87455 19.1279,-18.87461 l 33.8858,7e-5 -10e-5,-42.816267 4e-4,-0.0626 c 0,-44.71697 36.22791,-80.94547 80.94541,-80.94551 z" /></g></svg>