<?xml version="1.0" encoding="UTF-8" standalone="no"?>
<svg
   xmlns:dc="http://purl.org/dc/elements/1.1/"
   xmlns:cc="http://creativecommons.org/ns#"
   xmlns:rdf="http://www.w3.org/1999/02/22-rdf-syntax-ns#"
   xmlns:svg="http://www.w3.org/2000/svg"
   xmlns="http://www.w3.org/2000/svg"
   version="1.1"
   id="svg2"
   height="170.52811"
   width="191.15901">
  <defs
     id="defs4" />
  <metadata
     id="metadata7">
    <rdf:RDF>
      <cc:Work
         rdf:about="">
        <dc:format>image/svg+xml</dc:format>
        <dc:type
           rdf:resource="http://purl.org/dc/dcmitype/StillImage" />
        <dc:title></dc:title>
      </cc:Work>
    </rdf:RDF>
  </metadata>
  <g
     transform="translate(-39.820801,-30.186869)"
     id="layer1">
    <path
       id="path2900"
       d="M 96.944917,182.03377 C 89.662681,176.30608 81.894549,170.81448 76.586317,163.08166 65.416842,149.44499 56.816875,133.6567 50.937585,117.06515 47.383955,106.27654 46.166898,94.709824 41.585799,84.338096 c -4.792287,-7.533044 0.821224,-15.767897 9.072722,-18.16242 3.673742,-0.705104 10.133327,-4.170258 2.335951,-1.693539 -6.990592,5.128871 -7.667129,-4.655603 -0.498823,-5.27517 4.892026,-0.650249 6.692895,-4.655044 5.019966,-8.260251 -5.251326,-3.424464 12.733737,-7.18801 3.684373,-12.297799 -9.426987,-10.170666 13.186339,-12.128546 7.607283,-0.577786 -1.335447,8.882061 15.801226,-1.627907 11.825117,8.628945 4.041283,4.925694 15.133562,1.1211 14.85838,8.031392 5.887092,0.404678 7.907562,5.358061 13.433992,5.738347 5.72759,2.586557 16.1108,4.624792 18.0598,11.079149 -5.68242,4.498756 -18.84089,-9.292674 -19.47305,3.160397 1.71659,18.396078 1.27926,37.346439 8.00986,54.864989 3.18353,10.60759 10.9012,18.95779 17.87109,27.21946 6.66875,8.09126 15.70186,13.78715 24.90885,18.58338 8.07647,3.80901 16.78383,6.33528 25.58583,7.92044 3.5701,-2.7307 9.87303,-12.8828 15.44238,-8.60188 0.26423,4.81007 -11.0541,10.05512 -0.53248,9.5235 6.17819,-1.86378 10.46336,4.77803 15.55099,-1.21289 4.68719,5.55206 19.48197,-3.54734 16.14693,7.80115 -4.50972,2.90955 -11.08689,1.15142 -15.60404,5.15397 -7.44757,-3.71979 -13.37691,3.32843 -21.6219,2.43707 -9.15641,1.64002 -18.4716,2.30204 -27.75473,2.31642 -15.22952,-1.20328 -30.78158,-1.71049 -45.26969,-7.01291 -8.16166,-2.37161 -16.12649,-7.01887 -23.299683,-11.66829 z m 12.862043,5.5729 c 7.9696,3.44651 15.76243,7.07889 24.49656,8.17457 13.85682,1.92727 28.16653,4.89163 42.07301,2.18757 -6.2939,-2.84199 -12.80077,1.10719 -19.07096,-2.0322 -7.52033,1.61821 -15.59049,-0.41223 -23.23574,-1.41189 -8.69395,-3.87259 -18.0762,-6.53549 -26.21772,-11.56219 -10.173155,-3.71578 5.26142,4.76524 8.00873,5.45214 6.35952,3.60969 -6.99343,-1.85044 -8.87589,-3.35101 -5.32648,-2.9879 -6.00529,-2.36357 -0.52745,0.67085 1.10332,0.64577 2.19359,1.32226 3.34946,1.87216 z M 94.642259,176.88976 c 7.722781,2.86052 -0.03406,-5.43082 -3.572941,-4.94904 -1.567906,-2.72015 -5.9903,-4.43854 -2.870721,-5.89973 -5.611524,1.9481 -5.878319,-7.40814 -8.516004,-6.07139 -5.936516,-1.87454 -2.310496,-8.51501 -9.381929,-12.59292 -0.645488,-4.29697 -7.02577,-8.02393 -9.060801,-14.50525 -0.898786,-3.31843 -7.208336,-12.84783 -3.332369,-3.97927 3.300194,8.53747 9.106618,15.84879 13.93868,23.15175 3.752083,6.95328 8.182497,14.22026 15.015767,18.55788 2.303436,2.20963 4.527452,5.59533 7.780318,6.28797 z M 72.39456,152.46355 c 0.26956,-1.16626 1.412424,2.52422 0,0 z m 31.49641,27.85526 c 1.71013,-0.76577 -2.45912,-0.96476 0,0 z m 4.19228,1.52924 c -0.43419,-2.1116 -1.91376,1.18074 0,0 z m 5.24749,2.18891 c 2.49828,-2.37871 -3.85009,-1.49983 0,0 z m 8.99389,5.01274 c 1.51811,-2.2439 -4.85872,-0.84682 0,0 z m -17.2707,-12.03933 c 3.88031,-2.51023 -5.01186,-0.0347 0,0 z m 3.9366,1.96293 c -0.11004,-1.32709 -1.40297,0.59432 0,0 z m 19.67473,12.28006 c 3.16281,1.99601 18.46961,4.3749 8.88477,0.81847 -1.60377,0.33811 -17.77263,-4.57336 -8.88477,-0.81847 z M 97.430958,166.92721 c -0.307503,-1.33094 -4.909341,-1.4694 0,0 z m 9.159302,5.33813 c 2.38371,-1.66255 -4.94757,-1.28235 0,0 z m 7.70426,4.72382 c 3.42065,-1.28963 -5.54907,-1.29571 0,0 z M 93.703927,162.86805 c 3.711374,2.84621 14.967683,0.36473 5.683776,-1.69906 -4.225516,-2.2524 -13.74889,-3.79415 -7.25757,1.35821 l 1.573785,0.34088 z m 25.808723,15.75216 c 1.54595,-2.63388 -6.48298,-1.50411 0,0 z m -7.84249,-6.23284 c 9.0752,2.56719 -7.63142,-5.739 -2.23911,-0.94466 l 1.19513,0.54082 1.04399,0.4039 z m 15.72354,9.0878 c 8.59474,0.082 -7.76304,-1.18486 0,1e-5 z M 90.396984,157.89545 c -0.335695,-1.60094 -2.120962,0.13419 0,0 z m 51.535396,31.73502 c 0.2292,-2.89141 -2.80486,2.15157 0,0 z m -36.86817,-22.75299 c -0.51986,-1.52251 -2.68548,-0.0622 0,0 z m -13.852128,-9.98649 c 4.934237,-0.29629 -6.755322,-2.17418 0,0 z M 74.802387,146.28394 c -0.614146,-2.36536 -5.369213,-4.2519 0,0 z m 43.079323,27.33941 c -0.90373,-1.0307 -0.4251,0.22546 0,0 z m 26.81408,16.45475 c -0.086,-1.57503 -1.46039,0.59616 0,0 z m -29.18712,-18.90528 c 0.48266,-2.02932 -4.20741,-0.61442 0,0 z M 95.532612,158.51286 c 3.670785,-0.39305 -5.880434,-2.48161 0,0 z M 129.32396,179.51 c 5.72042,-2.26627 -5.57541,-1.10635 0,0 z m -17.57682,-11.93145 c 6.59278,0.85002 -7.84442,-4.48425 -1.44651,-0.4773 l 1.4465,0.47734 z m 22.91296,14.0886 c 6.15514,-3.67975 4.12588,8.61677 10.44254,1.0388 6.23086,-4.54942 -5.38086,5.62451 2.29838,0.81116 5.55359,-3.71438 13.75643,1.76075 18.93848,3.5472 3.72659,-0.18307 7.34938,3.22236 11.16973,1.15059 7.3542,-1.98082 -14.38097,-2.93789 -8.68344,-6.4523 -6.72914,1.95848 -11.70093,-2.33483 -15.01213,-6.64508 -7.54812,-1.74298 -16.27548,-5.602 -20.04257,-12.28184 -1.5359,-2.50802 2.21884,0.35333 -1.32586,-3.74638 -4.54834,-4.04546 -6.81948,-8.63766 -9.87278,-13.5552 -3.64755,-1.94587 -4.07249,-7.67345 -4.44123,-0.19201 0.0289,-4.72164 -4.40393,-7.89964 -5.48589,-6.57859 -0.0194,-4.54721 4.74396,-2.26787 1.40945,-5.63228 -0.71771,-4.71302 -3.08085,-9.6241 -3.79115,-14.9453 -1.1036,-2.56502 -0.15541,-8.05863 -3.76662,-2.25204 -1.31566,6.13669 -0.43668,-7.54129 1.6093,-3.03083 2.68543,-4.60251 -0.9641,-4.0612 -1.11361,-3.42211 1.74931,-3.88333 1.10719,-9.39159 -0.45644,-7.29023 0.93213,-4.11586 1.47259,-15.147529 -1.3951,-13.192579 1.73833,-4.303958 3.29668,-19.694077 -4.24961,-13.826325 -3.058358,0.04294 -8.354541,1.110195 -10.858032,2.355243 7.849502,4.326857 -0.789543,1.562577 -3.984808,0.874879 -0.416343,4.003642 -3.58119,2.272086 -7.535123,2.311339 6.315273,0.781339 -3.075253,6.458962 -6.698132,4.253506 -4.705102,2.248756 4.060621,7.862038 0.0944,9.597586 0.487433,2.616581 -7.208227,-0.944906 -6.603832,5.097711 -4.56774,-1.92155 -0.628961,7.16796 1.656273,4.09382 7.768882,2.10261 5.469108,6.89631 5.666947,11.44992 -1.265833,2.6534 -6.249495,-6.23691 -1.109939,-5.82517 -4.054715,-6.58674 -4.485232,-2.38081 -7.854566,0.67911 -0.783857,0.22222 8.5944,4.35376 2.709059,6.3967 5.177884,0.79894 5.325199,5.33008 6.379284,8.19735 3.11219,3.24152 2.475226,-3.57931 6.199071,0.31623 -2.356488,-3.4705 -12.48183,-9.77839 -4.329567,-7.7553 -0.04358,-3.49291 -1.474412,-6.30951 1.02322,-6.24118 2.473367,-4.47926 -2.590385,11.044 2.984725,5.35124 1.543285,-0.67388 1.92554,-4.48494 4.699544,0.35989 4.029096,3.96363 1.45533,6.83577 -4.228162,3.20648 1.016828,3.44946 7.603062,4.68217 6.365348,10.07646 1.3121,4.7444 3.147844,2.99695 4.747999,2.72266 1.25523,4.60973 1.968016,1.2201 2.027559,-0.97355 5.747357,1.23033 4.401142,4.62773 6.199456,7.00134 3.960416,1.78761 -5.668696,-12.11713 1.130659,-4.18106 7.153577,6.4586 2.682797,9.15464 -3.736856,8.11995 4.063129,-0.32824 5.373423,5.49305 10.455693,5.28853 4.63456,2.20477 7.77237,10.67291 -0.21613,7.1478 -2.77074,-2.49821 -12.575734,-5.5801 -4.56731,-0.82823 7.39657,3.42523 13.27117,5.47432 20.40487,9.77384 5.10535,3.64464 7.31104,7.81908 9.24607,8.64541 -4.29084,2.04946 -12.93089,-1.63655 -6.51514,-2.76618 -4.00168,-0.72894 -8.50258,-2.75259 -4.66961,2.2333 3.25926,2.72127 11.54708,2.43298 13.0328,2.74132 -1.25934,2.77488 -3.4207,2.99556 0.0516,3.21078 -3.87375,2.06438 1.24216,2.38403 1.60114,3.56362 z m -7.9215,-22.36993 c -2.35682,-2.46475 -2.9662,-7.08134 -0.41852,-3.06426 1.30648,0.52466 4.18523,7.54428 0.41857,3.06426 z m 25.79733,16.38693 c 1.47004,-0.0952 0.0427,1.11681 0,0 z m -29.51867,-22.43039 c -0.0904,-3.72637 0.8525,2.87419 0,0 z m -2.56392,-3.44965 c -2.96446,-5.72787 3.73721,1.62212 0,0 z M 89.382646,128.35916 c 1.7416,-0.46446 0.856841,2.97864 0,0 z m 24.728294,13.40357 c 1.06957,-4.01654 1.25692,3.37014 0,0 z M 96.64115,129.61525 c -1.231543,-2.21638 2.576009,2.07865 0,0 z m 14.99279,4.80618 c -2.80851,-6.29223 1.98836,-3.43699 0.62135,1.03124 z M 85.778757,117.17864 c -1.255624,-2.06432 -3.332663,-8.12135 -2.663982,-9.97042 0.604935,3.0114 6.403914,12.95956 2.844571,4.12096 -3.933386,-7.40908 4.701805,2.40491 5.590052,4.2529 0.413624,1.83837 -2.426789,-0.50225 -0.502192,3.80828 -3.509809,-4.90766 -2.071967,2.71088 -5.268449,-2.21172 z m -7.990701,-5.50612 c 0.328938,-4.79981 1.829262,3.29132 0,0 z m 3.594293,1.23728 c 1.715175,-3.62282 2.908243,5.05052 0,0 z m -8.64616,-6.68847 c -2.974956,-2.95622 -5.127809,-5.68132 0.139193,-1.83474 2.029482,0.0792 -4.509002,-6.19705 0.488751,-1.99305 5.25531,0.95822 2.5951,8.61674 -0.627944,3.82779 z m 4.541717,-0.11873 c 1.727646,-1.71203 0.917172,1.6853 0,0 z m 2.794587,0.8959 c -2.619181,-4.9094 3.178801,2.05822 0,0 z m -5.55546,-5.30909 c -8.64844,-7.696511 10.867309,4.02451 1.4129,1.4269 l -1.412955,-1.42683 z m 24.77908,14.39717 c -3.742506,-2.24398 -0.991777,-15.79747 0.284503,-6.52785 3.638294,-1.17695 -0.200879,4.78728 2.512784,4.73208 -0.42767,3.76305 -1.64169,5.11594 -2.797287,1.79577 z m 9.165207,5.41684 c 0.36705,-4.08462 0.77249,2.79262 0,0 z m -1.59198,-1.57295 c 0.41206,-1.74497 0.0426,2.05487 0,0 z M 76.213566,99.16032 c -5.556046,-7.665657 16.147323,7.75413 3.558556,1.9443 -1.315432,-0.34404 -2.898208,-0.46688 -3.558556,-1.9443 z m 17.649112,9.35749 c -0.525779,-6.45461 1.174169,1.06991 -1.92e-4,-2e-5 z m 13.399762,8.59585 c 1.03698,-3.67668 0.0773,2.43221 0,0 z M 77.064685,96.23472 c 3.302172,-0.706291 13.684695,5.79939 4.150224,1.85832 -1.059396,-1.17279 -3.317802,-0.63994 -4.150224,-1.85832 z m 28.356745,14.13312 c 0.35296,-6.60002 1.97138,-3.94233 0.0122,0.94474 l -0.0121,-0.94473 -5e-5,-1e-5 z M 79.52277,93.938099 c 1.345456,-1.97361 -3.571631,-8.923063 0.708795,-2.492797 1.849543,1.469605 5.355103,2.461959 2.260017,3.080216 4.867744,4.294162 -1.187244,1.163612 -2.968812,-0.587419 z m 24.49612,14.368161 c 0.92952,-7.51843 0.81971,4.40485 0,0 z M 76.712755,86.993902 c 1.027706,-0.439207 0.542746,1.369335 0,0 z m 6.389622,3.803092 c 1.644416,-3.450522 3.03351,3.848297 0,0 z m 18.023553,10.026276 c -0.0174,-1.3252 0.34003,1.92765 0,0 z m -1.04404,-2.31139 c -2.501612,-6.171646 2.32693,3.26759 0,0 z m -1.536003,-4.046372 c -0.419906,-2.550188 1.427129,3.203862 -7.3e-5,-9e-6 z m 2.499773,-4.063514 c -1.71663,-3.025123 2.16777,-13.331073 2.60122,-6.939418 -1.81185,4.980256 -0.52268,7.766309 0.74129,1.086388 2.33417,-5.257159 -0.50421,10.374054 -3.34255,5.853057 z m 2.56889,-15.326649 c 0.74833,-0.918921 0.16609,1.107082 0,0 z m -4.290016,84.534235 c -1.017552,-0.88802 0.127775,0.56506 0,0 z m 8.837726,4.47065 c 4.91599,1.26135 4.89086,-0.76487 0.44782,-1.36683 -2.3898,-2.22316 -9.930475,-4.58124 -3.18119,-0.27586 0.44699,1.13227 1.85944,1.10589 2.73337,1.64269 z M 90.708067,152.48725 c 2.708244,2.01956 10.201213,5.72375 3.858186,0.76868 2.138588,-2.48467 -4.093336,-3.80722 -2.026067,-5.46927 -5.258175,-3.21755 -4.147962,-2.93133 -0.464111,-2.8301 -6.319385,-2.82462 0.912163,-2.61333 0.571661,-4.06067 -2.436706,-0.48126 -12.103074,-4.29664 -6.416395,0.31341 -5.780887,-2.94751 -1.377603,1.09799 -3.12488,0.67029 -5.911336,-1.61178 5.264392,4.50224 -0.938845,2.98448 3.391327,2.6875 9.128301,6.88393 1.433786,2.84407 -1.013816,1.45934 5.506273,3.67136 7.106665,4.77911 z m 9.243194,5.31013 c 11.238769,3.62163 -5.510018,-4.4246 0,0 z m 47.316399,28.66432 c 0.14496,-2.22965 -1.53604,1.90201 0,0 z m 4.86324,2.04679 c 2.59297,-2.51255 0.106,4.00222 4.29655,-0.61509 0.0453,-3.30544 -0.12904,-5.25783 -4.81563,-1.24252 -1.29194,0.71648 -1.86871,3.76288 0.51908,1.85761 z M 74.932378,140.02637 c -0.796355,-3.1304 -5.581949,-3.11418 0,0 z m 5.193029,3.40294 c -1.928397,-3.19739 -6.880525,-2.89469 0,0 z m 29.543373,17.81697 c 2.8844,2.56199 13.24761,1.87984 3.50331,0.31527 -1.44321,-2.13386 -9.16415,-1.6203 -3.50331,-0.31527 z m 40.61236,25.08153 c 4.43933,-3.72512 -4.30122,1.66183 0,0 z m 9.2328,6.34473 c 0.0277,-1.19543 -1.91352,0.52338 0,0 z m 0.0142,-1.6736 c 4.91602,-5.20866 -4.76346,0.30807 -4e-5,0 z M 62.15981,129.33339 c -4.189944,-5.97826 -2.604586,-8.66544 -6.645136,-13.54677 -0.764913,-3.73279 -6.931672,-12.20326 -3.189579,-3.22947 3.42754,5.24836 4.446054,13.37434 9.834715,16.77624 z m 95.82635,60.00977 c 9.04429,-5.84575 -3.7125,-2.54641 0,0 z m 6.9041,2.70461 c 4.52911,-3.88867 -2.86491,-0.81334 0,0 z M 73.393094,133.41838 c 1.296204,-1.92838 -3.347642,-0.24666 0,0 z m 90.055596,56.78275 c 4.38526,-2.82746 -1.01036,-2.39335 -0.79483,0.26003 l 0.79484,-0.26003 z m -59.51386,-37.51178 c -0.15075,-1.90924 -2.31574,0.16206 0,0 z m 3.67794,2.11629 c -1.16888,-2.36318 -1.79716,0.37121 0,0 z m 62.8725,37.30625 c 5.61806,-4.05283 -3.4056,-0.77594 -1.17927,0.76785 z m -2.15131,-1.03979 c 4.57663,-3.83506 -4.83183,1.69954 0,0 z m 10.99163,7.31983 c 3.0728,-2.05816 -3.73316,-0.66575 0,0 z M 76.211249,132.02781 c 4.118965,0.92286 16.460394,10.1439 9.179466,0.63772 -3.728991,-1.10384 -1.492605,-10.21906 -5.29621,-8.60579 2.552972,4.2649 2.100461,6.08018 -3.259642,3.3914 -6.736808,-3.28853 -3.785888,1.6297 -2.469293,2.98518 -1.794185,0.40772 2.373226,1.5572 1.845679,1.59149 z m -18.76588,-14.82026 c 0.737407,-3.04991 -6.789814,-16.77881 -3.554464,-6.87916 1.167861,2.07373 1.049123,6.00387 3.554464,6.87916 z m 34.443451,21.23513 c -2.120989,-1.77378 -0.100792,-0.25103 0,0 z m 5.222997,1.21548 c -0.0027,-3.23079 -5.77326,-1.31196 0,0 z m 45.261473,28.53321 c -0.86326,-2.20739 -3.41229,-0.0512 8e-5,4e-5 z m 2.17351,1.58769 c -0.32087,-1.23546 -1.25399,0.23848 0,0 z m 17.94015,11.3001 c 1.72546,-1.27472 -2.15318,-0.1628 0,0 z M 66.819057,119.6006 c 4.935243,-1.91072 -5.28775,-1.36248 0,0 z m 71.569733,45.08937 c -0.0549,-3.19499 -3.14622,0.79264 0,0 z M 64.869152,115.05675 c 3.170167,-1.07084 -2.932663,-0.70531 0,0 z m 9.201532,4.45726 c -0.0575,-1.05014 -0.973336,0.39747 0,0 z m 112.231406,68.82181 c 4.0765,-0.8265 13.36606,2.07489 14.86752,-1.08086 -4.95044,-0.12019 -17.12734,-3.49263 -17.70346,0.80479 l 1.08368,0.17072 1.75226,0.10534 z M 76.995161,120.25099 c 0.07087,-3.23755 -2.524669,-0.12092 0,0 z M 52.801998,103.4687 c -1.098703,-6.16843 -4.178791,-0.93357 0,0 z m 5.769195,1.45013 c 0.07087,-1.9807 -5.280562,-1.78224 0,0 z m 3.296917,1.61923 c -0.953019,-0.77196 -0.745959,0.97521 0,0 z m 20.744719,13.30775 c 0.976615,-0.89718 -2.312116,-0.66455 0,0 z M 59.672204,102.88617 c -0.557624,-4.65897 -6.681999,-0.69805 0,0 z M 47.844441,95.21166 c -0.168219,-2.150189 -1.152625,0.81111 0,0 z m 1.759336,-1.328672 c -0.28703,-2.549584 -1.510515,0.324387 0,0 z m 9.720792,5.802442 c 4.110486,-1.61465 -7.487254,-3.33984 -0.839893,-0.30506 z m 130.097601,80.35913 c 2.63092,-2.4121 -3.34373,-0.74577 0,0 z m 15.71669,8.14691 c 1.05433,-3.1186 -2.65452,0.41058 0,0 z M 60.318012,94.590436 c 0.433018,-3.016773 -3.258762,0.59902 0,0 z M 46.487687,85.324242 c -0.742965,-4.25911 -0.64134,-11.735065 6.465133,-9.208583 -9.485962,1.883339 6.56534,11.790095 4.538357,3.968363 3.988626,0.195294 7.802669,-2.357284 5.709487,1.516403 7.85876,-0.867958 13.307129,-7.682612 20.898169,-6.72768 5.913058,-0.782493 12.378182,-1.375955 18.750257,-3.756157 5.23905,-0.37743 10.28235,-6.018062 7.41068,-9.361383 -7.14456,-0.604513 -14.62339,0.289393 -22.520112,1.858993 -8.750559,1.819117 -16.699014,5.275307 -25.528125,6.758866 -8.605891,1.15604 1.730998,3.185165 -0.734074,3.637227 -4.490681,1.558136 5.355488,2.608852 -0.582182,4.251428 C 57.228283,77.56448 53.411411,76.304535 54.977788,72.440196 46.7341,73.50992 39.490264,76.931325 46.003276,85.320342 l 0.484402,0.0037 9e-6,-2.56e-4 z m 19.864291,-10.1168 c 1.932856,-7.120464 10.355229,5.859274 3.168052,0.945776 -0.858453,-0.642457 -2.2703,-1.166588 -3.168052,-0.945776 z m 0.376038,-3.452197 c 2.789661,-2.078257 1.482964,1.16516 0,0 z m 3.542213,0.05622 c 0.251833,-3.27648 8.108752,1.73455 1.295517,1.179499 z m 4.84543,-1.948193 c 1.769481,-2.067535 0.50862,1.83906 0,0 z m 1.239563,-0.83005 c 2.946379,-3.540216 16.68561,-2.259413 6.628966,-0.34519 -2.695543,-2.029363 -4.761797,1.196575 -6.628966,0.34519 z m 17.930017,-2.763886 c -0.448199,-9.670222 8.907771,3.436477 0,0 z m 5.087539,-0.02784 c 1.860022,-4.873906 7.218072,-1.955774 0.860732,-0.979407 0.13805,0.518656 -0.18642,2.516173 -0.860732,0.979407 z M 58.311842,92.088739 c 5.55753,-3.403212 -5.899945,-2.952541 0,0 z m 4.109214,1.141866 c 1.948513,-2.071884 -4.233857,-0.840369 0,0 z M 50.313395,84.63767 c 3.175569,-2.439416 -3.757842,-0.927473 0,0 z M 214.41578,187.30012 c 0.0918,-2.83019 -2.42718,1.27537 0,0 z m -16.67487,-11.37935 c 0.47417,-3.25845 -2.14286,0.28408 0,0 z m 21.26022,12.47672 c 4.43994,0.015 13.45265,-1.37884 3.79217,-1.37442 -1.51594,0.23641 -8.83311,0.18571 -3.79216,1.37439 z M 66.035603,91.23339 c 3.593258,-0.246807 5.621861,-3.963629 -0.694932,-3.749977 -9.789949,-1.013541 8.637508,3.352129 -1.255898,2.10383 -1.329368,0.880346 1.873606,1.889721 1.95083,1.646147 z m 3.164618,1.601748 c -0.375177,-2.307063 -1.111156,1.225591 0,0 z m 3.753896,-10.009901 c 1.559281,-1.934055 -2.157697,-0.517053 0,0 z M 61.003998,62.84999 c 6.412879,-2.181631 15.182392,-4.633087 18.210335,1.074184 -3.081589,-3.70893 -1.24361,-7.360157 1.666959,-1.937407 4.115576,5.486669 6.175915,-2.495489 3.499086,-4.335821 3.050468,3.790246 6.520044,5.581281 2.042429,0.239564 4.865693,-5.852929 -9.742712,0.766433 -13.063105,0.699775 -1.597564,0.717062 -16.493576,3.79889 -12.355704,4.259705 z m 3.75831,-7.197834 c 3.657324,-2.760416 12.648968,1.641989 6.879078,-2.743367 -0.564117,-0.498292 -12.636077,3.325475 -6.879078,2.743367 z m 13.333489,0.550473 c 4.280389,0.109225 -1.84632,-5.750287 3.254304,-3.095159 -0.837696,-2.736627 -5.938558,-3.248956 -8.432316,-4.342312 -1.410474,2.502054 2.870977,7.471102 5.178012,7.437471 z M 67.100291,44.099162 c 1.480803,-2.007406 -2.59521,1.017699 0,0 z m 5.449586,1.304353 c 6.897867,-0.914901 -1.758292,-2.970542 -1.389954,-0.07352 l 1.389954,0.07352 v -9e-6 z M 62.374386,37.441437 c -4.856866,-6.340205 9.133987,1.065769 4.199411,-5.572646 -4.153254,-3.307245 -8.144297,3.721775 -4.199411,5.572646 z m 62.330124,33.572802 c 2.22762,-3.948988 -9.19697,-5.323011 -1.5009,-1.399578 0.70858,0.236781 0.54821,1.6727 1.5009,1.399578 z"
       style="fill:#000000" />
  </g>
</svg>
