<?xml version="1.0" encoding="UTF-8" standalone="no"?>
<svg
   xmlns:dc="http://purl.org/dc/elements/1.1/"
   xmlns:cc="http://creativecommons.org/ns#"
   xmlns:rdf="http://www.w3.org/1999/02/22-rdf-syntax-ns#"
   xmlns:svg="http://www.w3.org/2000/svg"
   xmlns="http://www.w3.org/2000/svg"
   xmlns:xlink="http://www.w3.org/1999/xlink"
   version="1.1"
   id="svg7194"
   preserveAspectRatio="xMinYMin meet"
   viewBox="0 0 256 224.30503"
   height="2162.6016"
   width="2462">
  <metadata
     id="metadata7224">
    <rdf:RDF>
      <cc:Work
         rdf:about="">
        <dc:format>image/svg+xml</dc:format>
        <dc:type
           rdf:resource="http://purl.org/dc/dcmitype/StillImage" />
        <dc:title></dc:title>
      </cc:Work>
    </rdf:RDF>
  </metadata>
  <defs
     id="defs7198">
    <path
       d="m 98.1,244.8 c 1.6,7.5 5.5,11.9 9.4,14.5 l 41.1,0 c 5,-3.4 10.1,-9.8 10.1,-21.8 l 0,-31 c 0,0 0.6,-7.7 7.7,-10.2 0,0 4.1,-2.9 -0.3,-4.5 0,0 -19.5,-1.6 -19.5,14.4 l 0,23.6 c 0,0 0.8,8.7 -3.8,12.3 l 0,-29.2 c 0,0 0.3,-9.3 5.1,-12.8 0,0 3.2,-5.7 -3.8,-4.2 0,0 -13.4,1.9 -14,17.6 l -0.3,30 -3.2,0 -0.3,-30 c -0.6,-15.6 -14,-17.6 -14,-17.6 -7,-1.6 -3.8,4.2 -3.8,4.2 4.8,3.5 5.1,12.8 5.1,12.8 l 0,29.5 c -4.6,-3.3 -3.8,-12.6 -3.8,-12.6 l 0,-23.6 c 0,-16 -19.5,-14.4 -19.5,-14.4 -4.5,1.6 -0.3,4.5 -0.3,4.5 7,2.6 7.7,10.2 7.7,10.2 l 0,21.7 0.4,16.6 z"
       id="a" />
  </defs>
  <clipPath
     id="b">
    <use
       height="100%"
       width="100%"
       y="0"
       x="0"
       style="overflow:visible"
       id="use7202"
       overflow="visible"
       xlink:href="#a" />
  </clipPath>
  <g
     transform="translate(0,-0.03163531)"
     id="g7766">
    <path
       style="fill:#9edcf2"
       d="m 200.9,199.8 c 0,13.9 -32.2,25.1 -71.9,25.1 -39.7,0 -71.9,-11.3 -71.9,-25.1 0,-13.9 32.2,-25.1 71.9,-25.1 39.7,0 71.9,11.2 71.9,25.1 z m 0,0"
       id="path7196" />
    <path
       style="fill:#7dbce7"
       clip-path="url(#b)"
       d="m 200.9,199.8 c 0,13.9 -32.2,25.1 -71.9,25.1 -39.7,0 -71.9,-11.3 -71.9,-25.1 0,-13.9 32.2,-25.1 71.9,-25.1 39.7,0 71.9,11.2 71.9,25.1 z m 0,0"
       id="path7204" />
    <path
       style="fill:#9edcf2"
       d="m 46.9,125.9 -2.1,7.2 c 0,0 -0.5,2.6 1.9,3.1 2.6,-0.1 2.4,-2.5 2.2,-3.2 l -2,-7.1 z m 0,0"
       id="path7206" />
    <path
       style="fill:#010101"
       d="m 255.8,95.6 0.2,-0.9 c -21.1,-4.2 -42.7,-4.3 -55.8,-3.7 2.1,-7.7 2.8,-16.7 2.8,-26.6 0,-14.3 -5.4,-25.7 -14,-34.3 1.5,-4.9 3.5,-15.8 -2,-29.7 0,0 -9.8,-3.1 -32.1,11.8 -8.7,-2.2 -18,-3.3 -27.3,-3.3 -10.2,0 -20.5,1.3 -30.2,3.9 C 74.4,-2.9 64.3,0.3 64.3,0.3 57.7,16.8 61.8,29.1 63,32.1 55.2,40.5 50.5,51.2 50.5,64.3 c 0,9.9 1.1,18.8 3.9,26.5 C 41.2,90.3 20.4,90.5 0,94.6 l 0.2,0.9 c 20.4,-4.1 41.4,-4.2 54.5,-3.7 0.6,1.6 1.3,3.2 2,4.7 -13,0.4 -35.1,2.1 -56.3,8.1 l 0.3,0.9 c 21.4,-6 43.7,-7.6 56.6,-8 7.8,14.4 23,23.8 50.2,26.7 -3.9,2.6 -7.8,7 -9.4,14.5 -5.3,2.5 -21.9,8.7 -31.9,-8.5 0,0 -5.6,-10.2 -16.3,-11 0,0 -10.4,-0.2 -0.7,6.5 0,0 6.9,3.3 11.7,15.6 0,0 6.3,21 36.4,14.2 l 0,21.5 c 0,0 -0.6,7.7 -7.7,10.2 0,0 -4.2,2.9 0.3,4.5 0,0 19.5,1.6 19.5,-14.4 l 0,-23.6 c 0,0 -0.8,-9.4 3.8,-12.6 l 0,38.8 c 0,0 -0.3,9.3 -5.1,12.8 0,0 -3.2,5.7 3.8,4.2 0,0 13.4,-1.9 14,-17.6 l 0.3,-39.3 3.2,0 0.3,39.3 c 0.6,15.6 14,17.6 14,17.6 7,1.6 3.8,-4.2 3.8,-4.2 -4.8,-3.5 -5.1,-12.8 -5.1,-12.8 l 0,-38.5 c 4.6,3.6 3.8,12.3 3.8,12.3 l 0,23.6 c 0,16 19.5,14.4 19.5,14.4 4.5,-1.6 0.3,-4.5 0.3,-4.5 -7,-2.6 -7.7,-10.2 -7.7,-10.2 l 0,-31 c 0,-12.1 -5.1,-18.5 -10.1,-21.8 29,-2.9 42.9,-12.2 49.3,-26.8 12.7,0.3 35.6,1.9 57.4,8.1 l 0.3,-0.9 c -21.7,-6.1 -44.4,-7.7 -57.3,-8.1 0.6,-1.5 1.1,-3 1.6,-4.6 13.4,-0.5 35.1,-0.5 56.3,3.7 z m 0,0"
       id="path7208" />
    <path
       style="fill:#f5ccb3"
       d="m 174.6,63.7 c 6.2,5.7 9.9,12.5 9.9,19.8 0,34.4 -25.6,35.3 -57.2,35.3 -31.6,0 -57.2,-4.8 -57.2,-35.3 0,-7.3 3.6,-14.1 9.8,-19.7 10.3,-9.4 27.7,-4.4 47.4,-4.4 19.7,0 37,-5.1 47.3,4.3 z m 0,0"
       id="path7210" />
    <path
       style="fill:#ffffff"
       d="m 108.3,85.3 c 0,9.5 -5.3,17.1 -11.9,17.1 -6.6,0 -11.9,-7.7 -11.9,-17.1 0,-9.5 5.3,-17.1 11.9,-17.1 6.6,-0.1 11.9,7.6 11.9,17.1 z m 0,0"
       id="path7212" />
    <path
       style="fill:#af5c51"
       d="m 104.5,85.5 c 0,6.3 -3.6,11.4 -7.9,11.4 -4.4,0 -7.9,-5.1 -7.9,-11.4 0,-6.3 3.6,-11.4 7.9,-11.4 4.3,0 7.9,5.1 7.9,11.4 z m 0,0"
       id="path7214" />
    <path
       style="fill:#ffffff"
       d="m 172.2,85.3 c 0,9.5 -5.3,17.1 -11.9,17.1 -6.6,0 -11.9,-7.7 -11.9,-17.1 0,-9.5 5.3,-17.1 11.9,-17.1 6.5,-0.1 11.9,7.6 11.9,17.1 z m 0,0"
       id="path7216" />
    <path
       style="fill:#af5c51"
       d="m 168.3,85.5 c 0,6.3 -3.6,11.4 -7.9,11.4 -4.4,0 -7.9,-5.1 -7.9,-11.4 0,-6.3 3.6,-11.4 7.9,-11.4 4.4,0 7.9,5.1 7.9,11.4 z m 0,0 m -37.8,15 c 0,1.6 -1.3,3 -3,3 -1.6,0 -3,-1.3 -3,-3 0,-1.7 1.3,-3 3,-3 1.6,0 3,1.3 3,3 z m 0,0 m -9.9,7.5 c -0.2,-0.5 0.1,-1 0.6,-1.2 0.5,-0.2 1,0.1 1.2,0.6 0.8,2.2 2.8,3.6 5.1,3.6 2.3,0 4.3,-1.5 5.1,-3.6 0.2,-0.5 0.7,-0.8 1.2,-0.6 0.5,0.2 0.8,0.7 0.6,1.2 -1,2.9 -3.8,4.9 -6.9,4.9 -3.1,0 -5.9,-2 -6.9,-4.9 z m 0,0"
       id="path7218" />
    <path
       style="fill:#c4e5d9"
       d="m 54.5,121.6 c 0,0.8 -0.9,1.4 -2.1,1.4 -1.1,0 -2.1,-0.6 -2.1,-1.4 0,-0.8 0.9,-1.4 2.1,-1.4 1.2,0 2.1,0.6 2.1,1.4 z m 0,0 m 5.8,3.2 c 0,0.8 -0.9,1.4 -2.1,1.4 -1.1,0 -2.1,-0.6 -2.1,-1.4 0,-0.8 0.9,-1.4 2.1,-1.4 1.2,0 2.1,0.6 2.1,1.4 z m 0,0 m 3.5,4.2 c 0,0.8 -0.9,1.4 -2.1,1.4 -1.1,0 -2.1,-0.6 -2.1,-1.4 0,-0.8 0.9,-1.4 2.1,-1.4 1.2,-0.1 2.1,0.6 2.1,1.4 z m 0,0 m 3.2,4.8 c 0,0.8 -0.9,1.4 -2.1,1.4 -1.1,0 -2.1,-0.6 -2.1,-1.4 0,-0.8 0.9,-1.4 2.1,-1.4 1.2,-0.1 2.1,0.6 2.1,1.4 z m 0,0 m 3.5,4.4 c 0,0.8 -0.9,1.4 -2.1,1.4 -1.1,0 -2.1,-0.6 -2.1,-1.4 0,-0.8 0.9,-1.4 2.1,-1.4 1.2,0 2.1,0.6 2.1,1.4 z m 0,0 m 4.8,3.9 c 0,0.8 -0.9,1.4 -2.1,1.4 -1.1,0 -2.1,-0.6 -2.1,-1.4 0,-0.8 0.9,-1.4 2.1,-1.4 1.2,-0.1 2.1,0.6 2.1,1.4 z m 0,0 m 6.7,2.5 c 0,0.8 -0.9,1.4 -2.1,1.4 -1.1,0 -2.1,-0.6 -2.1,-1.4 0,-0.8 0.9,-1.4 2.1,-1.4 1.2,0 2.1,0.6 2.1,1.4 z m 0,0 m 6.7,0 c 0,0.8 -0.9,1.4 -2.1,1.4 -1.1,0 -2.1,-0.6 -2.1,-1.4 0,-0.8 0.9,-1.4 2.1,-1.4 1.2,0 2.1,0.6 2.1,1.4 z m 0,0 m 6.8,-1.1 c 0,0.8 -0.9,1.4 -2.1,1.4 -1.1,0 -2.1,-0.6 -2.1,-1.4 0,-0.8 0.9,-1.4 2.1,-1.4 1.1,0 2.1,0.6 2.1,1.4 z m 0,0"
       id="path7220" />
  </g>
</svg>
