<?xml version="1.0" encoding="UTF-8" standalone="no"?>
<svg
   xmlns:dc="http://purl.org/dc/elements/1.1/"
   xmlns:cc="http://creativecommons.org/ns#"
   xmlns:rdf="http://www.w3.org/1999/02/22-rdf-syntax-ns#"
   xmlns:svg="http://www.w3.org/2000/svg"
   xmlns="http://www.w3.org/2000/svg"
   version="1.1"
   id="svg2"
   xml:space="preserve"
   width="93.990662"
   height="87.873329"
   viewBox="0 0 93.990661 87.873329"><metadata
     id="metadata8"><rdf:RDF><cc:Work
         rdf:about=""><dc:format>image/svg+xml</dc:format><dc:type
           rdf:resource="http://purl.org/dc/dcmitype/StillImage" /><dc:title></dc:title></cc:Work></rdf:RDF></metadata><defs
     id="defs6"><clipPath
       clipPathUnits="userSpaceOnUse"
       id="clipPath18"><path
         d="M 0,117 H 331 V 0 H 0 Z"
         id="path16" /></clipPath></defs><g
     transform="matrix(1.3333333,0,0,-1.3333333,72.661999,49.634932)"
     id="g96"><path
       id="path98"
       style="fill:#2e4a82;fill-opacity:1;fill-rule:nonzero;stroke:none"
       d="m 0,0 c -0.001,0.739 -0.599,1.402 -1.403,1.402 -0.325,0 -0.658,-0.11 -0.93,-0.356 -3.551,-3.192 -9.594,-6.016 -16.903,-6.035 h -0.028 c -7.296,0.019 -13.166,2.955 -16.903,6.035 -0.236,0.195 -0.674,0.328 -0.958,0.328 -0.868,0 -1.374,-0.74 -1.375,-1.554 0,-0.626 0.44,-1.151 0.801,-1.693 2.095,-3.148 8.594,-8.492 18.373,-8.492 h 0.153 c 9.778,0 16.278,5.344 18.372,8.492 C -0.44,-1.331 0,-0.628 0,0" /></g><g
     transform="matrix(1.3333333,0,0,-1.3333333,85.626665,82.341331)"
     id="g100"><path
       id="path102"
       style="fill:#2e4a82;fill-opacity:1;fill-rule:nonzero;stroke:none"
       d="m 0,0 c -2.49,1.418 -4.853,3.818 -5.935,7.107 -0.213,0.645 -0.024,1.165 0.473,1.549 7.202,5.572 11.735,13.662 11.735,22.673 0,16.803 -15.78,30.427 -35.245,30.427 -19.466,0 -35.248,-13.624 -35.248,-30.427 0,-16.812 15.782,-30.438 35.248,-30.438 2.543,0 5.023,0.234 7.414,0.676 0.586,0.108 1.064,-0.03 1.454,-0.269 4.824,-2.962 12.007,-5.447 18.307,-5.447 2.029,0 2.809,1.288 2.809,2.461 C 1.012,-0.932 0.603,-0.344 0,0 m -9.433,2.957 c 0.11,-0.147 0.169,-0.272 0.169,-0.407 0,-0.205 -0.194,-0.345 -0.437,-0.345 -1.766,0 -7.207,2.933 -10.07,5.351 -0.393,0.33 -0.941,0.451 -1.72,0.282 -2.388,-0.521 -4.894,-0.801 -7.482,-0.801 -16.202,0 -29.338,10.851 -29.338,24.241 0,13.384 13.136,24.233 29.338,24.233 16.202,0 29.336,-10.849 29.336,-24.233 0,-7.99 -4.677,-15.073 -11.891,-19.49 -0.483,-0.296 -0.996,-0.85 -0.996,-1.544 0,-1.426 1.338,-4.959 3.091,-7.287" /></g></svg>