<?xml version="1.0" encoding="UTF-8" standalone="no"?>
<svg
   xmlns:dc="http://purl.org/dc/elements/1.1/"
   xmlns:cc="http://creativecommons.org/ns#"
   xmlns:rdf="http://www.w3.org/1999/02/22-rdf-syntax-ns#"
   xmlns:svg="http://www.w3.org/2000/svg"
   xmlns="http://www.w3.org/2000/svg"
   enable-background="new 0 0 515.91 728.5"
   height="368.14096"
   id="Layer_1"
   version="1.1"
   viewBox="0 0 303.88832 368.14096"
   width="303.88831"
   xml:space="preserve"><metadata
     id="metadata10"><rdf:RDF><cc:Work
         rdf:about=""><dc:format>image/svg+xml</dc:format><dc:type
           rdf:resource="http://purl.org/dc/dcmitype/StillImage" /><dc:title></dc:title></cc:Work></rdf:RDF></metadata><defs
     id="defs7" /><g
     id="g4166"><path
       style="opacity:1;fill:#000000;fill-opacity:1;stroke:#a2070f;stroke-width:0.15340622;stroke-linecap:square;stroke-linejoin:round;stroke-miterlimit:4;stroke-dasharray:none;stroke-opacity:1"
       d="m 211.06144,366.88317 c -7.08344,-2.47967 -13.12943,-7.82035 -16.5001,-14.57524 -1.08313,-2.1706 -1.96932,-4.32788 -1.96932,-4.79395 0,-0.54536 -2.11872,-0.8484 -5.94449,-0.85023 -3.26947,-0.002 -11.29453,-0.71427 -17.83347,-1.58379 -7.68781,-1.02231 -13.78629,-1.42602 -17.2582,-1.14245 -4.49283,0.36695 -27.83679,3.70774 -32.98234,4.72016 -0.84373,0.16601 -2.39697,1.72716 -3.45164,3.46921 -2.42086,3.99866 -7.34274,7.80426 -12.92252,9.9917 -3.529899,1.38381 -5.903759,1.70272 -12.773019,1.71597 -10.12957,0.0196 -16.37987,-1.5391 -28.64868,-7.14402 -10.42555,-4.76286 -14.67352,-5.84539 -32.07694,-8.17434 -16.36601,-2.19013 -21.2602101,-3.74606 -25.0789001,-7.97289 -4.28960997,-4.74809 -4.66501,-11.66924 -1.24229,-22.90432 l 1.71612,-5.63316 -1.3365,-10.26169 c -0.76255,-5.85489 -1.10594,-11.49063 -0.79963,-13.12342 1.44434,-7.69898 6.39574,-12.65253 16.3588601,-16.36595 8.13617,-3.03249 10.54622,-4.76558 15.20224,-10.9321 1.98595,-2.63023 4.42696,-5.67316 5.42448,-6.76208 1.71283,-1.86977 1.82909,-2.63745 2.09081,-13.80656 0.32136,-13.71405 1.96802,-21.20036 7.80836,-35.49967 6.69345,-16.38803 19.54526,-37.58098 32.62364,-53.79717 7.47196,-9.26466 11.045,-14.73274 14.64061,-22.40559 6.559259,-13.99706 8.290789,-27.07585 6.934759,-52.379945 -1.30473,-24.34654 0.56356,-38.653609 6.66082,-51.00757 8.7379,-17.7042736 28.17691,-26.9045506 53.74074,-25.4349266 14.41323,0.828594 24.66937,4.958867 32.59882,13.1279456 5.87907,6.056725 9.17737,11.653252 12.35907,20.970744 4.0595,11.888107 4.95948,19.265037 5.6338,46.178957 0.65369,26.090135 0.96858,28.314205 5.38928,38.063845 3.17042,6.99222 8.84917,15.27526 20.70607,30.20193 5.52927,6.96081 12.3037,16.0259 15.0543,20.14466 10.64413,15.9386 18.71984,34.25116 21.4778,48.70327 1.65678,8.68184 1.64741,22.53599 -0.0203,30.09908 -0.69772,3.164 -1.46059,6.64676 -1.69528,7.73946 -0.36008,1.67656 -0.0558,2.14036 1.94928,2.97088 2.91323,1.2067 6.57528,5.26625 8.14966,9.03429 0.64641,1.54706 2.04665,6.25038 3.11166,10.45181 2.28906,9.03027 3.17444,10.88016 8.12248,16.97092 4.92806,6.06617 7.53012,11.6307 7.53012,16.10329 0,7.30314 -3.50046,10.69313 -19.76102,19.1374 -16.06651,8.34349 -19.25153,10.52722 -26.97808,18.49684 -10.73563,11.07333 -17.95128,15.90655 -27.43525,18.37681 -5.60561,1.46008 -14.22402,1.40527 -18.57574,-0.11811 l -4e-5,0 z m 20.26379,-4.81052 c 7.64353,-2.68648 12.71448,-6.25475 21.47873,-15.11393 9.47073,-9.5733 14.58474,-13.14585 29.50912,-20.61453 14.2778,-7.1451 17.67729,-10.05532 17.6558,-15.1147 -0.012,-2.82628 -3.27881,-9.01184 -7.8182,-14.80344 -5.4366,-6.9363 -5.52117,-7.11288 -7.89863,-16.4919 -2.38636,-9.41415 -3.69764,-12.75517 -5.98091,-15.23885 -2.63535,-2.86664 -7.32191,-4.66759 -12.19527,-4.68638 -4.08697,-0.0157 -4.70755,0.23926 -9.58789,3.93988 -12.97767,9.84059 -23.6366,10.79218 -30.54048,2.72654 -2.55571,-2.98577 -5.74236,-10.99594 -5.74236,-14.43437 0,-2.1134 -1.14775,-1.79828 -4.50828,1.23776 -5.58581,5.04644 -7.93945,13.35687 -9.33928,32.97592 -0.87011,12.195 -1.46871,15.17531 -7.23313,36.0126 -4.33662,15.67606 -4.10103,23.42672 0.9413,30.9681 6.70287,10.02489 18.24091,13.21297 31.25948,8.6373 z m -128.47584,-4.77008 c 7.82035,-3.65308 11.53324,-9.15836 12.08756,-17.92278 0.55948,-8.84608 -2.93254,-15.45247 -18.650209,-35.28343 -5.56859,-7.02588 -8.7482,-12.04589 -13.43421,-21.21011 -7.30996,-14.29579 -10.73033,-19.7198 -15.55287,-24.66371 -4.36273,-4.47252 -8.84239,-6.62849 -13.81934,-6.65096 -5.65088,-0.0255 -8.81127,2.20786 -15.80852,11.1715 -6.82413,8.74187 -8.40225,9.93837 -17.46613,13.24242 -7.8405,2.85809 -10.5170001,4.72703 -12.5906701,8.79176 -1.48368,2.90824 -1.56785,3.83405 -0.98785,10.8656 1.10782,13.43043 0.83561,20.1447 -1.10006,27.13468 -3.07142,11.09127 -0.92117,16.37721 7.6580201,18.82562 2.27717,0.64988 9.83552,1.89393 16.79632,2.76456 15.45529,1.93308 21.3901,3.48969 32.28959,8.46905 11.71806,5.35333 18.26363,6.88821 28.30587,6.63751 6.77875,-0.16923 8.72172,-0.51306 12.272499,-2.17171 z M 168.04703,328.801 c 8.50955,-2.42755 15.11085,-5.24915 22.44913,-9.59547 l 5.95796,-3.52878 1.58237,-5.31329 c 2.47299,-8.30384 3.56476,-14.74244 4.11918,-24.29233 1.27978,-22.04445 5.46343,-33.31113 14.17166,-38.16468 3.10849,-1.73251 3.86398,-2.57892 4.27473,-4.78906 1.30656,-7.03038 6.04952,-10.40889 13.72582,-9.77719 9.15163,0.75312 24.63572,8.44884 28.0213,13.92682 0.86721,1.40316 1.57673,3.82884 1.57673,5.39038 0,2.50561 0.20277,2.81039 1.72582,2.59408 1.43311,-0.20353 1.7657,-0.79537 1.96093,-3.48948 0.47392,-6.54006 -4.6616,-12.54996 -15.74348,-18.42399 l -6.14955,-3.25962 0.37945,-8.62936 c 0.59062,-13.43136 -2.45532,-24.98726 -10.13329,-38.44441 -5.04256,-8.83807 -15.16895,-21.19252 -17.37055,-21.19252 -1.75682,0 -0.29261,2.69284 4.14068,7.61513 13.24287,14.70359 19.94052,36.17118 16.33755,52.36582 l -1.28477,5.7748 -3.55128,-0.66345 c -1.9532,-0.3649 -3.68443,-0.7966 -3.84717,-0.95934 -0.16274,-0.16274 -1.11772,-3.52769 -2.12218,-7.47768 -3.08607,-12.13579 -6.29366,-20.24702 -15.73125,-39.7806 -11.43159,-23.66068 -21.13325,-48.31608 -25.31688,-64.33925 l -0.87736,-3.36028 -2.94807,2.8787 c -1.62142,1.58328 -7.20487,5.04397 -12.40765,7.69043 -5.20278,2.64645 -12.02645,6.14222 -15.16372,7.76838 -5.39408,2.79594 -6.08197,2.95634 -12.65601,2.95114 -8.00384,-0.006 -10.50916,-1.0043 -17.38829,-6.92644 -5.89675,-5.07643 -10.547,-8.18366 -11.43043,-7.63767 -0.41832,0.25854 -0.76059,1.62741 -0.76059,3.04194 0,3.99607 -2.06327,13.82678 -4.67271,22.26376 -3.01489,9.74789 -8.5287,23.32148 -17.761029,43.72312 -10.02136,22.14522 -12.82023,31.11236 -14.7237,47.17241 l -0.95455,8.05383 -2.74173,-5.60034 c -4.65095,-9.50017 -5.44642,-20.00753 -2.41889,-31.95102 1.79308,-7.07361 3.51427,-11.34346 9.44494,-23.43061 5.23098,-10.66111 6.12578,-13.05276 4.87225,-13.02277 -1.74735,0.0418 -14.5085,24.74885 -17.82057,34.50264 -5.3292,15.6941 -5.13933,30.39305 0.52709,40.80413 3.09669,5.68964 8.13052,10.41395 18.63578,17.48995 16.438039,11.07212 27.782429,23.77223 29.522279,33.05037 1.06765,5.69342 -3.6405,11.42823 -9.38771,11.43484 -1.37107,0.002 -2.49285,0.31691 -2.49285,0.70074 0,0.38382 2.41822,3.91812 5.37382,7.854 4.53378,6.03748 6.17321,7.59866 10.4876,9.98704 5.4742,3.03044 12.84971,5.65265 19.04761,6.77198 6.85083,1.23725 22.23551,0.32173 29.52158,-1.7568 z m 75.1552,-66.26108 c 8.61672,-4.29388 12.4356,-10.57062 9.48521,-15.58996 -2.97921,-5.06838 -17.09306,-11.49128 -22.86986,-10.40754 -1.56227,0.29308 -3.40802,1.43133 -4.5805,2.82475 -1.6823,1.9993 -1.96381,3.07553 -1.96381,7.50759 0,6.92419 1.70528,11.6335 5.43166,15.00006 2.56677,2.31893 3.55243,2.71944 6.69244,2.71944 2.4557,0 5.05562,-0.68433 7.80486,-2.05434 z m -91.3426,-133.60929 c 2.07452,-0.78826 6.30648,-2.95663 9.40435,-4.81861 3.09788,-1.86197 7.92908,-4.34821 10.736,-5.52495 11.1063,-4.65611 16.75782,-12.99499 13.31682,-19.649145 -1.61629,-3.12557 -4.24468,-4.73408 -13.6082,-8.32789 -4.52507,-1.73677 -9.61922,-4.03638 -11.32033,-5.11024 -6.00657,-3.79178 -10.73769,-5.24445 -17.26975,-5.30259 -5.26411,-0.0469 -6.70494,0.2438 -10.13742,2.04495 -2.20065,1.15475 -5.7783,3.6779 -7.95035,5.60698 -2.17205,1.92909 -6.32998,5.23908 -9.23986,7.35554 -5.83636,4.24501 -6.80526,5.536035 -6.80526,9.067755 0,4.25996 3.85806,9.23329 10.73844,13.84272 1.47653,0.98919 4.75559,3.51141 7.28679,5.60495 2.53121,2.09353 5.98285,4.43724 7.67032,5.20823 4.13264,1.88817 12.21238,1.88925 17.17845,0.002 z m -32.92564,-38.556665 2.21593,-1.63831 -1.48112,-2.00509 c -0.81461,-1.10281 -1.88837,-3.94861 -2.38614,-6.32403 -0.77998,-3.72224 -0.71996,-4.80348 0.43441,-7.82616 2.16659,-5.67313 6.17453,-5.7787 8.859,-0.23334 0.87193,1.80119 1.58534,4.74791 1.58534,6.54828 0,1.80036 0.27039,3.15833 0.60086,3.0177 0.33047,-0.14062 2.26491,-0.946 4.29874,-1.78973 l 3.69789,-1.53406 -0.42277,-4.98571 c -0.61001,-7.19378 -2.53101,-12.03837 -6.24702,-15.75438 -5.02054,-5.02054 -10.26865,-5.20981 -15.15678,-0.5466 -6.75275,6.44204 -7.20621,23.76941 -0.8431,32.21688 1.03276,1.37107 2.04674,2.49285 2.25329,2.49285 0.20655,0 1.37271,-0.73724 2.59147,-1.6383 z m 63.28674,-0.85455 c 0.67163,-0.9492 1.94368,-4.09119 2.82678,-6.9822 1.68337,-5.5109 1.65997,-11.59433 -0.0669,-17.39752 -1.30799,-4.39539 -5.10911,-9.71204 -8.591,-12.01624 -2.80317,-1.85505 -4.00048,-2.14735 -8.79579,-2.14735 -4.94251,0 -5.91546,0.25548 -8.87687,2.33096 -4.43257,3.10652 -7.96422,9.14681 -9.09845,15.56137 -1.424,8.05328 -1.04675,9.24358 3.4714,10.95307 2.10934,0.79809 4.09403,1.45136 4.41043,1.4517 0.3164,3.4e-4 0.5772,-1.29374 0.57955,-2.87574 0.0155,-10.41463 7.49805,-16.91512 12.55408,-10.90638 4.25448,5.05618 4.53232,10.80711 0.92913,19.23188 -0.40218,0.94036 0.34197,1.60388 3.15629,2.81428 4.80659,2.06726 6.02801,2.06435 7.50133,-0.0179 l 0,4e-5 z"
       id="path4138" /><circle
       r="30.297729"
       cy="232.0464"
       cx="112.42697"
       id="path4163"
       style="opacity:1;fill:#e30000;fill-opacity:1;stroke:#a60000;stroke-width:1;stroke-linecap:square;stroke-linejoin:round;stroke-miterlimit:4;stroke-dasharray:none;stroke-opacity:1" /><circle
       r="30.297729"
       cy="167.99931"
       cx="148.86095"
       id="path4163-5"
       style="opacity:1;fill:#2929ff;fill-opacity:1;stroke:#004192;stroke-width:1;stroke-linecap:square;stroke-linejoin:round;stroke-miterlimit:4;stroke-dasharray:none;stroke-opacity:1" /><circle
       r="30.297729"
       cy="231.56987"
       cx="186.44548"
       id="path4163-2"
       style="opacity:1;fill:#00e000;fill-opacity:1;stroke:#11c300;stroke-width:1;stroke-linecap:square;stroke-linejoin:round;stroke-miterlimit:4;stroke-dasharray:none;stroke-opacity:1" /><path
       id="path4195"
       d="m 137.38366,129.33137 c -3.38495,-1.10635 -5.36972,-2.40443 -14.87174,-9.72645 -5.08472,-3.91816 -10.05608,-8.34217 -11.04747,-9.83115 -2.01198,-3.02181 -2.37873,-7.48836 -0.77367,-9.42233 1.93582,-2.332525 20.08251,-16.455945 23.16268,-18.027335 2.63642,-1.34499 4.12417,-1.52246 10.4203,-1.24299 7.09671,0.31501 7.62973,0.46895 15.78211,4.55803 4.64054,2.3276 11.28233,5.36284 14.75953,6.74497 7.53039,2.9932 10.93601,6.25178 10.93601,10.463825 0,6.57748 -4.7489,10.76408 -22.43572,19.77921 -12.3974,6.31905 -13.72848,6.82375 -18.65968,7.07503 -2.92049,0.14882 -6.19305,-0.018 -7.27235,-0.37081 z"
       style="opacity:1;fill:#ffa42a;fill-opacity:1;stroke:#ffa42a;stroke-width:2;stroke-linecap:square;stroke-linejoin:round;stroke-miterlimit:4;stroke-dasharray:none;stroke-opacity:1" /><path
       id="path4197"
       d="m 209.71232,360.75736 c -4.31847,-2.27589 -6.82871,-4.55771 -9.15719,-8.32395 -5.00201,-8.09056 -4.93495,-14.06024 0.3881,-34.54513 2.88215,-11.09147 4.9994,-22.46415 6.05842,-32.54237 1.98079,-18.85026 3.80316,-25.52222 8.27288,-30.2882 l 3.4183,-3.64488 1.95092,5.7159 c 3.64979,10.69329 8.85325,15.43747 16.93016,15.43579 4.46226,-9.3e-4 14.81782,-4.5165 20.87478,-9.10252 4.24029,-3.21052 9.04915,-3.63458 14.65498,-1.29231 4.92493,2.05776 6.92488,5.42471 10.45157,17.59542 2.17878,7.519 4.18045,11.8566 7.5011,16.25478 6.63882,8.79304 9.03549,14.69898 7.41142,18.26342 -1.33644,2.93316 -8.2653,7.55423 -20.4332,13.62751 -10.16811,5.07515 -15.58118,9.02717 -26.45194,19.31228 -11.09118,10.49365 -19.88645,15.27151 -29.6853,16.12592 -5.38985,0.46997 -7.0426,0.11845 -12.185,-2.59166 z"
       style="opacity:1;fill:#ffa42a;fill-opacity:1;stroke:#ffa42a;stroke-width:2.16949153;stroke-linecap:square;stroke-linejoin:round;stroke-miterlimit:4;stroke-dasharray:none;stroke-opacity:1" /><path
       id="path4199"
       d="m 80.230671,358.25518 c -2.89383,-0.51203 -10.94807,-3.23283 -17.8983,-6.04622 -8.87374,-3.59201 -16.19003,-5.69911 -24.569,-7.0759 -27.58603,-4.53279 -26.86686,-4.35241 -30.0520501,-7.5376 -3.51319,-3.51319 -3.64717,-5.18505 -1.29962,-16.21653 1.32209,-6.21269 1.56372,-11.13274 1.02232,-20.81622 -1.01083,-18.07961 -1.56576,-17.29545 18.9395201,-26.763 3.33089,-1.53791 7.06036,-4.86604 11.74149,-10.47795 7.73956,-9.27845 12.1666,-12.0068 17.77508,-10.95465 8.14651,1.5283 14.84915,9.14523 25.26309,28.7092 3.57967,6.72487 11.112,18.422 16.73852,25.99364 13.016619,17.51653 16.346229,23.75354 16.346229,30.6197 0,8.95011 -3.27856,14.50765 -10.84975,18.39158 -4.619889,2.36995 -16.007829,3.43901 -23.157529,2.17395 z"
       style="opacity:1;fill:#ffa42a;fill-opacity:1;stroke:#ffa42a;stroke-width:2.16949153;stroke-linecap:square;stroke-linejoin:round;stroke-miterlimit:4;stroke-dasharray:none;stroke-opacity:1" /><path
       id="path4249"
       d="m 138.5684,330.24051 c -8.09637,-1.46992 -18.93986,-6.06313 -23.23968,-9.84412 -2.40664,-2.11625 -11.13685,-13.18316 -11.14106,-14.12304 -9.2e-4,-0.21021 0.91354,-0.53163 2.03219,-0.71427 5.29309,-0.86419 8.2105,-3.33717 9.36751,-7.94053 0.80118,-3.18761 -0.14272,-6.76166 -3.11352,-11.78925 C 107.76852,277.86632 99.807503,270.22351 86.016461,260.42947 68.149475,247.7408 63.541847,240.2533 63.517404,223.86801 c -0.01568,-10.51085 2.069899,-18.73631 8.061919,-31.79594 3.26981,-7.12656 8.371519,-16.82741 11.235721,-21.36459 2.902712,-4.5982 1.843492,-0.96888 -2.266064,7.76444 -6.77325,14.39402 -7.739697,16.61912 -9.130381,21.02142 -3.209603,10.16019 -3.928096,20.73146 -1.9416,28.56698 0.598211,2.35958 2.22442,6.60879 3.613798,9.44269 l 2.526141,5.15254 0.979594,-7.59322 c 2.378906,-18.43984 4.114853,-23.83919 17.22309,-53.56926 13.400048,-30.3919 18.744418,-46.19575 19.927808,-58.92849 0.22595,-2.43113 0.63446,-4.04152 1.06736,-4.20764 0.86482,-0.33186 4.40376,2.05116 10.78089,7.25953 6.06057,4.94982 8.42808,6.10737 13.826,6.75996 7.98131,0.9649 10.64249,0.24484 23.61173,-6.38886 12.38071,-6.33267 17.22981,-9.13674 20.66603,-11.95047 1.22394,-1.00222 2.3561,-1.82222 2.51591,-1.82222 0.15981,0 0.45576,0.88062 0.65768,1.95694 0.62625,3.33819 5.13283,16.86078 8.83735,26.51763 4.64626,12.11176 8.98926,22.09947 17.15273,39.44657 7.92766,16.84603 10.97249,24.32476 13.63998,33.50259 4.07251,14.01198 3.41601,12.6607 6.49642,13.37166 5.03531,1.16215 4.95636,1.20449 5.97087,-3.20217 4.07946,-17.71963 -1.77131,-37.71195 -15.9916,-54.64407 -4.03041,-4.79901 -5.15463,-6.42916 -4.72803,-6.85576 1.01676,-1.01676 8.97256,7.90894 14.57091,16.34728 6.35211,9.57448 11.12087,21.4857 12.3903,30.94801 0.36912,2.75141 0.56965,8.37939 0.45565,12.78797 l -0.20359,7.87385 5.15757,2.81992 c 6.96875,3.8102 12.01533,7.61525 14.07999,10.61613 3.05722,4.44352 3.44928,11.15751 0.65154,11.15751 -0.83126,0 -1.07701,-0.49538 -1.27799,-2.57627 -0.13687,-1.41695 -0.68402,-3.49186 -1.21591,-4.61091 -1.75328,-3.68877 -10.28381,-9.11267 -19.82581,-12.60569 -2.99298,-1.09562 -5.42924,-1.5565 -9.22034,-1.74424 -4.68394,-0.23196 -5.37452,-0.13608 -7.59322,1.05426 -2.89254,1.55183 -4.59871,3.88599 -5.7597,7.87966 -0.68816,2.3672 -1.2618,3.19822 -3.01862,4.37306 -3.50994,2.34718 -6.38705,5.02101 -8.13239,7.55777 -3.81682,5.54757 -6.33447,16.16761 -7.48835,31.58762 -0.7401,9.89053 -1.74297,15.99976 -3.88482,23.66557 l -1.68717,6.03845 -5.21787,2.9926 c -15.19512,8.71485 -25.30855,11.68992 -41.01447,12.06523 -4.77288,0.11406 -9.92451,-0.0189 -11.44806,-0.29554 z m -16.09213,-68.87866 c 7.11326,-2.46333 13.78526,-8.13794 17.17806,-14.61013 2.48613,-4.7426 3.58247,-9.26336 3.58247,-14.77237 0,-23.17603 -23.79447,-37.6935 -45.01695,-27.46574 -4.727291,2.27822 -11.017085,8.60725 -13.409027,13.49266 -3.268533,6.67581 -4.138116,13.50647 -2.626993,20.6353 2.378869,11.22248 11.551651,20.65765 22.87053,23.52473 4.46831,1.13183 12.96329,0.73958 17.42191,-0.80445 z m 71.49403,0.26704 c 15.8866,-4.04598 26.15298,-20.26897 22.81861,-36.05808 -3.08324,-14.59988 -15.59518,-24.90876 -30.27118,-24.94114 -5.08322,-0.0112 -8.68669,0.84234 -13.74297,3.25529 -13.6639,6.52067 -20.40743,22.44394 -15.74812,37.18554 3.16441,10.01187 11.76894,18.08612 21.88833,20.53939 4.18464,1.01449 11.11218,1.02324 15.05533,0.019 l 0,10e-6 z m -35.15505,-64.27056 c 12.34052,-4.26065 20.83636,-16.04088 20.89584,-28.97389 0.0408,-8.88589 -2.90532,-16.12081 -9.07195,-22.27785 -7.4539,-7.44231 -18.04041,-10.53267 -28.59599,-8.34759 -8.38453,1.73565 -17.09688,8.56696 -20.758,16.27624 -3.34697,7.04777 -4.18786,13.3087 -2.72393,20.28133 1.95899,9.33064 8.12758,17.25922 16.60929,21.34817 2.49747,1.20401 5.7612,2.43469 7.25273,2.73484 4.18331,0.84184 12.46076,0.31604 16.39201,-1.04125 z"
       style="opacity:1;fill:#ffffff;fill-opacity:1;stroke:#000000;stroke-width:2;stroke-linecap:square;stroke-linejoin:miter;stroke-miterlimit:4;stroke-dasharray:none;stroke-opacity:0" /><path
       id="path4251"
       d="m 230.83002,263.1008 c -3.46526,-2.22914 -5.85507,-6.07834 -6.77041,-10.90494 -2.80911,-14.81238 4.99998,-19.19469 20.18741,-11.32879 9.84962,5.10134 11.58392,10.5009 5.35495,16.67212 -3.84969,3.814 -8.67102,6.12765 -13.31854,6.39126 -3.10711,0.17625 -4.13213,0.0203 -5.45341,-0.82965 z"
       style="opacity:1;fill:#ffffff;fill-opacity:1;stroke:#000000;stroke-width:1.08474576;stroke-linecap:square;stroke-linejoin:miter;stroke-miterlimit:4;stroke-dasharray:none;stroke-opacity:0" /><path
       id="path4253"
       d="m 230.78678,263.09278 c -2.39423,-1.51179 -4.94192,-4.79701 -5.94117,-7.66109 -0.47417,-1.35908 -0.98655,-4.66766 -1.13863,-7.35241 -0.22874,-4.03801 -0.10583,-5.20745 0.7114,-6.76885 2.81843,-5.38488 9.40689,-5.72278 18.88621,-0.96861 9.40269,4.71573 11.95776,9.10165 8.48885,14.57155 -3.12468,4.92711 -9.57202,8.66677 -15.53969,9.01352 -3.08401,0.1792 -4.11013,0.0226 -5.46697,-0.83411 z"
       style="opacity:1;fill:#ffffff;fill-opacity:1;stroke:#000000;stroke-width:1.08474576;stroke-linecap:square;stroke-linejoin:miter;stroke-miterlimit:4;stroke-dasharray:none;stroke-opacity:0" /><path
       id="path4255"
       d="m 230.78678,263.09278 c -2.39423,-1.51179 -4.94192,-4.79701 -5.94117,-7.66109 -0.47417,-1.35908 -0.98655,-4.66766 -1.13863,-7.35241 -0.22874,-4.03801 -0.10583,-5.20745 0.7114,-6.76885 2.81926,-5.38646 9.42288,-5.72353 18.88621,-0.96401 9.52094,4.78848 11.99632,9.03625 8.48885,14.56695 -3.12468,4.92711 -9.57202,8.66677 -15.53969,9.01352 -3.08401,0.1792 -4.11013,0.0226 -5.46697,-0.83411 z"
       style="opacity:1;fill:#ffffff;fill-opacity:1;stroke:#000000;stroke-width:2;stroke-linecap:square;stroke-linejoin:miter;stroke-miterlimit:4;stroke-dasharray:none;stroke-opacity:0" /><path
       id="path4257"
       d="m 137.0792,329.94526 c -5.31101,-1.19598 -13.32716,-4.15657 -17.28948,-6.3855 -1.87021,-1.05206 -4.53205,-3.08928 -5.91521,-4.52716 -2.52783,-2.62784 -9.67591,-12.04572 -9.68415,-12.75925 -0.002,-0.21021 0.91084,-0.52404 2.02949,-0.69739 5.86914,-0.90954 9.6256,-5.01597 9.54725,-10.4367 -0.0866,-5.99271 -6.75994,-15.89057 -16.409672,-24.33884 -2.862956,-2.5065 -8.866391,-7.16237 -13.340967,-10.34637 -17.902514,-12.73903 -22.474866,-20.19661 -22.499057,-36.69635 -0.01052,-7.17642 1.253259,-14.59139 3.591878,-21.07459 4.188165,-11.61057 17.448846,-37.02323 17.533202,-33.60049 0.0099,0.40268 -2.552403,6.2085 -5.694062,12.90181 -8.919488,19.00299 -10.908733,26.24893 -10.402443,37.89146 0.163997,3.77126 0.668955,7.76304 1.200672,9.49153 1.092365,3.55103 5.152702,12.47458 5.676106,12.47458 0.202188,0 0.781588,-3.35594 1.287554,-7.45763 2.110248,-17.10704 4.200548,-23.68116 16.08119,-50.57627 10.685389,-24.18934 15.545629,-36.82721 18.234829,-47.41523 1.64091,-6.46066 2.92055,-13.43524 2.92159,-15.92383 0.001,-3.57764 2.09343,-2.6557 11.61052,5.11687 5.9374,4.84906 8.48505,6.08249 13.80507,6.68366 8.00917,0.90505 10.42246,0.27835 22.80052,-5.92106 11.94144,-5.98073 16.67178,-8.68727 20.98727,-12.0082 2.97372,-2.28838 3.47529,-2.49728 3.4754,-1.44747 4e-5,0.37288 0.97227,3.89954 2.1605,7.83703 4.39449,14.56208 12.79644,35.43331 22.66363,56.29857 9.98507,21.11451 12.51206,27.44092 16.42967,41.13221 1.20394,4.20756 2.48214,7.83371 2.84044,8.05812 1.29579,0.81159 6.45378,1.63107 6.97646,1.10839 1.36641,-1.36641 2.29318,-7.63952 2.26268,-15.31567 -0.0264,-6.65491 -0.24586,-8.67526 -1.42674,-13.13667 -3.22058,-12.16752 -7.32048,-19.71002 -17.42275,-32.05222 -1.66448,-2.03355 -3.02634,-3.92507 -3.02634,-4.20339 0,-3.36019 11.86347,10.64106 17.77985,20.98375 3.2236,5.63532 4.54221,8.55625 6.70344,14.8492 2.49214,7.25651 3.23329,12.66216 3.12323,22.77967 l -0.0973,8.94915 5.00139,2.83133 c 10.45633,5.91942 14.90018,10.06348 16.3538,15.25057 0.88927,3.17327 0.1574,6.25679 -1.54233,6.49819 -1.08116,0.15355 -1.2217,-0.063 -1.23225,-1.8983 -0.0305,-5.31438 -4.35324,-9.88657 -13.7085,-14.49976 -7.27099,-3.58541 -12.84569,-5.19898 -17.96186,-5.19898 -6.59731,0 -10.16172,2.70199 -12.04798,9.13292 -0.7096,2.41932 -1.26041,3.17767 -3.34849,4.61017 -10.10464,6.93219 -13.47639,15.62989 -15.27746,39.40945 -0.70781,9.34512 -1.65171,14.97279 -3.87757,23.11853 l -1.64875,6.03378 -5.78756,3.30325 c -10.16457,5.80143 -18.80516,9.20179 -27.21128,10.70856 -6.93633,1.24332 -21.61266,1.5033 -26.22539,0.46457 z m -17.978,-67.7702 c 5.95914,-1.2567 10.26702,-3.66055 14.97125,-8.35417 6.32147,-6.3072 9.17434,-13.13187 9.15633,-21.9039 -0.0474,-23.08809 -23.95864,-37.62778 -44.980245,-27.35108 -2.338398,1.14316 -4.880452,3.0571 -7.431651,5.59537 -12.324972,12.26251 -12.447408,31.42431 -0.278261,43.54916 7.792041,7.76369 17.809277,10.73233 28.562577,8.46462 z m 74.52035,-0.55676 c 11.35694,-2.67707 20.68048,-12.29911 23.10439,-23.8441 1.0042,-4.783 1.00501,-7.68334 0.003,-12.47458 -3.16127,-15.12339 -17.32552,-25.71167 -32.77743,-24.50228 -13.02336,1.0193 -24.1364,10.32893 -27.43159,22.98 -1.0449,4.01164 -1.03528,11.54443 0.0199,15.59561 2.7693,10.63208 11.98765,19.72095 22.61076,22.29316 3.93809,0.95355 10.31172,0.93248 14.47046,-0.0478 l 2.5e-4,-3e-5 z m -38.18136,-63.44324 c 5.98747,-1.26268 10.27047,-3.65869 14.9335,-8.35417 6.66666,-6.71306 9.20801,-12.86613 9.19483,-22.26234 -0.006,-4.25609 -0.2771,-5.9493 -1.52802,-9.54261 -4.42532,-12.71175 -15.85878,-20.81734 -29.40162,-20.84389 -14.6582,-0.0287 -27.14563,10.40437 -30.17671,25.21232 -2.31517,11.31042 2.74476,23.85979 12.3362,30.59559 7.73525,5.43226 15.62737,7.09611 24.64182,5.1951 z"
       style="opacity:1;fill:#ffffff;fill-opacity:1;stroke:#000000;stroke-width:1.08474576;stroke-linecap:square;stroke-linejoin:miter;stroke-miterlimit:4;stroke-dasharray:none;stroke-opacity:0" /><path
       id="path4259"
       d="m 174.83002,89.183685 c -1.5661,-0.729126 -2.83949,-1.641996 -2.82975,-2.0286 0.01,-0.386605 0.4899,-2.045291 1.06704,-3.685969 2.2807,-6.48361 1.06802,-13.183915 -3.03877,-16.789724 -5.01964,-4.407298 -11.38303,0.811398 -12.03093,9.86672 -0.15507,2.167322 -0.54128,3.86572 -0.91134,4.007725 -0.78849,0.302574 -5.63331,-1.725329 -6.93422,-2.902467 -1.17947,-1.067257 -1.21972,-3.672566 -0.1363,-8.822952 1.491,-7.087983 5.00959,-12.661999 9.98442,-15.816941 2.22545,-1.411339 2.86257,-1.542361 7.50001,-1.542361 6.04768,0 7.89099,0.753699 11.63654,4.757995 4.82591,5.159291 7.35841,12.645689 6.71662,19.855242 -0.33885,3.806505 -2.45774,11.01635 -3.88441,13.217271 -1.05486,1.627341 -3.47905,1.58797 -7.13891,-0.115939 z"
       style="opacity:1;fill:#ffffff;fill-opacity:1;stroke:#000000;stroke-width:2;stroke-linecap:square;stroke-linejoin:miter;stroke-miterlimit:4;stroke-dasharray:none;stroke-opacity:0" /><path
       id="path4261"
       d="m 114.8614,89.851896 c -3.39141,-4.530068 -4.69647,-9.016613 -4.69647,-16.145492 0,-8.36497 2.0453,-13.876154 6.37319,-17.172909 3.01365,-2.295645 5.44838,-2.744354 8.52192,-1.570556 6.41118,2.448452 11.1037,11.409356 11.12181,21.23837 0.004,2.213726 -0.0111,2.230185 -3.38573,3.662576 -1.86441,0.791371 -3.53874,1.438156 -3.72073,1.437298 -0.182,-8.68e-4 -0.4729,-1.37742 -0.64646,-3.059028 -0.40456,-3.919783 -2.86181,-8.908816 -4.85315,-9.853482 -2.14477,-1.017453 -4.16387,0.09141 -5.69492,3.12757 -2.01167,3.989267 -1.24242,11.362696 1.60266,15.36182 1.20612,1.695364 0.96469,2.245735 -1.6614,3.787392 l -1.63366,0.959052 -1.32706,-1.772611 z"
       style="opacity:1;fill:#ffffff;fill-opacity:1;stroke:#000000;stroke-width:2;stroke-linecap:square;stroke-linejoin:miter;stroke-miterlimit:4;stroke-dasharray:none;stroke-opacity:0" /><path
       style="fill:none;fill-rule:evenodd;stroke:#000000;stroke-width:2;stroke-linecap:round;stroke-linejoin:miter;stroke-miterlimit:4;stroke-dasharray:none;stroke-opacity:1"
       d="m 112.82634,105.06842 c 2.37047,0.82595 4.09479,0 9.91246,5.11118 13.88506,12.1989 27.31605,5.8276 39.89894,-0.27079 4.67686,-2.26668 14.5291,-5.37944 16.3484,-4.84039"
       id="path4162" /></g></svg>