<?xml version="1.0" encoding="UTF-8" standalone="no"?>
<svg
   xmlns:dc="http://purl.org/dc/elements/1.1/"
   xmlns:cc="http://creativecommons.org/ns#"
   xmlns:rdf="http://www.w3.org/1999/02/22-rdf-syntax-ns#"
   xmlns:svg="http://www.w3.org/2000/svg"
   xmlns="http://www.w3.org/2000/svg"
   enable-background="new 0 0 515.91 728.5"
   height="512"
   id="Layer_1"
   version="1.1"
   viewBox="0 0 512.00003 512"
   width="512"
   xml:space="preserve"><metadata
     id="metadata10"><rdf:RDF><cc:Work
         rdf:about=""><dc:format>image/svg+xml</dc:format><dc:type
           rdf:resource="http://purl.org/dc/dcmitype/StillImage" /><dc:title></dc:title></cc:Work></rdf:RDF></metadata><defs
     id="defs7" /><g
     id="g4159"><g
       transform="translate(136.1786,108.25001)"
       id="g4367"><path
         transform="matrix(0.69372682,0,0,0.69372682,884.75558,97.615782)"
         style="fill:#333333;fill-opacity:1;fill-rule:nonzero;stroke:none"
         id="path5016"
         d="m -733.62329,72.267944 c 0,203.804876 -165.21649,369.021366 -369.02141,369.021366 -203.8048,0 -369.0213,-165.21649 -369.0213,-369.021366 0,-203.804874 165.2165,-369.021364 369.0213,-369.021364 203.80492,0 369.02141,165.21649 369.02141,369.021364 z" /><path
         style="fill:#ffffff;fill-opacity:1;fill-rule:nonzero;stroke:none"
         id="path4846"
         d="m 119.8403,-76.250028 c -123.7091113,0 -224.01892,100.3096 -224.01892,224.018808 0,123.70921 100.3098087,223.98121 224.01892,223.98121 123.7091,0 223.98111,-100.272 223.98111,-223.98121 0,-123.709208 -100.27201,-224.018808 -223.98111,-224.018808 z m 14.8519,24.703001 c 58.3166,0.079 55.0732,61.573199 54.7074,94.713499 -0.2364,21.71391 11.7497,36.36511 24.0261,51.85001 10.9679,12.962398 25.3133,31.946098 33.539,53.692298 6.7024,17.719 9.347,37.3093 2.7072,57.0011 1.989,0.7551 3.9272,1.9157 5.828,3.5719 0.012,0.01 0.027,-0.01 0.038,0 4.7756,4.0666 6.2958,10.3508 7.6328,16.1679 1.3379,5.8205 2.5791,11.26361 5.1887,14.21271 l 0,0.038 c 7.9425,8.8165 11.3905,15.3978 11.0543,21.2814 -0.3366,5.8862 -4.6731,9.9232 -10.0391,13.1599 -10.7324,6.473 -26.946,11.3751 -36.6973,23.199 l -1.8799,-1.5416 1.8799,1.5792 c -10.2305,12.1751 -22.8759,19.1763 -34.7797,20.1158 -11.8882,0.9379 -23.0607,-4.5384 -29.0644,-16.5439 -0.012,-0.017 0.012,-0.058 0,-0.075 -0.8022,-1.5357 -1.4377,-3.1324 -1.8424,-4.8127 -15.4873,0.86 -28.9267,-3.8386 -39.7054,-2.9703 -15.88821,0.8748 -25.81591,4.7308 -34.854711,4.7751 -3.4931,7.6767 -10.2711,12.6374 -18.6495,14.5511 -11.5564,2.6395 -26.057,0.026 -40.3445,-7.4447 l 0,-0.038 c -13.3458,-7.0736 -30.2841003,-6.4124 -42.7884003,-9.0239 -6.2520997,-1.3059 -11.7854997,-3.6326 -14.4759997,-8.8736 -2.6847,-5.2302 -2.1968,-12.4365 1.6169,-22.8606 1.193,-3.7141 0.2861,-9.1716 -0.6016,-14.9646 -0.8879,-5.7934 -1.7416,-12.054 1.1656,-17.48391 0,-0.01 0,-0.027 0,-0.038 3.2114,-6.1624 8.5292,-8.6862 13.3477997,-10.4151 4.8169,-1.7281 9.18109998,-2.9095 12.2576,-5.9783 3.2928,-3.4835 6.2651003,-8.6643 10.2647003,-12.9343 0.5343,-0.5705 1.064,-1.1258 1.6545,-1.6544 -1.8845,-12.4266 0.1483,-25.5826 4.4365,-38.4645 9.0859,-27.2944 28.3006,-53.5096 41.9238,-69.709698 11.5954,-16.4827 15.0152,-29.7637 16.2055,-46.62361 0.9672,-23.055 -16.3274,-91.908998 48.841811,-97.157499 2.5785,-0.2056 5.0368,-0.3008 7.4073,-0.3008 z m 7.7455,51.06029945 c -3.3774,0.031 -6.1975,1.0671 -9.0991,3.27119995 -2.9018,2.204 -4.9903,4.9117 -6.6552,8.6854996 -1.665,3.7738 -2.3782,7.4776 -2.3312,11.8063 l 0,0.3384 c 0.028,1.2216 0.1145,2.3646 0.2632,3.4968 2.6183,0.6231 5.387,1.6456 8.3471,3.1207 -0.2027,-1.1707 -0.29,-2.3687 -0.2631,-3.6847 0,-0.095 0.021,-0.1683 0.038,-0.2632 0.08,-2.3944 0.4755,-4.4375 1.3159,-6.4672 0.8404,-2.0295 1.8699,-3.4831 3.2336,-4.6247 1.2997,-1.0881 2.5388,-1.57 3.9855,-1.5792 0.071,0 0.1537,-0.01 0.2256,0 1.5381,0.048 2.8139,0.6273 4.0983,1.88 1.2845,1.2527 2.1974,2.7573 2.8953,4.8503 0.666,1.9978 0.9879,3.9583 0.94,6.2416 0,0.1106 -0.038,0.1683 -0.038,0.2632 -0.08,2.3785 -0.5133,4.3841 -1.3537,6.4295 -0.5563,1.3541 -1.1952,2.4331 -1.9552,3.3464 2.0961,0.7273 4.6176,1.6415 7.8959,3.0456 0.4729,0.1945 0.9521,0.3908 1.3912,0.6015 1.2936,-1.5647 2.3679,-3.3738 3.3088,-5.5271 1.6491,-3.7739 2.4003,-7.4617 2.3688,-11.8063 -0.03,-0.1112 -0.038,-0.2274 -0.038,-0.3384 -0.08,-4.2337 -0.8762,-7.7833 -2.5567,-11.4303 -1.7126,-3.7419996 -3.8563,-6.4320996 -6.8057,-8.5726996 -2.903,-2.10719995 -5.7149,-3.08319995 -9.0238,-3.08319995 l -0.1881,0 z M 96.754089,3.1228724 c -2.426,0.1269 -4.4317,1.1388 -6.4295,3.1208 -1.9979,1.9821 -3.3685,4.3780996 -4.3992,7.7078996 -1.0305,3.3298 -1.4468,6.5602 -1.2409,10.3023 l 0,0.038 c 0.2221,3.7421 0.9737,6.9055 2.3688,10.0767 1.1782,2.6774 2.5593,4.699 4.2864,6.3167 0.7921,-0.5835 1.4583,-1.0842 2.0304,-1.5039 0.8921,-0.6555 1.3931,-1.0423 2.4816,-1.88 -0.1726,-0.1215 -0.3511,-0.2622 -0.5264,-0.4136 -1.0465,-0.9037 -1.8214,-2.0733 -2.5192,-3.7224 -0.6817,-1.6015 -1.0882,-3.1732 -1.2783,-5.0759 l 0,-0.2256 c -0.1744,-1.9662 -0.074,-3.6702 0.3383,-5.4144 0.4123,-1.7441 0.9702,-3.0736 1.8424,-4.136 0.872,-1.0624 1.8227,-1.597 2.9328,-1.6919 0.1042,-0.01 0.199,0 0.3009,0 0.9858,-0.01 1.8715,0.3465 2.8199,1.1655 1.046501,0.9039 1.843301,2.0575 2.556701,3.7224 0.6661,1.6015 1.088,3.1892 1.2784,5.076 0,0.079 -0.018,0.1462 0,0.2256 0.136,1.4206 0.103,2.6922 -0.075,3.9479 1.8179,-1.2005 3.912,-2.2684 6.279,-3.0831 0.4171,-0.1435 0.8442,-0.2903 1.2785,-0.4136 0.1235,-1.4329 0.1373,-2.9403 0.038,-4.512 -0.2062,-3.7421 -0.9359,-6.9054 -2.3312,-10.0767 -1.3954,-3.1711996 -3.0976,-5.4215996 -5.3016,-7.1814996 -2.0316,-1.6226 -3.971101,-2.3688 -6.166401,-2.3688 -0.1859,0 -0.3742,-0.01 -0.5639,0 z M 117.88509,29.028972 c -2.6725,0.011 -5.0414,0.5042 -7.1816,1.2408 -6.2171,2.1402 -10.3468,6.6124 -12.934201,9.0616 -0.5043,0.484 -1.1618,0.944 -2.7448,2.1055 -1.5932,1.1695 -4.0012,2.9091 -7.4448,5.4896 -3.0624,2.2954 -4.0658,5.2996 -3.0079,8.7983 1.0579,3.4986 4.4673,7.52741 10.6406,11.01671 l 0,0.038 c 3.8327,2.2505 6.434101,5.2564 9.437601,7.6704 3.0035,2.4137 6.3249,4.3007 11.8815,4.6247 6.52711,0.3775 11.32401,-1.5598 15.56621,-3.9856 4.2424,-2.4258 7.8676,-5.3895 11.9943,-6.7303 l 0,-0.038 c 8.4635,-2.6428 14.5038,-7.95191 16.3935,-13.00951 0.9448,-2.5286 0.9408,-4.9272 -0.188,-7.1439 -1.1288,-2.2166 -3.4711,-4.3257 -7.4071,-5.9408 -8.1808,-3.5037 -11.7525,-3.7612 -16.3183,-6.7303 -7.433,-4.7791 -13.5471,-6.4499 -18.64941,-6.4295 l -0.038,-0.038 z m 35.71961,21.1687 0.1505,2.7447 c -1.2551,0.075 -3.4397,1.0056 -6.016,2.444 -2.5762,1.4383 -5.6128,3.3389 -8.9487,5.264 -6.6719,3.85021 -14.5664,7.74551 -22.93581,7.74551 -8.3579,0 -14.9513,-3.8304 -19.702101,-7.59511 -2.3755,-1.8825 -4.3385,-3.7538 -5.7904,-5.1136 -0.726,-0.6799 -1.3265,-1.2398 -1.7673,-1.5792 -0.2713,-0.2095 -0.5168,-0.2703 -0.5639,-0.3008 -0.029,-0.019 0.04,-0.01 0.1128,-0.7144 l 0.075,-2.1056 c 1.0026,0 1.4687,0.4405 2.068,0.9024 0.5993,0.4618 1.2519,1.0735 1.9928,1.7672 1.4813,1.3874 3.3555,3.1828 5.6022,4.9632 4.493501,3.5608 10.474201,7.03111 17.972701,7.03111 7.48671,0 15.00001,-3.63041 21.54461,-7.40711 3.272,-1.8883 6.3013,-3.8024 8.9863,-5.3016 2.685,-1.4989 5.0174,-2.6132 7.2191,-2.7447 z m 7.4448,10.0015 c -3.2358,4.61711 -8.9408,8.55461 -16.0926,10.79111 -3.3847,1.1046 -6.9583,3.9476 -11.4303,6.5047 -4.4785,2.561 -9.9731,4.8144 -17.14551,4.3992 -6.1448,-0.3579 -10.2049,-2.6475 -13.4606,-5.264 -3.249501,-2.6114 -5.758701,-5.4775 -9.099201,-7.4447 -1.1418,-0.6492 -3.691,-2.3914 -4.4367,-2.9328 -1.4461,27.2739 -19.6447,61.519498 -28.3502,81.252898 -5.9767,14.2215 -9.5816,29.4224 -10.0015,44.33 -15.7123,-20.948 -4.2208,-47.8165 1.9176,-59.4451 6.8492,-12.7186 7.9049,-16.1885 6.2416,-14.9646 -6.1786,10.0783 -15.8209,26.1258 -19.5895,42.638 -1.9636,8.6025 -2.3596,17.3218 0.1881,25.3798 2.5472,8.057 8.0155,15.4901 17.747,21.5446 13.2462,8.1237 22.238,16.2579 27.5605,23.4621 5.321,7.20491 7.0019,13.50031 5.3391,17.97271 -0.8314,2.2363 -2.4961,3.9538 -4.8879,5.0383 -1.9232,0.8721 -4.3066,1.3536 -7.1063,1.3536 1.4233,1.7882 2.8551,3.5898 4.2487,5.4144 2.1825,2.8572 4.2806,5.7617 6.1288,8.6855 27.272201,18.6121 59.387511,11.4704 82.531211,-5.0383 2.3001,-7.9019 4.5863,-15.3897 4.9256,-20.9055 0.5551,-10.96941 1.1462,-20.72951 3.1582,-28.80131 2.0141,-8.0782 5.6238,-14.6435 12.2577,-18.2734 1.0638,-0.5822 2.1028,-1.0622 3.1584,-1.4288 0.074,-0.6823 0.179,-1.37 0.3008,-2.0304 1.9028,-12.6057 13.1694,-13.2092 27.2972,-6.9935 13.6213,6.163 18.7386,11.538 16.4311,18.8374 0.083,-0.01 0.1803,0 0.2632,0 0.8955,-0.018 1.8116,-0.034 2.7448,0 2.8333,-9.2087 -3.0535,-15.9663 -18.9879,-23.7254 -1.0708,-0.5069 -2.1178,-0.9589 -3.1584,-1.3912 2.1271,-8.6442 1.6814,-17.3865 -0.3008,-25.7182 -4.3468,-18.2717 -16.316,-34.4768 -25.4174,-42.5252 -1.6789,-0.069 -1.5067,1.4136 1.8802,4.7 8.3883,7.7196 26.7336,35.44 16.8069,61.1746 -2.8367,-0.7256 -5.4901,-1.0889 -7.8959,-1.0152 -3.7967,-20.9775 -12.578,-38.3911 -16.995,-46.586 -8.3098,-15.446 -21.2121,-47.082398 -26.771,-68.995308 z m 45.4204,125.432408 c -4.3736,0.02 -7.3887,2.2923 -8.0087,7.5576 -1.1575,7.7536 2.3179,18.0133 9.4375,19.8526 6.9768,1.9028 17.1736,-5.3163 19.5518,-9.8511 2.8226,-6.0095 -0.4152,-10.1168 -10.7535,-14.8895 -3.8411,-1.7184 -7.3303,-2.6835 -10.2271,-2.6696 z m -11.7311,14.1751 c -0.2359,0.1167 -0.4754,0.2454 -0.7145,0.376 -5.131,2.8078 -8.0116,7.8127 -9.8509,15.1903 -1.8393,7.3776 -2.454,16.9501 -3.008,27.89891 l 0,0.038 c -0.524,8.5454 -4.4199,19.0133 -7.1441,29.2526 -2.7237,10.2394 -4.0983,19.943 -0.8647,26.0942 l 0.038,0.038 0,0.038 c 5.2122,10.4615 14.042,14.7206 24.2893,13.9119 10.2474,-0.8087 21.8911,-7.068 31.4332,-18.4239 10.9894,-13.3111 28.1904,-18.3951 37.9005,-24.2518 4.8573,-2.9295 7.5004,-5.6164 7.7081,-9.2495 0.2076,-3.6329 -2.2626,-9.3262 -9.8512,-17.7471 l 0,-0.038 c -3.947,-4.4428 -5.0006,-10.66711 -6.3167,-16.39341 -1.3161,-5.7263 -2.8234,-10.831 -6.016,-13.5359 l -0.038,0 c -4.1546,-3.6336 -8.1992,-3.9525 -13.0471,-3.8352 -1.0464,0.025 -2.1316,0.068 -3.2337,0.1128 -5.5267,6.3537 -18.5944,14.1607 -27.6733,11.7687 -8.2964,-2.0928 -13.0266,-11.762 -13.6111,-21.2438 z m -166.754511,0.7144 c -4.3775,0.031 -7.2875,2.0904 -10.1895,5.1888 -3.4395,3.6718 -6.3897,8.8445 -10.3023003,12.9718 l 0,0.038 -0.038,0 c -4.2321,4.2414 -9.5803,5.5224 -14.0999,7.144 -4.5196997,1.6215 -8.1579997,3.3358 -10.6407997,8.12151 l -0.038,0.038 c -1.9392,3.6004 -1.4718,8.7594 -0.6016,14.4383 0.8704,5.6788 2.1687,11.7288 0.376,17.2582 l 0,0.038 0,0.075 c -3.6247,9.8845 -3.6234,15.6651 -1.9176,18.9879 1.7057,3.3228 5.4341,5.0895 11.1295997,6.2791 11.3881,2.3784 29.1436003,1.6087 44.0668003,9.5126 13.4886,7.0561 26.9986,9.3441 36.9604,7.0688 9.9646,-2.2759 16.4588,-8.5332 17.3335,-20.0405 l 0,-0.038 0,-0.038 c 0.6759,-6.7469 -4.5345,-15.5825 -11.2424,-24.3646 -6.7079,-8.7821 -14.5974,-17.3628 -18.3486,-25.1918 l 0,-0.038 c -4.6679,-10.02281 -9.2573,-19.06141 -14.1375,-25.68061 -4.88,-6.6192 -9.9082,-10.6632 -15.7166,-11.5431 -0.8529,-0.1289 -1.6864,-0.224 -2.4441,-0.2256 l -0.1503,0 z" /></g><path
       style="opacity:1;fill:#000000;fill-opacity:1;stroke:#a2070f;stroke-width:0.15340622;stroke-linecap:square;stroke-linejoin:round;stroke-miterlimit:4;stroke-dasharray:none;stroke-opacity:1"
       d="M 240.09102,511.16256 C 141.48108,505.0414 54.670008,441.884 18.187771,349.72196 9.5506252,327.90265 4.1349252,305.46351 1.5266632,280.68916 0.39582042,269.94795 0.3756972,242.57835 1.4905701,231.59917 7.179736,175.5727 29.997445,124.44921 67.734405,83.178656 106.97118,40.267845 161.41416,11.368892 218.61415,3.0899686 288.57362,-7.0357161 357.4881,11.336389 414.20708,55.233638 c 11.37399,8.802818 33.78118,31.221315 42.49715,42.518609 34.95392,45.305843 52.98132,94.990513 54.68724,150.721603 2.90177,94.79823 -46.92767,183.15818 -129.78321,230.13783 -42.34881,24.01206 -92.65781,35.58381 -141.51724,32.55088 z m 31.91216,-31.45306 c 20.59077,-1.64723 36.56124,-4.85694 55.14587,-11.08309 20.34168,-6.81479 35.45396,-14.21523 53.30866,-26.10508 13.88859,-9.24873 21.13214,-15.26486 34.55704,-28.70135 34.2477,-34.27724 55.54004,-76.60505 62.91653,-125.074 3.03146,-19.91896 2.82467,-48.49922 -0.49674,-68.65228 C 468.56857,166.29825 440.32865,117.13946 398.60253,82.866444 366.24584,56.289299 329.22129,40.126669 285.67381,33.568747 271.54556,31.441141 238.25256,31.659582 223.29827,33.978003 183.19313,40.195661 147.50739,55.779955 115.75356,80.94378 105.56208,89.020181 88.723137,105.85062 80.684145,115.99549 41.185167,165.84154 24.548873,229.27935 34.577248,291.81111 c 11.971867,74.65038 60.961397,138.17271 130.558812,169.28925 32.9235,14.71987 71.50437,21.43809 106.86712,18.60914 z"
       id="path4136" /><path
       style="opacity:1;fill:#000000;fill-opacity:1;stroke:#a2070f;stroke-width:0.15340622;stroke-linecap:square;stroke-linejoin:round;stroke-miterlimit:4;stroke-dasharray:none;stroke-opacity:1"
       d="m 322.22402,424.01423 c -7.08344,-2.47967 -13.12943,-7.82035 -16.5001,-14.57524 -1.08313,-2.1706 -1.96932,-4.32788 -1.96932,-4.79395 0,-0.54536 -2.11872,-0.8484 -5.94449,-0.85023 -3.26947,-0.002 -11.29453,-0.71427 -17.83347,-1.58379 -7.68781,-1.02231 -13.78629,-1.42602 -17.2582,-1.14245 -4.49283,0.36695 -27.83679,3.70774 -32.98234,4.72016 -0.84373,0.16601 -2.39697,1.72716 -3.45164,3.46921 -2.42086,3.99866 -7.34274,7.80426 -12.92252,9.9917 -3.5299,1.38381 -5.90376,1.70272 -12.77302,1.71597 -10.12957,0.0196 -16.37987,-1.5391 -28.64868,-7.14402 -10.42555,-4.76286 -14.67352,-5.84539 -32.07694,-8.17434 -16.36601,-2.19013 -21.26021,-3.74606 -25.0789,-7.97289 -4.28961,-4.74809 -4.66501,-11.66924 -1.24229,-22.90432 l 1.71612,-5.63316 -1.3365,-10.26169 c -0.76255,-5.85489 -1.10594,-11.49063 -0.79963,-13.12342 1.44434,-7.69898 6.39574,-12.65253 16.35886,-16.36595 8.13617,-3.03249 10.54622,-4.76558 15.20224,-10.9321 1.98595,-2.63023 4.42696,-5.67316 5.42448,-6.76208 1.71283,-1.86977 1.82909,-2.63745 2.09081,-13.80656 0.32136,-13.71405 1.96802,-21.20036 7.80836,-35.49967 6.69345,-16.38803 19.54526,-37.58098 32.62364,-53.79717 7.47196,-9.26466 11.045,-14.73274 14.64061,-22.40559 6.55926,-13.99706 8.29079,-27.07585 6.93476,-52.37994 -1.30473,-24.34654 0.56356,-38.653609 6.66082,-51.00757 8.7379,-17.704274 28.17691,-26.904551 53.74074,-25.434927 14.41323,0.828594 24.66937,4.958867 32.59882,13.127946 5.87907,6.056725 9.17737,11.653252 12.35907,20.970744 4.0595,11.888107 4.95948,19.265037 5.6338,46.178957 0.65369,26.09013 0.96858,28.3142 5.38928,38.06384 3.17042,6.99222 8.84917,15.27526 20.70607,30.20193 5.52927,6.96081 12.3037,16.0259 15.0543,20.14466 10.64413,15.9386 18.71984,34.25116 21.4778,48.70327 1.65678,8.68184 1.64741,22.53599 -0.0203,30.09908 -0.69772,3.164 -1.46059,6.64676 -1.69528,7.73946 -0.36008,1.67656 -0.0558,2.14036 1.94928,2.97088 2.91323,1.2067 6.57528,5.26625 8.14966,9.03429 0.64641,1.54706 2.04665,6.25038 3.11166,10.45181 2.28906,9.03027 3.17444,10.88016 8.12248,16.97092 4.92806,6.06617 7.53012,11.6307 7.53012,16.10329 0,7.30314 -3.50046,10.69313 -19.76102,19.1374 -16.06651,8.34349 -19.25153,10.52722 -26.97808,18.49684 -10.73563,11.07333 -17.95128,15.90655 -27.43525,18.37681 -5.60561,1.46008 -14.22402,1.40527 -18.57574,-0.11811 l -4e-5,0 z m 20.26379,-4.81052 c 7.64353,-2.68648 12.71448,-6.25475 21.47873,-15.11393 9.47073,-9.5733 14.58474,-13.14585 29.50912,-20.61453 14.2778,-7.1451 17.67729,-10.05532 17.6558,-15.1147 -0.012,-2.82628 -3.27881,-9.01184 -7.8182,-14.80344 -5.4366,-6.9363 -5.52117,-7.11288 -7.89863,-16.4919 -2.38636,-9.41415 -3.69764,-12.75517 -5.98091,-15.23885 -2.63535,-2.86664 -7.32191,-4.66759 -12.19527,-4.68638 -4.08697,-0.0157 -4.70755,0.23926 -9.58789,3.93988 -12.97767,9.84059 -23.6366,10.79218 -30.54048,2.72654 -2.55571,-2.98577 -5.74236,-10.99594 -5.74236,-14.43437 0,-2.1134 -1.14775,-1.79828 -4.50828,1.23776 -5.58581,5.04644 -7.93945,13.35687 -9.33928,32.97592 -0.87011,12.195 -1.46871,15.17531 -7.23313,36.0126 -4.33662,15.67606 -4.10103,23.42672 0.9413,30.9681 6.70287,10.02489 18.24091,13.21297 31.25948,8.6373 z m -128.47584,-4.77008 c 7.82035,-3.65308 11.53324,-9.15836 12.08756,-17.92278 0.55948,-8.84608 -2.93254,-15.45247 -18.65021,-35.28343 -5.56859,-7.02588 -8.7482,-12.04589 -13.43421,-21.21011 -7.30996,-14.29579 -10.73033,-19.7198 -15.55287,-24.66371 -4.36273,-4.47252 -8.84239,-6.62849 -13.81934,-6.65096 -5.65088,-0.0255 -8.81127,2.20786 -15.80852,11.1715 -6.82413,8.74187 -8.40225,9.93837 -17.46613,13.24242 -7.8405,2.85809 -10.517,4.72703 -12.59067,8.79176 -1.48368,2.90824 -1.56785,3.83405 -0.98785,10.8656 1.10782,13.43043 0.83561,20.1447 -1.10006,27.13468 -3.07142,11.09127 -0.92117,16.37721 7.65802,18.82562 2.27717,0.64988 9.83552,1.89393 16.79632,2.76456 15.45529,1.93308 21.3901,3.48969 32.28959,8.46905 11.71806,5.35333 18.26363,6.88821 28.30587,6.63751 6.77875,-0.16923 8.72172,-0.51306 12.2725,-2.17171 z m 65.19764,-28.50157 c 8.50955,-2.42755 15.11085,-5.24915 22.44913,-9.59547 l 5.95796,-3.52878 1.58237,-5.31329 c 2.47299,-8.30384 3.56476,-14.74244 4.11918,-24.29233 1.27978,-22.04445 5.46343,-33.31113 14.17166,-38.16468 3.10849,-1.73251 3.86398,-2.57892 4.27473,-4.78906 1.30656,-7.03038 6.04952,-10.40889 13.72582,-9.77719 9.15163,0.75312 24.63572,8.44884 28.0213,13.92682 0.86721,1.40316 1.57673,3.82884 1.57673,5.39038 0,2.50561 0.20277,2.81039 1.72582,2.59408 1.43311,-0.20353 1.7657,-0.79537 1.96093,-3.48948 0.47392,-6.54006 -4.6616,-12.54996 -15.74348,-18.42399 l -6.14955,-3.25962 0.37945,-8.62936 c 0.59062,-13.43136 -2.45532,-24.98726 -10.13329,-38.44441 -5.04256,-8.83807 -15.16895,-21.19252 -17.37055,-21.19252 -1.75682,0 -0.29261,2.69284 4.14068,7.61513 13.24287,14.70359 19.94052,36.17118 16.33755,52.36582 l -1.28477,5.7748 -3.55128,-0.66345 c -1.9532,-0.3649 -3.68443,-0.7966 -3.84717,-0.95934 -0.16274,-0.16274 -1.11772,-3.52769 -2.12218,-7.47768 -3.08607,-12.13579 -6.29366,-20.24702 -15.73125,-39.7806 -11.43159,-23.66068 -21.13325,-48.31608 -25.31688,-64.33925 l -0.87736,-3.36028 -2.94807,2.8787 c -1.62142,1.58328 -7.20487,5.04397 -12.40765,7.69043 -5.20278,2.64645 -12.02645,6.14222 -15.16372,7.76838 -5.39408,2.79594 -6.08197,2.95634 -12.65601,2.95114 -8.00384,-0.006 -10.50916,-1.0043 -17.38829,-6.92644 -5.89675,-5.07643 -10.547,-8.18366 -11.43043,-7.63767 -0.41832,0.25854 -0.76059,1.62741 -0.76059,3.04194 0,3.99607 -2.06327,13.82678 -4.67271,22.26376 -3.01489,9.74789 -8.5287,23.32148 -17.76103,43.72312 -10.02136,22.14522 -12.82023,31.11236 -14.7237,47.17241 l -0.95455,8.05383 -2.74173,-5.60034 c -4.65095,-9.50017 -5.44642,-20.00753 -2.41889,-31.95102 1.79308,-7.07361 3.51427,-11.34346 9.44494,-23.43061 5.23098,-10.66111 6.12578,-13.05276 4.87225,-13.02277 -1.74735,0.0418 -14.5085,24.74885 -17.82057,34.50264 -5.3292,15.6941 -5.13933,30.39305 0.52709,40.80413 3.09669,5.68964 8.13052,10.41395 18.63578,17.48995 16.43804,11.07212 27.78243,23.77223 29.52228,33.05037 1.06765,5.69342 -3.6405,11.42823 -9.38771,11.43484 -1.37107,0.002 -2.49285,0.31691 -2.49285,0.70074 0,0.38382 2.41822,3.91812 5.37382,7.854 4.53378,6.03748 6.17321,7.59866 10.4876,9.98704 5.4742,3.03044 12.84971,5.65265 19.04761,6.77198 6.85083,1.23725 22.23551,0.32173 29.52158,-1.7568 z m 75.1552,-66.26108 c 8.61672,-4.29388 12.4356,-10.57062 9.48521,-15.58996 -2.97921,-5.06838 -17.09306,-11.49128 -22.86986,-10.40754 -1.56227,0.29308 -3.40802,1.43133 -4.5805,2.82475 -1.6823,1.9993 -1.96381,3.07553 -1.96381,7.50759 0,6.92419 1.70528,11.6335 5.43166,15.00006 2.56677,2.31893 3.55243,2.71944 6.69244,2.71944 2.4557,0 5.05562,-0.68433 7.80486,-2.05434 z m -91.3426,-133.60929 c 2.07452,-0.78826 6.30648,-2.95663 9.40435,-4.81861 3.09788,-1.86197 7.92908,-4.34821 10.736,-5.52495 11.1063,-4.65611 16.75782,-12.99499 13.31682,-19.64914 -1.61629,-3.12557 -4.24468,-4.73408 -13.6082,-8.32789 -4.52507,-1.73677 -9.61922,-4.03638 -11.32033,-5.11024 -6.00657,-3.79178 -10.73769,-5.24445 -17.26975,-5.30259 -5.26411,-0.0469 -6.70494,0.2438 -10.13742,2.04495 -2.20065,1.15475 -5.7783,3.6779 -7.95035,5.60698 -2.17205,1.92909 -6.32998,5.23908 -9.23986,7.35554 -5.83636,4.24501 -6.80526,5.53603 -6.80526,9.06775 0,4.25996 3.85806,9.23329 10.73844,13.84272 1.47653,0.98919 4.75559,3.51141 7.28679,5.60495 2.53121,2.09353 5.98285,4.43724 7.67032,5.20823 4.13264,1.88817 12.21238,1.88925 17.17845,0.002 z m -32.92564,-38.55666 2.21593,-1.63831 -1.48112,-2.00509 c -0.81461,-1.10281 -1.88837,-3.94861 -2.38614,-6.32403 -0.77998,-3.72224 -0.71996,-4.80348 0.43441,-7.82616 2.16659,-5.67313 6.17453,-5.7787 8.859,-0.23334 0.87193,1.80119 1.58534,4.74791 1.58534,6.54828 0,1.80036 0.27039,3.15833 0.60086,3.0177 0.33047,-0.14062 2.26491,-0.946 4.29874,-1.78973 l 3.69789,-1.53406 -0.42277,-4.98571 c -0.61001,-7.19378 -2.53101,-12.03837 -6.24702,-15.75438 -5.02054,-5.02054 -10.26865,-5.20981 -15.15678,-0.5466 -6.75275,6.44204 -7.20621,23.76941 -0.8431,32.21688 1.03276,1.37107 2.04674,2.49285 2.25329,2.49285 0.20655,0 1.37271,-0.73724 2.59147,-1.6383 z m 63.28674,-0.85455 c 0.67163,-0.9492 1.94368,-4.09119 2.82678,-6.9822 1.68337,-5.5109 1.65997,-11.59433 -0.0669,-17.39752 -1.30799,-4.39539 -5.10911,-9.71204 -8.591,-12.01624 -2.80317,-1.85505 -4.00048,-2.14735 -8.79579,-2.14735 -4.94251,0 -5.91546,0.25548 -8.87687,2.33096 -4.43257,3.10652 -7.96422,9.14681 -9.09845,15.56137 -1.424,8.05328 -1.04675,9.24358 3.4714,10.95307 2.10934,0.79809 4.09403,1.45136 4.41043,1.4517 0.3164,3.4e-4 0.5772,-1.29374 0.57955,-2.87574 0.0155,-10.41463 7.49805,-16.91512 12.55408,-10.90638 4.25448,5.05618 4.53232,10.80711 0.92913,19.23188 -0.40218,0.94036 0.34197,1.60388 3.15629,2.81428 4.80659,2.06726 6.02801,2.06435 7.50133,-0.0179 l 0,4e-5 z"
       id="path4138" /></g></svg>