<?xml version="1.0" encoding="utf-8"?>
<!-- Generator: Adobe Illustrator 14.0.0, SVG Export Plug-In . SVG Version: 6.00 Build 43363)  -->
<svg version="1.2" baseProfile="tiny" xmlns="http://www.w3.org/2000/svg" xmlns:xlink="http://www.w3.org/1999/xlink" x="0px"
	 y="0px" width="612px" height="160.492px" viewBox="0 0 612 160.492" xml:space="preserve">
<g id="Background">
</g>
<g id="Guides">
</g>
<g id="Foreground">
</g>
<g id="Vilnishi">
	<g>
		<polygon fill-rule="evenodd" points="28.122,54.501 2.602,152.466 13.467,152.466 35.695,62.459 36.024,62.459 54.958,152.466 
			66.155,152.466 131.189,63.832 131.519,63.832 107.315,152.466 118.347,152.466 143.538,54.501 127.237,54.501 62.697,142.45 
			44.421,54.501 		"/>
		<path fill-rule="evenodd" d="M154.109,81.668l-18.276,70.798h10.373l18.275-70.798H154.109z"/>
		<polygon fill-rule="evenodd" points="179.388,81.654 161.324,152.466 171.697,152.466 178.282,126.808 196.393,114.185 
			218.95,152.466 230.311,152.466 204.626,108.971 244.799,81.668 230.969,81.668 181.246,116.244 180.917,115.969 189.778,81.654 
					"/>
		<path fill-rule="evenodd" d="M250.913,81.668l-18.275,70.798h10.373l9.549-37.046c3.458-13.309,13.336-25.794,31.941-26.068
			c1.976,0,3.952,0.137,5.927,0.137l2.305-8.644c-1.812-0.138-3.787-0.138-5.598-0.138c-15.147-0.137-24.203,7.135-30.789,17.289
			h-0.33l4.281-16.328H250.913z"/>
		<path fill-rule="evenodd" d="M364.701,107.325c0-17.425-13.83-27.716-33.588-27.716c-30.295,0-47.418,22.228-47.418,45.415
			c0,17.7,12.019,29.5,33.916,29.5C349.061,154.523,364.701,131.199,364.701,107.325z M354.328,109.108
			c0,16.465-12.02,38.144-34.74,38.144c-17.288,0-25.52-9.331-25.52-23.051c0-16.601,12.514-37.32,35.234-37.32
			C345.931,86.881,354.328,95.937,354.328,109.108z"/>
		<polygon fill-rule="evenodd" points="464.236,81.618 470.979,54.485 369.558,54.485 362.856,81.654 395.392,81.654 395.39,81.662 
			431.661,81.662 431.665,81.654 		"/>
		<polygon fill-rule="evenodd" points="392.165,94.634 377.79,152.449 414.012,152.449 428.423,94.654 428.43,94.63 392.165,94.63 
					"/>
		<path fill-rule="evenodd" d="M470.055,94.639l-14.315,57.811h32.601l14.315-57.811H470.055z M505.932,81.618l6.774-27.133h-32.6
			l-6.821,27.168L505.932,81.618z"/>
		<polygon fill-rule="evenodd" points="526.202,54.485 501.834,152.449 534.434,152.449 539.538,132.143 546.948,126.655 
			558.473,152.449 593.871,152.449 572.138,109.916 610.5,81.24 571.479,81.24 547.441,102.095 547.111,102.095 558.802,54.485 		
			"/>
		<g>
			<path fill-rule="evenodd" d="M152.875,11.694c4.937,34.276,23.337,55.089,60.831,56.809
				C178.378,82.008,141.959,50.238,152.875,11.694z"/>
			<path fill-rule="evenodd" d="M168.119,6.84c3.984,27.659,18.832,44.453,49.086,45.841
				C188.699,63.579,159.311,37.942,168.119,6.84z"/>
		</g>
	</g>
</g>
</svg>
