<?xml version="1.0" encoding="UTF-8" standalone="no"?>
<svg
   xmlns:dc="http://purl.org/dc/elements/1.1/"
   xmlns:cc="http://creativecommons.org/ns#"
   xmlns:rdf="http://www.w3.org/1999/02/22-rdf-syntax-ns#"
   xmlns:svg="http://www.w3.org/2000/svg"
   xmlns="http://www.w3.org/2000/svg"
   id="svg24"
   preserveAspectRatio="xMinYMin meet"
   height="264.29"
   width="388.12"
   viewBox="0 0 388.12 264.29"
   version="1.1">
  <metadata
     id="metadata30">
    <rdf:RDF>
      <cc:Work
         rdf:about="">
        <dc:format>image/svg+xml</dc:format>
        <dc:type
           rdf:resource="http://purl.org/dc/dcmitype/StillImage" />
        <dc:title></dc:title>
      </cc:Work>
    </rdf:RDF>
  </metadata>
  <defs
     id="defs28" />
  <path
     d="M 93.312477,240.77305 H 78.336949 c -0.526656,-25.34459 -1.986512,-49.1768 -4.372636,-71.50126 H 73.832409 L 51.031178,240.77305 H 39.628831 L 16.965733,169.27179 h -0.133512 c -1.681606,21.43973 -2.739539,45.27194 -3.180729,71.50126 H -0.00300611 C 0.87937477,208.87402 3.0876369,178.97143 6.6217802,151.05833 H 25.183193 l 21.605628,65.91957 h 0.132581 l 21.738215,-65.91957 h 17.76011 c 3.888943,32.69112 6.185444,62.60298 6.890886,89.71472"
     id="path2"
     style="fill:#00758f;fill-rule:nonzero;stroke-width:0.23129743" />
  <path
     d="m 158.27373,174.58251 c -6.09836,33.17749 -14.14235,57.28763 -24.12688,72.32809 -7.77951,11.58931 -16.30187,17.38385 -25.58212,17.38385 -2.4739,0 -5.52458,-0.74716 -9.144652,-2.23175 v -7.99781 c 1.768462,0.25963 3.843672,0.39813 6.230252,0.39813 4.32944,0 7.81854,-1.19971 10.47308,-3.59428 3.17888,-2.91777 4.76971,-6.1973 4.76971,-9.83166 0,-2.48235 -1.24088,-7.57605 -3.71132,-15.28133 l -16.43538,-51.17324 h 14.71197 l 11.79595,38.27281 c 2.64992,8.68961 3.7552,14.75582 3.31309,18.21346 6.45154,-17.278 10.95862,-36.1073 13.52283,-56.48627 h 14.18301"
     id="path4"
     style="fill:#00758f;fill-rule:nonzero;stroke-width:0.23129743" />
  <path
     d="m 223.87482,215.90557 c 0,7.60847 -2.78805,13.85464 -8.34566,18.74175 -5.56223,4.86557 -13.03475,7.30484 -22.39215,7.30484 -8.7522,0 -17.23414,-2.80753 -25.45045,-8.37671 l 3.84367,-7.70645 c 7.0706,3.5438 13.46901,5.3135 19.21373,5.3135 5.38899,0 9.60686,-1.2025 12.65824,-3.57831 3.04444,-2.39295 4.86926,-5.73038 4.86926,-9.96343 0,-5.32693 -3.70507,-9.8803 -10.5031,-13.70017 -6.276,-3.45324 -18.81874,-10.66288 -18.81874,-10.66288 -6.79572,-4.97049 -10.20282,-10.30367 -10.20282,-19.09102 0,-7.26755 2.54089,-13.14176 7.61574,-17.61105 5.08639,-4.47832 11.64881,-6.71749 19.68494,-6.71749 8.30639,0 15.85976,2.22272 22.66241,6.65218 l -3.45561,7.69926 c -5.82094,-2.47447 -11.56104,-3.71657 -17.22029,-3.71657 -4.59207,0 -8.13083,1.10545 -10.59781,3.32933 -2.48083,2.20465 -4.0146,5.04182 -4.0146,8.49969 0,5.31326 3.78592,9.92198 10.77568,13.81573 6.35452,3.45509 19.20448,10.80417 19.20448,10.80417 6.98975,4.96145 10.47308,10.25109 10.47308,18.96363"
     id="path6"
     style="fill:#f29111;fill-rule:nonzero;stroke-width:0.23129743" />
  <path
     d="m 250.64653,222.82594 c -3.62423,-5.84804 -5.43981,-15.23246 -5.43981,-28.1725 0,-22.59057 6.85116,-33.89315 20.54654,-33.89315 7.16069,0 12.4157,2.7033 15.7766,8.10434 3.61961,5.85082 5.43519,15.15395 5.43519,27.9131 0,22.77145 -6.85115,34.16181 -20.54654,34.16181 -7.15837,0 -12.4157,-2.70052 -15.77198,-8.11267 m 53.28472,20.11007 -16.44647,-8.13167 c 1.4645,-1.20411 2.85503,-2.50319 4.11393,-4.007 6.98282,-8.23103 10.47769,-20.41372 10.47769,-36.54273 0,-29.68024 -11.62109,-44.52847 -34.86097,-44.52847 -11.39935,0 -20.28321,3.76359 -26.64467,11.30165 -6.98513,8.24099 -10.47308,20.37781 -10.47308,36.41534 0,15.76979 3.09065,27.33871 9.27655,34.68756 5.63615,6.64244 14.15967,9.9683 25.57057,9.9683 4.25714,0 8.16318,-0.52551 11.71349,-1.57677 l 21.41737,12.49674 5.83942,-10.08387"
     id="path8"
     style="fill:#f29111;fill-rule:evenodd;stroke-width:0.23129743" />
  <path
     d="m 357.61789,240.77305 h -42.546 v -89.71472 h 14.31674 v 78.67872 h 28.22926 v 11.03577"
     id="path10"
     style="fill:#f29111;fill-rule:nonzero;stroke-width:0.23129743" />
  <path
     d="m 375.58889,121.00752 c -8.65287,-0.21701 -15.35389,0.64872 -20.97387,3.03542 -1.62154,0.64965 -4.21325,0.64965 -4.435,2.70955 0.87083,0.86574 0.9748,2.27367 1.73704,3.47131 1.29355,2.16782 3.55956,5.08999 5.61767,6.61164 2.27061,1.73519 4.54126,3.4632 6.92277,4.98044 4.21325,2.61275 8.97164,4.12374 13.07402,6.72652 2.38612,1.5154 4.75608,3.46505 7.1422,5.09532 1.18498,0.86667 1.9357,2.27808 3.45561,2.81448 v -0.32819 c -0.76229,-0.97274 -0.97478,-2.38229 -1.72781,-3.47246 -1.07872,-1.07558 -2.16206,-2.05735 -3.2454,-3.13664 -3.13684,-4.2268 -7.03364,-7.90886 -11.23996,-10.94428 -3.46254,-2.3911 -11.03438,-5.64353 -12.43418,-9.6422 0,0 -0.11319,-0.11487 -0.21944,-0.22164 2.37919,-0.22003 5.19496,-1.08855 7.46328,-1.74608 3.67042,-0.97274 7.02209,-0.75272 10.8057,-1.72546 1.73242,-0.43681 3.46253,-0.98247 5.19958,-1.51539 v -0.98247 c -1.95649,-1.94686 -3.35628,-4.55244 -5.40978,-6.39348 -5.50911,-4.76783 -11.57028,-9.42541 -17.83934,-13.33376 -3.35628,-2.16852 -7.68041,-3.570891 -11.2492,-5.418177 -1.29121,-0.651507 -3.45099,-0.972512 -4.21095,-2.062679 -1.94726,-2.383916 -3.03289,-5.523329 -4.435,-8.346137 -3.13222,-5.95528 -6.16512,-12.565302 -8.86308,-18.862656 -1.94491,-4.224485 -3.13453,-8.44897 -5.51372,-12.353839 -11.14064,-18.431168 -23.2445,-29.589923 -41.83918,-40.540232 -4.00074,-2.278998 -8.75682,-3.254058 -13.83397,-4.446826 -2.7072,-0.113487 -5.40748,-0.324248 -8.11006,-0.430786 -1.73242,-0.7619827 -3.46484,-2.8232719 -4.97551,-3.7983312 -6.16512,-3.9002371 -22.05029,-12.3538389 -26.59386,-1.1904524 -2.91971,7.0500726 4.32413,13.9843416 6.81189,17.5626476 1.83635,2.489759 4.21788,5.313031 5.50911,8.127038 0.75767,1.84358 0.97477,3.798331 1.73473,5.746133 1.7278,4.768758 3.34704,10.081789 5.62229,14.528615 1.18498,2.276659 2.48083,4.664535 3.99381,6.714244 0.87312,1.199694 2.38151,1.734726 2.7072,3.691792 -1.50836,2.165512 -1.62616,5.417254 -2.49006,8.129354 -3.88987,12.249617 -2.3792,27.424418 3.13684,36.419982 1.72549,2.70955 5.83942,8.67339 11.35314,6.39161 4.86465,-1.94775 3.78362,-8.1268 5.18803,-13.543362 0.32337,-1.310007 0.10624,-2.169403 0.75303,-3.035422 v 0.21908 c 1.51296,3.03079 3.03059,5.950174 4.435,8.995554 3.35628,5.30609 9.18878,10.83567 14.05804,14.51773 2.58708,1.95869 4.64289,5.3135 7.88599,6.50951 v -0.32749 h -0.21251 c -0.65139,-0.9727 -1.62153,-1.40955 -2.48776,-2.165 -1.94496,-1.95241 -4.10238,-4.33821 -5.62229,-6.50488 -4.53895,-6.06783 -8.54431,-12.7925 -12.10386,-19.729081 -1.73471,-3.36824 -3.24541,-7.050304 -4.65214,-10.408585 -0.64679,-1.294698 -0.64679,-3.25151 -1.73013,-3.900237 -1.62615,2.382063 -3.99844,4.444742 -5.18572,7.362508 -2.05581,4.66662 -2.27061,10.410435 -3.0329,16.375205 -0.42964,0.11324 -0.21251,0 -0.42964,0.21539 -3.45561,-0.86664 -4.64521,-4.44312 -5.94568,-7.46835 -3.24309,-7.706442 -3.78823,-20.063301 -0.97244,-28.953016 0.75303,-2.272074 4.00536,-9.426345 2.70258,-11.594173 -0.65368,-2.068214 -2.81346,-3.249426 -4.00074,-4.882245 -1.40213,-2.058973 -2.92433,-4.655271 -3.88756,-6.936585 -2.59633,-6.068065 -3.90142,-12.791574 -6.70332,-18.859639 -1.29817,-2.823271 -3.57342,-5.750765 -5.40516,-8.347063 -2.05812,-2.927494 -4.32644,-4.986467 -5.9503,-8.451286 -0.53592,-1.195084 -1.29357,-3.147519 -0.43195,-4.4445099 0.21249,-0.8685208 0.65137,-1.1951077 1.51758,-1.4128169 1.39751,-1.1927453 5.40285,0.3219317 6.80496,0.9727432 4.00305,1.6212387 7.35471,3.1475196 10.70175,5.4195696 1.51527,1.086207 3.13684,3.145203 5.07947,3.691792 h 2.27522 c 3.45792,0.752718 7.35241,0.210761 10.59781,1.190452 5.72624,1.841264 10.91427,4.551049 15.5664,7.478543 14.15737,8.997875 25.8339,21.791764 33.7222,37.073097 1.30047,2.48976 1.84561,4.768758 3.03289,7.365056 2.27063,5.322295 5.08409,10.741864 7.3501,15.939797 2.26834,5.095321 4.435,10.293939 7.68272,14.52792 1.61693,2.272514 8.10543,3.465054 11.02514,4.658284 2.15747,0.97251 5.51372,1.84103 7.46097,3.03171 3.67504,2.27252 7.34316,4.87808 10.80801,7.37525 1.72547,1.30093 7.13296,4.0077 7.45866,6.179"
     id="path14"
     style="fill:#00758f;fill-rule:evenodd;stroke-width:0.23129743" />
  <path
     d="m 265.31438,26.797335 c -1.83403,0 -3.1276,0.222341 -4.43269,0.544296 v 0.217686 h 0.2102 c 0.87312,1.730094 2.38843,2.932126 3.46023,4.446826 0.87083,1.734772 1.62845,3.462503 2.49238,5.199545 0.10623,-0.106516 0.21017,-0.220049 0.21017,-0.220049 1.52451,-1.079258 2.27987,-2.811691 2.27987,-5.417253 -0.6537,-0.764322 -0.75536,-1.51704 -1.30047,-2.279022 -0.64677,-1.081574 -2.0535,-1.623554 -2.91971,-2.492075"
     id="path16"
     style="fill:#00758f;fill-rule:evenodd;stroke-width:0.23129743" />
</svg>
