<?xml version="1.0" encoding="UTF-8" standalone="no"?>
<svg
   xmlns:dc="http://purl.org/dc/elements/1.1/"
   xmlns:cc="http://creativecommons.org/ns#"
   xmlns:rdf="http://www.w3.org/1999/02/22-rdf-syntax-ns#"
   xmlns:svg="http://www.w3.org/2000/svg"
   xmlns="http://www.w3.org/2000/svg"
   id="svg24"
   preserveAspectRatio="xMinYMin meet"
   height="156.45126"
   width="158.95413"
   viewBox="0 0 158.95413 156.45126"
   version="1.1">
  <metadata
     id="metadata30">
    <rdf:RDF>
      <cc:Work
         rdf:about="">
        <dc:format>image/svg+xml</dc:format>
        <dc:type
           rdf:resource="http://purl.org/dc/dcmitype/StillImage" />
        <dc:title></dc:title>
      </cc:Work>
    </rdf:RDF>
  </metadata>
  <defs
     id="defs28" />
  <path
     d="m 146.41369,121.00659 c -8.65287,-0.21701 -15.35389,0.64872 -20.97387,3.03542 -1.62154,0.64965 -4.21325,0.64965 -4.435,2.70955 0.87083,0.86574 0.9748,2.27367 1.73704,3.47131 1.29355,2.16782 3.55956,5.08999 5.61767,6.61164 2.27061,1.73519 4.54126,3.4632 6.92277,4.98044 4.21325,2.61275 8.97164,4.12374 13.07402,6.72652 2.38612,1.5154 4.75608,3.46505 7.1422,5.09532 1.18498,0.86667 1.9357,2.27808 3.45561,2.81448 v -0.32819 c -0.76229,-0.97274 -0.97478,-2.38229 -1.72781,-3.47246 -1.07872,-1.07558 -2.16206,-2.05735 -3.2454,-3.13664 -3.13684,-4.2268 -7.03364,-7.90886 -11.23996,-10.94428 -3.46254,-2.3911 -11.03438,-5.64353 -12.43418,-9.6422 0,0 -0.11319,-0.11487 -0.21944,-0.22164 2.37919,-0.22003 5.19496,-1.08855 7.46328,-1.74608 3.67042,-0.97274 7.02209,-0.75272 10.8057,-1.72546 1.73242,-0.43681 3.46253,-0.98247 5.19958,-1.51539 v -0.98247 c -1.95649,-1.94686 -3.35628,-4.55244 -5.40978,-6.39348 -5.50911,-4.76783 -11.57028,-9.42541 -17.83934,-13.33376 -3.35628,-2.16852 -7.68041,-3.570895 -11.2492,-5.418181 -1.29121,-0.651507 -3.45099,-0.972512 -4.21095,-2.062679 -1.94726,-2.383916 -3.03289,-5.523329 -4.435,-8.346137 -3.13222,-5.95528 -6.16512,-12.565302 -8.86308,-18.862656 -1.944914,-4.224485 -3.134534,-8.44897 -5.513724,-12.353839 -11.14064,-18.431168 -23.2445,-29.589923 -41.83918,-40.540232 -4.00074,-2.278998 -8.75682,-3.254058 -13.83397,-4.446826 -2.7072,-0.113487 -5.40748,-0.324248 -8.11006,-0.430786 C 30.519196,9.7859012 28.786776,7.724612 27.276106,6.7495527 21.110986,2.8493156 5.225816,-5.6042862 0.68224601,5.5591003 -2.237464,12.609173 5.006376,19.543442 7.494136,23.121748 c 1.83635,2.489759 4.21788,5.313031 5.50911,8.127038 0.75767,1.84358 0.97477,3.798331 1.73473,5.746133 1.7278,4.768758 3.34704,10.081789 5.62229,14.528615 1.18498,2.276659 2.48083,4.664535 3.99381,6.714244 0.87312,1.199694 2.38151,1.734726 2.7072,3.691792 -1.50836,2.165512 -1.62616,5.417254 -2.49006,8.129354 -3.88987,12.249617 -2.3792,27.424418 3.13684,36.419986 1.72549,2.70955 5.83942,8.67339 11.35314,6.39161 4.86465,-1.94775 3.78362,-8.1268 5.18803,-13.543366 0.32337,-1.310007 0.10624,-2.169403 0.75303,-3.035422 v 0.21908 c 1.51296,3.03079 3.03059,5.950178 4.435,8.995558 3.35628,5.30609 9.18878,10.83567 14.05804,14.51773 2.58708,1.95869 4.64289,5.3135 7.88599,6.50951 v -0.32749 h -0.21251 c -0.65139,-0.9727 -1.62153,-1.40955 -2.48776,-2.165 -1.94496,-1.95241 -4.10238,-4.33821 -5.62229,-6.50488 -4.53895,-6.06783 -8.54431,-12.7925 -12.10386,-19.729085 -1.73471,-3.36824 -3.24541,-7.050304 -4.65214,-10.408585 -0.64679,-1.294698 -0.64679,-3.25151 -1.73013,-3.900237 -1.62615,2.382063 -3.99844,4.444742 -5.18572,7.362508 -2.05581,4.66662 -2.27061,10.410439 -3.0329,16.375209 -0.42964,0.11324 -0.21251,0 -0.42964,0.21539 -3.45561,-0.86664 -4.64521,-4.44312 -5.94568,-7.468354 -3.24309,-7.706442 -3.78823,-20.063301 -0.97244,-28.953016 0.75303,-2.272074 4.00536,-9.426345 2.70258,-11.594173 -0.65368,-2.068214 -2.81346,-3.249426 -4.00074,-4.882245 -1.40213,-2.058973 -2.92433,-4.655271 -3.88756,-6.936585 -2.59633,-6.068065 -3.90142,-12.791574 -6.70332,-18.859639 -1.29817,-2.823271 -3.57342,-5.750765 -5.40516,-8.347063 -2.05812,-2.927494 -4.32644,-4.986467 -5.9503,-8.451286 -0.53592,-1.195084 -1.29357,-3.1475191 -0.43195,-4.44451 0.21249,-0.8685208 0.65137,-1.1951077 1.51758,-1.4128169 1.39751,-1.1927453 5.40285,0.3219317 6.80496,0.9727432 4.00305,1.6212387 7.35471,3.1475197 10.70175,5.4195697 1.51527,1.086207 3.13684,3.145203 5.07947,3.691792 h 2.27522 c 3.45792,0.752718 7.35241,0.210761 10.59781,1.190452 5.72624,1.841264 10.91427,4.551049 15.5664,7.478543 14.15737,8.997875 25.8339,21.791764 33.7222,37.073097 1.30047,2.48976 1.84561,4.768758 3.03289,7.365056 2.27063,5.322295 5.08409,10.741864 7.350104,15.939797 2.26834,5.095321 4.435,10.293939 7.68272,14.52792 1.61693,2.272518 8.10543,3.465058 11.02514,4.658288 2.15747,0.97251 5.51372,1.84103 7.46097,3.03171 3.67504,2.27252 7.34316,4.87808 10.80801,7.37525 1.72547,1.30093 7.13296,4.0077 7.45866,6.179"
     id="path14"
     style="fill:#00758f;fill-rule:evenodd;stroke-width:0.23129743" />
  <path
     d="m 36.139176,26.796401 c -1.83403,0 -3.1276,0.222341 -4.43269,0.544296 v 0.217686 h 0.2102 c 0.87312,1.730094 2.38843,2.932126 3.46023,4.446826 0.87083,1.734772 1.62845,3.462503 2.49238,5.199545 0.10623,-0.106516 0.21017,-0.220049 0.21017,-0.220049 1.52451,-1.079258 2.27987,-2.811691 2.27987,-5.417253 -0.6537,-0.764322 -0.75536,-1.51704 -1.30047,-2.279022 -0.64677,-1.081574 -2.0535,-1.623554 -2.91971,-2.492075"
     id="path16"
     style="fill:#00758f;fill-rule:evenodd;stroke-width:0.23129743" />
</svg>
