<?xml version="1.0" encoding="UTF-8" standalone="no"?>
<svg
   xmlns:dc="http://purl.org/dc/elements/1.1/"
   xmlns:cc="http://creativecommons.org/ns#"
   xmlns:rdf="http://www.w3.org/1999/02/22-rdf-syntax-ns#"
   xmlns:svg="http://www.w3.org/2000/svg"
   xmlns="http://www.w3.org/2000/svg"
   id="svg2"
   viewBox="0 0 442.36895 170.37532"
   version="1.2"
   height="227.16667"
   width="589.82562">
  <metadata
     id="metadata62">
    <rdf:RDF>
      <cc:Work
         rdf:about="">
        <dc:format>image/svg+xml</dc:format>
        <dc:type
           rdf:resource="http://purl.org/dc/dcmitype/StillImage" />
        <dc:title></dc:title>
      </cc:Work>
    </rdf:RDF>
  </metadata>
  <defs
     id="defs4">
    <clipPath
       id="a">
      <path
         id="path7"
         d="m 239.03,226.605 -42.13,24.317 c -1.578,0.91 -2.546,2.59 -2.546,4.406 l 0,48.668 c 0,1.817 0.968,3.496 2.546,4.406 l 42.133,24.336 c 1.575,0.907 3.517,0.907 5.09,0 l 42.126,-24.336 c 1.57,-0.91 2.54,-2.59 2.54,-4.406 l 0,-48.668 c 0,-1.816 -0.97,-3.496 -2.55,-4.406 l -42.12,-24.317 c -0.79,-0.453 -1.67,-0.68 -2.55,-0.68 -0.88,0 -1.76,0.227 -2.55,0.68" />
    </clipPath>
    <linearGradient
       gradientUnits="userSpaceOnUse"
       gradientTransform="matrix(-38.064915,77.652126,-77.652126,-38.064915,258.72325,244.62943)"
       x2="1.251"
       x1="-0.34799999"
       id="b">
      <stop
         id="stop10"
         stop-color="#3E863D"
         offset=".3" />
      <stop
         id="stop12"
         stop-color="#55934F"
         offset=".5" />
      <stop
         id="stop14"
         stop-color="#5AAD45"
         offset=".8" />
    </linearGradient>
    <clipPath
       id="c">
      <path
         id="path17"
         d="m 195.398,307.086 c 0.403,0.523 0.907,0.976 1.5,1.316 l 36.14,20.875 6.02,3.46 c 0.9,0.52 1.926,0.74 2.934,0.665 0.336,-0.027 0.672,-0.09 1,-0.183 l 44.434,-81.36 c -0.34,-0.37 -0.738,-0.68 -1.184,-0.94 l -27.586,-15.93 -14.582,-8.39 c -0.414,-0.24 -0.863,-0.41 -1.32,-0.53 z m 0,0" />
    </clipPath>
    <linearGradient
       gradientUnits="userSpaceOnUse"
       gradientTransform="matrix(106.8057,-78.916731,78.916731,106.8057,235.18824,285.39477)"
       x2="0.58200002"
       x1="-0.456"
       id="d">
      <stop
         id="stop20"
         stop-color="#3E863D"
         offset=".57" />
      <stop
         id="stop22"
         stop-color="#619857"
         offset=".72" />
      <stop
         id="stop24"
         stop-color="#76AC64"
         offset="1" />
    </linearGradient>
    <clipPath
       id="e">
      <path
         id="path27"
         d="m 241.066,225.953 c -0.707,0.07 -1.398,0.29 -2.035,0.652 l -42.01,24.247 45.3,82.51 c 0.63,-0.09 1.25,-0.3 1.81,-0.624 l 42.13,-24.336 c 1.3,-0.754 2.19,-2.03 2.46,-3.476 l -46.18,-78.89 c -0.34,-0.067 -0.68,-0.102 -1.03,-0.102 -0.14,0 -0.28,0.007 -0.42,0.02" />
    </clipPath>
    <linearGradient
       gradientUnits="userSpaceOnUse"
       gradientTransform="matrix(97.417,0,0,97.417,192.862,279.652)"
       x2="0.98400003"
       x1="0.043000001"
       id="f">
      <stop
         id="stop30"
         stop-color="#6BBF47"
         offset=".16" />
      <stop
         id="stop32"
         stop-color="#79B461"
         offset=".38" />
      <stop
         id="stop34"
         stop-color="#75AC64"
         offset=".47" />
      <stop
         id="stop36"
         stop-color="#659E5A"
         offset=".7" />
      <stop
         id="stop38"
         stop-color="#3E863D"
         offset=".9" />
    </linearGradient>
  </defs>
  <path
     style="fill:#333333;fill-rule:evenodd"
     id="path44"
     d="m 94.935474,90.549795 c 0,-1.84 -0.97,-3.53 -2.558,-4.445 l -42.356,-24.37 c -0.715,-0.42 -1.516,-0.64 -2.328,-0.67 l -0.438,0 c -0.812,0.03 -1.613,0.25 -2.34,0.67 l -42.3540004,24.37 c -1.57800003,0.92 -2.56200002915,2.61 -2.56200002915,4.45 L 0.09247357,156.1948 c 0,0.91 0.47,1.76 1.27000003,2.21 0.78,0.48 1.76,0.48 2.54,0 l 25.1800004,-14.42 c 1.59,-0.946 2.56,-2.618 2.56,-4.44 l 0,-30.665 c 0,-1.83 0.97,-3.52 2.555,-4.43 l 10.72,-6.174005 c 0.796,-0.46 1.67,-0.688 2.56,-0.688 0.876,0 1.77,0.226 2.544,0.687 l 10.715,6.172005 c 1.586,0.91 2.56,2.6 2.56,4.43 l 0,30.663 c 0,1.82 0.983,3.5 2.565,4.44 l 25.164,14.41 c 0.79,0.47 1.773,0.47 2.56,0 0.776,-0.45 1.268,-1.3 1.268,-2.21 z M 294.80347,124.7258 c 0,0.457 -0.243,0.88 -0.64,1.106 l -14.548,8.386 c -0.395,0.227 -0.883,0.227 -1.277,0 l -14.55,-8.386 c -0.4,-0.227 -0.64,-0.65 -0.64,-1.106 l 0,-16.796 c 0,-0.458 0.24,-0.88 0.63,-1.11 l 14.54,-8.400005 c 0.4,-0.23 0.89,-0.23 1.29,0 l 14.55,8.400005 c 0.4,0.23 0.64,0.652 0.64,1.11 z m 3.93,-124.40200495 c -0.794,-0.442 -1.76,-0.43 -2.544,0.027 -0.78,0.46 -1.262,1.29999995 -1.262,2.20999995 l 0,65 c 0,0.64 -0.34,1.23 -0.894,1.55 -0.55,0.32 -1.235,0.32 -1.79,0 l -10.61,-6.111 c -1.58,-0.914 -3.526,-0.914 -5.112,0 l -42.37,24.453 c -1.583,0.91 -2.56,2.6 -2.56,4.42 l 0,48.920005 c 0,1.83 0.977,3.51 2.56,4.43 l 42.37,24.47 c 1.582,0.91 3.53,0.91 5.117,0 l 42.37,-24.48 c 1.58,-0.92 2.56,-2.6 2.56,-4.43 l 0,-121.920005 c 0,-1.856 -1.01,-3.563 -2.63,-4.47 z M 439.82647,107.4878 c 1.574,-0.914 2.543,-2.602 2.543,-4.422 l 0,-11.856005 c 0,-1.824 -0.97,-3.507 -2.547,-4.425 l -42.1,-24.44 c -1.59,-0.92 -3.54,-0.92 -5.13,0 l -42.36,24.45 c -1.59,0.92 -2.56,2.6 -2.56,4.43 l 0,48.900005 c 0,1.84 0.99,3.54 2.58,4.45 l 42.09,23.99 c 1.55,0.89 3.45,0.9 5.02,0.03 l 25.46,-14.15 c 0.8,-0.45 1.31,-1.3 1.31,-2.22 0,-0.92 -0.49,-1.78 -1.29,-2.23 l -42.62,-24.46 c -0.8,-0.45 -1.29,-1.3 -1.29,-2.21 l 0,-15.34 c 0,-0.916 0.48,-1.76 1.28,-2.216 l 13.26,-7.650005 c 0.79,-0.46 1.76,-0.46 2.55,0 l 13.27,7.650005 c 0.79,0.45 1.28,1.3 1.28,2.21 l 0,12.06 c 0,0.91 0.49,1.76 1.28,2.22 0.79,0.45 1.77,0.45 2.56,-0.01 z m 0,0" />
  <path
     style="fill:#689f63;fill-rule:evenodd"
     id="path46"
     d="m 394.53747,105.1998 c 0.3,-0.177 0.676,-0.177 0.98,0 l 8.13,4.69 c 0.304,0.176 0.49,0.5 0.49,0.85 l 0,9.39 c 0,0.35 -0.186,0.674 -0.49,0.85 l -8.13,4.69 c -0.304,0.177 -0.68,0.177 -0.98,0 l -8.125,-4.69 c -0.31,-0.176 -0.5,-0.5 -0.5,-0.85 l 0,-9.39 c 0,-0.35 0.18,-0.674 0.49,-0.85 z m 0,0" />
  <g
     id="g48"
     transform="translate(-78.306526,-164.0162)"
     clip-path="url(#a)">
    <path
       style="fill:url(#b)"
       id="path50"
       d="m 331.363,246.793 -118.715,-58.19 -60.87,124.174 118.712,58.193 z m 0,0" />
  </g>
  <g
     id="g52"
     transform="translate(-78.306526,-164.0162)"
     clip-path="url(#c)">
    <path
       style="fill:url(#d)"
       id="path54"
       d="m 144.07,264.004 83.825,113.453 110.86,-81.906 -83.83,-113.45 z m 0,0" />
  </g>
  <g
     id="g56"
     transform="translate(-78.306526,-164.0162)"
     clip-path="url(#e)">
    <path
       style="fill:url(#f)"
       id="path58"
       d="m 197.02,225.934 0,107.43 91.683,0 0,-107.43 z m 0,0" />
  </g>
</svg>
