<?xml version="1.0" encoding="UTF-8" standalone="no"?>
<svg
   xmlns:dc="http://purl.org/dc/elements/1.1/"
   xmlns:cc="http://creativecommons.org/ns#"
   xmlns:rdf="http://www.w3.org/1999/02/22-rdf-syntax-ns#"
   xmlns:svg="http://www.w3.org/2000/svg"
   xmlns="http://www.w3.org/2000/svg"
   id="svg872"
   version="1.1"
   viewBox="0 0 26.392863 26.392864"
   height="99.752556"
   width="99.752556">
  <defs
     id="defs866" />
  <metadata
     id="metadata869">
    <rdf:RDF>
      <cc:Work
         rdf:about="">
        <dc:format>image/svg+xml</dc:format>
        <dc:type
           rdf:resource="http://purl.org/dc/dcmitype/StillImage" />
        <dc:title></dc:title>
      </cc:Work>
    </rdf:RDF>
  </metadata>
  <g
     transform="translate(-0.0897398,-270.57136)"
     id="layer1">
    <path
       id="path7"
       d="m 120.97131,131.82957 c 2.03465,0.0714 3.63035,1.78594 3.5613,3.81794 -0.0371,0.98425 -0.44953,1.89442 -1.16946,2.56646 -0.71967,0.67469 -1.65629,1.02394 -2.64584,0.98954 -2.032,-0.0741 -3.62452,-1.78594 -3.55838,-3.81794 0.0344,-0.98425 0.44688,-1.89706 1.16946,-2.5691 0.7194,-0.67204 1.65867,-1.02129 2.64292,-0.9869 z m 2.59557,3.74121 c 0.0476,-1.44727 -1.08506,-2.66435 -2.53207,-2.71462 -0.70088,-0.0265 -1.36789,0.22225 -1.87854,0.70114 -0.51091,0.47625 -0.80989,1.12448 -0.83105,1.82563 -0.0476,1.44727 1.08505,2.66435 2.52968,2.71727 0.70379,0.0212 1.37054,-0.22754 1.88383,-0.70379 0.51065,-0.4789 0.80698,-1.12713 0.82815,-1.82563 z"
       style="fill:#ffffff;stroke-width:0.26458332" />
    <path
       id="path11"
       d="m 121.46344,134.17114 c 0.64294,0 1.16417,0.3466 1.16417,0.77787 0,0.42598 -0.5215,0.77523 -1.16417,0.77523 -0.64267,0 -1.16152,-0.34925 -1.16152,-0.77523 0,-0.43127 0.51858,-0.77787 1.16152,-0.77787 z"
       style="fill:#ffffff;stroke-width:0.26458332" />
    <g
       transform="matrix(0.26458333,0,0,0.26458333,44.093982,107.65195)"
       id="g33" />
    <g
       transform="matrix(0.80942621,0,0,0.80942621,-49.018292,220.97921)"
       id="g5209">
      <circle
         style="opacity:1;fill:#73ba25;fill-opacity:1;stroke:none;stroke-width:0.79400003;stroke-miterlimit:4;stroke-dasharray:none;stroke-opacity:1"
         id="path5169"
         cx="76.973618"
         cy="77.571716"
         r="16.30344" />
      <g
         id="g5203"
         transform="translate(0.0388399,0.68494059)">
        <path
           id="path9"
           d="m 87.523985,72.404433 c 0.623171,0.02165 1.110763,0.545694 1.09026,1.168861 -0.0091,0.30076 -0.136717,0.579875 -0.356585,0.786081 -0.221014,0.205064 -0.508104,0.312152 -0.811141,0.303038 -0.622029,-0.02277 -1.109622,-0.546837 -1.08923,-1.170003 0.0091,-0.301903 0.137839,-0.581017 0.357834,-0.786081 0.219875,-0.2062 0.506965,-0.313291 0.808862,-0.301896 z m 0.685828,0.901139 c 0,-0.185696 -0.224547,-0.334936 -0.501269,-0.334936 -0.27672,0 -0.500128,0.14924 -0.500128,0.334936 0,0.183418 0.223291,0.333799 0.500128,0.333799 0.276838,0 0.501269,-0.150381 0.501269,-0.333799 z"
           style="fill:#ffffff;fill-opacity:1;stroke-width:0.11392438" />
        <path
           id="path19"
           d="m 90.030325,75.751532 0.116317,-0.02165 c 0.03178,0.02507 0.02721,0.07633 0.01696,0.121898 -0.02152,0.105955 -0.07291,0.298482 -0.108229,0.389619 l -0.02963,0.07519 c -0.0409,0.111653 -0.08203,0.217594 -0.160633,0.281394 -0.21634,0.197089 -0.562673,0.354303 -1.10495,0.591267 -0.838488,0.366839 -2.197601,0.598103 -3.459886,0.590128 -0.452393,-0.01019 -0.889863,-0.06037 -1.273786,-0.103667 -1.175587,-0.134429 -2.025464,-0.230128 -2.202161,0.838482 -0.22329,1.339751 1.036825,2.966592 1.04936,2.981288 l -0.0013,0.04455 -0.0409,0.01018 c 0,0 -2.008485,-0.925067 -2.057589,-0.952408 l -0.0638,-0.04545 -0.05126,-0.0491 c -0.151503,-0.14571 -0.45568,-0.472677 -1.073149,-1.188237 -1.197348,-1.384179 -2.598617,-1.56646 -3.678621,-1.303295 -0.263164,0.06266 -0.598103,0.255193 -0.815697,0.471645 -0.563927,0.555952 -0.50013,1.675832 -0.468231,2.083678 0.0376,0.461398 0.06153,0.495572 0.07177,0.533166 l -0.0068,0.0467 -0.03987,0.0045 -0.02279,-0.01597 -1.647347,-0.805445 -0.06266,-0.268863 c -0.04216,-0.177722 -0.09113,-0.37481 -0.184556,-0.622025 -0.588989,-1.552789 -1.912791,-2.720514 -3.371024,-2.972288 -0.985446,-0.169747 -2.782033,-0.189115 -3.733301,1.606332 -0.397597,0.749623 -0.373673,1.725956 0.06266,2.548489 0.444304,0.842018 1.238357,1.381905 2.178234,1.485576 0.9319,0.101512 1.632535,-0.113927 2.025575,-0.623167 0.396457,-0.513798 0.470508,-1.213293 0.189114,-1.782917 -0.301899,-0.61166 -0.757596,-0.936456 -1.391017,-0.989887 -0.481899,-0.0433 -0.839623,0.157213 -0.968357,0.362278 -0.0376,0.06391 -0.105955,0.182395 -0.107092,0.35089 v 0.0056 c 0,0.459116 0.420381,0.584431 0.505824,0.59024 0.0262,0 0.15266,-0.0034 0.320129,-0.04556 l 0.08089,-0.02609 0.05583,-0.01945 0.041,-0.0078 c 0.305318,-0.05582 0.599243,0.124186 0.684686,0.421522 0.01481,0.05458 0.02279,0.109366 0.02279,0.163935 0,0.197089 -0.100258,0.380508 -0.266583,0.492153 l 0.0068,-0.0027 -0.01823,0.01018 -0.02734,0.01709 c -0.08772,0.05583 -0.168608,0.08659 -0.254051,0.112789 -0.239242,0.0785 -0.451142,0.115063 -0.66418,0.115063 -0.726837,-0.0013 -1.739626,-0.62658 -1.753296,-1.801142 -0.0068,-0.663038 0.325823,-1.266843 0.911394,-1.655321 0.674433,-0.445448 1.83988,-0.596964 2.921022,0.06607 1.330637,0.814558 1.678105,2.409389 1.330637,3.497479 -0.504684,1.575575 -1.924183,2.417477 -3.798239,2.250007 -1.32722,-0.118473 -2.559882,-0.819115 -3.293553,-1.874054 -0.325825,-0.467206 -0.567344,-0.987726 -0.697218,-1.50722 -0.299621,-1.188229 0.0034,-2.450515 0.228987,-3.009882 0.717724,-1.778361 2.091652,-3.308364 4.079633,-4.549 l 0.125322,-0.0786 c 4.228873,-2.598729 7.221666,-2.493918 9.412432,-2.417589 2.583919,0.09 5.339637,0.980888 5.720146,1.107345 0.0013,-0.08544 0.01606,-0.855571 0.01606,-0.855571 l 0.01137,-0.02619 0.02963,-0.008 c 0.173283,0.02395 3.885961,0.575319 5.45026,1.486715 0.193555,0.113927 0.289251,0.232407 0.408986,0.355445 0.431775,0.44658 1.003675,2.306968 1.064056,2.690895 l -0.02277,0.03874 c -0.02277,0.008 -0.07633,0.04786 -0.148103,0.0957 -0.364554,0.255193 -1.217849,0.852158 -2.311523,0.754183 -0.983169,-0.08659 -2.267096,-0.650511 -3.815329,-1.670135 0.06847,0.160638 0.390759,0.923927 0.445443,1.052662 l 0.02051,0.02507 c 0.224542,0.116198 2.375433,1.212154 3.442906,1.190511 0.86093,-0.01709 1.780295,-0.43747 2.148274,-0.658483 z m -1.000256,-2.1452 c 0.02972,-0.874939 -0.657345,-1.613169 -1.533426,-1.643929 -0.423798,-0.01482 -0.82823,0.135566 -1.13799,0.424939 -0.311012,0.289367 -0.488733,0.682405 -0.503546,1.106204 -0.02846,0.87494 0.657345,1.612033 1.532168,1.64393 0.426082,0.01482 0.829371,-0.135566 1.139247,-0.426076 0.309872,-0.289367 0.487593,-0.681268 0.503547,-1.105068 z"
           style="fill:#ffffff;fill-opacity:1;stroke-width:0.11392438" />
      </g>
    </g>
  </g>
</svg>
