<?xml version="1.0" encoding="UTF-8" standalone="no"?>
<svg
   xmlns:dc="http://purl.org/dc/elements/1.1/"
   xmlns:cc="http://creativecommons.org/ns#"
   xmlns:rdf="http://www.w3.org/1999/02/22-rdf-syntax-ns#"
   xmlns:svg="http://www.w3.org/2000/svg"
   xmlns="http://www.w3.org/2000/svg"
   id="svg8"
   version="1.1"
   viewBox="0 0 164.54645 30.123661"
   height="30.123661mm"
   width="164.54645mm">
  <defs
     id="defs2">
    <clipPath
       clipPathUnits="userSpaceOnUse"
       id="clipPath888">
      <path
         d="M 0,612 H 792 V 0 H 0 Z"
         id="path886" />
    </clipPath>
  </defs>
  <metadata
     id="metadata5">
    <rdf:RDF>
      <cc:Work
         rdf:about="">
        <dc:format>image/svg+xml</dc:format>
        <dc:type
           rdf:resource="http://purl.org/dc/dcmitype/StillImage" />
        <dc:title></dc:title>
      </cc:Work>
    </rdf:RDF>
  </metadata>
  <g
     transform="translate(-27.860752,-138.30722)"
     id="layer1">
    <g
       transform="matrix(0.35277777,0,0,-0.35277777,55.780291,138.30722)"
       id="g890">
      <path
         id="path892"
         style="fill:#da1a31;fill-opacity:1;fill-rule:nonzero;stroke:none"
         d="m 0,0 h -71.036 c -4.458,0 -8.106,-3.648 -8.106,-8.107 v -19.102 h 19.703 v 3.121 c 0,2.422 1.963,4.385 4.385,4.385 h 39.073 c 2.421,0 4.384,-1.963 4.384,-4.385 v -3.121 H 8.107 V -8.107 C 8.107,-3.648 4.459,0 0,0" />
    </g>
    <g
       transform="matrix(0.35277777,0,0,-0.35277777,51.689197,159.93317)"
       id="g894">
      <path
         id="path896"
         style="fill:#da1a31;fill-opacity:1;fill-rule:nonzero;stroke:none"
         d="m 0,0 c 0,-2.422 -1.963,-4.385 -4.385,-4.385 h -39.072 c -2.422,0 -4.385,1.963 -4.385,4.385 v 3.121 h -19.703 v -19.103 c 0,-4.458 3.648,-8.106 8.106,-8.106 h 71.036 c 4.459,0 8.106,3.648 8.106,8.106 V 3.121 H 0 Z" />
    </g>
    <path
       id="path898"
       style="fill:#da1a31;fill-opacity:1;fill-rule:nonzero;stroke:none;stroke-width:0.35277778"
       d="m 34.811533,149.8935 h -6.950781 v 6.95078 h 6.950781 z" />
    <path
       id="path900"
       style="fill:#da1a31;fill-opacity:1;fill-rule:nonzero;stroke:none;stroke-width:0.35277778"
       d="m 58.64026,149.8935 h -6.95078 v 6.95078 h 6.95078 z" />
    <g
       transform="matrix(0.35277777,0,0,-0.35277777,68.920451,153.44301)"
       id="g910">
      <path
         id="path912"
         style="fill:#4e4640;fill-opacity:1;fill-rule:nonzero;stroke:none"
         d="m 0,0 v 0.501 c 0,8.27 4.26,14.366 10.858,14.366 6.431,0 11.025,-6.181 11.025,-14.449 v -0.501 c 0,-8.269 -4.26,-14.449 -10.858,-14.449 C 4.593,-14.532 0,-8.268 0,0 M 31.32,-0.166 V 0.586 C 31.32,13.699 22.718,23.22 11.025,23.22 -0.752,23.22 -9.438,13.531 -9.438,0.501 V -0.25 c 0,-13.113 8.603,-22.551 20.296,-22.551 11.776,0 20.462,9.605 20.462,22.635" />
    </g>
    <g
       transform="matrix(0.35277777,0,0,-0.35277777,85.123922,153.50171)"
       id="g914">
      <path
         id="path916"
         style="fill:#4e4640;fill-opacity:1;fill-rule:nonzero;stroke:none"
         d="m 0,0 v 0.835 c 0,8.686 4.845,14.198 10.523,14.198 5.68,0 10.274,-5.429 10.274,-14.281 V 0 c 0,-8.854 -4.511,-14.199 -10.274,-14.199 C 4.845,-14.199 0,-8.686 0,0 m 30.319,-0.168 v 1.17 c 0,14.951 -8.353,22.384 -17.206,22.384 -6.348,0 -10.19,-3.675 -12.946,-7.935 v 7.1 h -9.438 v -56.879 h 9.438 v 19.294 c 2.673,-3.925 6.515,-7.517 12.946,-7.517 8.936,0 17.206,7.517 17.206,22.383" />
    </g>
    <g
       transform="matrix(0.35277777,0,0,-0.35277777,104.29471,148.05108)"
       id="g918">
      <path
         id="path920"
         style="fill:#4e4640;fill-opacity:1;fill-rule:nonzero;stroke:none"
         d="M 0,0 C 5.513,0 8.686,-5.094 9.188,-12.11 H -9.521 C -8.853,-4.593 -5.178,0 0,0 m 16.871,-31.237 -4.928,5.848 c -2.923,-2.84 -6.013,-4.678 -10.189,-4.678 -5.763,0 -10.357,4.009 -11.192,11.442 h 27.729 c 0.083,1.336 0.083,2.674 0.083,3.258 0,13.279 -6.347,23.303 -18.374,23.303 -10.858,0 -18.876,-9.522 -18.876,-22.803 v -0.667 c 0,-13.865 8.853,-22.551 20.213,-22.551 6.598,0 11.526,2.589 15.534,6.848" />
    </g>
    <g
       transform="matrix(0.35277777,0,0,-0.35277777,120.55368,145.25161)"
       id="g922">
      <path
         id="path924"
         style="fill:#4e4640;fill-opacity:1;fill-rule:nonzero;stroke:none"
         d="m 0,0 c -6.013,0 -9.605,-3.425 -12.111,-7.35 v 6.515 h -9.438 v -44.267 h 9.438 v 26.81 c 0,6.097 3.425,9.772 8.353,9.772 5.011,0 7.934,-3.423 7.934,-9.604 v -26.978 h 9.438 v 29.65 C 13.614,-6.014 8.519,0 0,0" />
    </g>
    <g
       transform="matrix(0.35277777,0,0,-0.35277777,138.77751,156.71322)"
       id="g926">
      <path
         id="path928"
         style="fill:#4e4640;fill-opacity:1;fill-rule:nonzero;stroke:none"
         d="m 0,0 v 0.083 c 0,6.933 -5.179,10.105 -12.027,13.196 -5.179,2.339 -8.686,3.842 -8.686,6.765 v 0.168 c 0,2.422 2.087,4.342 5.595,4.342 3.508,0 7.183,-1.67 10.524,-3.925 l 4.009,6.933 c -4.176,3.006 -9.438,4.76 -14.366,4.76 -8.268,0 -14.616,-5.011 -14.616,-12.945 v -0.168 c 0,-7.266 5.513,-10.273 12.111,-13.112 5.261,-2.256 8.686,-3.675 8.686,-6.849 v -0.083 c 0,-2.757 -2.255,-4.845 -6.181,-4.845 -3.925,0 -8.185,1.922 -12.193,5.178 l -4.427,-6.765 c 5.095,-4.259 11.192,-6.18 16.453,-6.18 C -6.598,-13.447 0,-8.686 0,0" />
    </g>
    <g
       transform="matrix(0.35277777,0,0,-0.35277777,149.08708,160.7206)"
       id="g930">
      <path
         id="path932"
         style="fill:#4e4640;fill-opacity:1;fill-rule:nonzero;stroke:none"
         d="M 0,0 V 7.768 C -1.587,6.932 -3.258,6.515 -5.095,6.515 c -3.007,0 -4.761,1.419 -4.761,4.844 v 23.553 h 9.939 v 8.102 h -9.939 v 11.943 h -9.438 V 43.014 h -4.844 l 1.55,-8.102 h 3.294 V 9.438 c 0,-8.603 4.928,-11.359 11.443,-11.359 3.174,0 5.679,0.751 7.851,1.921" />
    </g>
    <g
       transform="matrix(0.35277777,0,0,-0.35277777,160.1944,155.91795)"
       id="g934">
      <path
         id="path936"
         style="fill:#4e4640;fill-opacity:1;fill-rule:nonzero;stroke:none"
         d="m 0,0 c 0,-5.011 -4.176,-8.686 -9.605,-8.603 -4.092,0.083 -7.182,2.59 -7.182,7.016 v 0.168 c 0,4.676 3.173,7.433 8.602,7.433 3.174,0 6.014,-0.669 8.185,-1.587 z m 4.677,25.391 c -2.839,2.923 -7.266,4.51 -13.029,4.51 -5.93,0 -10.357,-1.421 -14.617,-3.509 l 2.673,-7.516 c 2.924,1.336 6.432,2.673 10.691,2.673 6.014,0 9.522,-3.091 9.522,-9.02 v -1.838 c -3.007,1.003 -6.014,1.753 -10.19,1.753 -9.354,0 -15.702,-4.676 -15.702,-14.198 v -0.417 c 0,-8.603 6.181,-13.531 13.531,-13.531 5.763,0 9.688,2.506 12.277,6.264 v -5.429 h 9.271 v 27.479 c 0,5.512 -1.504,9.856 -4.427,12.779" />
    </g>
    <g
       transform="matrix(0.35277777,0,0,-0.35277777,177.559,159.1295)"
       id="g938">
      <path
         id="path940"
         style="fill:#4e4640;fill-opacity:1;fill-rule:nonzero;stroke:none"
         d="m 0,0 -5.094,6.264 c -2.59,-2.589 -5.179,-4.51 -9.021,-4.51 -6.431,0 -10.941,5.763 -10.941,14.365 v 0.418 c 0,8.353 4.51,14.282 10.691,14.282 4.009,0 6.598,-2.004 8.936,-4.427 l 5.263,6.933 c -3.675,3.675 -7.852,6.014 -14.199,6.014 -11.61,0 -20.213,-9.521 -20.213,-22.719 v -0.835 c 0,-13.196 8.353,-22.466 19.879,-22.466 6.765,0 11.191,2.755 14.699,6.681" />
    </g>
    <g
       transform="matrix(0.35277777,0,0,-0.35277777,187.74983,153.05731)"
       id="g942">
      <path
         id="path944"
         style="fill:#4e4640;fill-opacity:1;fill-rule:nonzero;stroke:none"
         d="M 0,0 -6.625,-7.121 2.261,-22.975 H 13.202 Z" />
    </g>
    <g
       transform="matrix(0.35277777,0,0,-0.35277777,188.31156,145.54622)"
       id="g946">
      <path
         id="path948"
         style="fill:#4e4640;fill-opacity:1;fill-rule:nonzero;stroke:none"
         d="m 0,0 -15.117,-19.461 v 35.497 h -9.438 v -60.303 h 9.438 v 12.779 L 11.192,0 Z" />
    </g>
  </g>
</svg>
