<?xml version="1.0" encoding="UTF-8" standalone="no"?>
<svg
   xmlns:dc="http://purl.org/dc/elements/1.1/"
   xmlns:cc="http://creativecommons.org/ns#"
   xmlns:rdf="http://www.w3.org/1999/02/22-rdf-syntax-ns#"
   xmlns:svg="http://www.w3.org/2000/svg"
   xmlns="http://www.w3.org/2000/svg"
   id="svg8"
   version="1.1"
   viewBox="0 0 30.779509 30.123661"
   height="30.123661mm"
   width="30.779509mm">
  <defs
     id="defs2">
    <clipPath
       clipPathUnits="userSpaceOnUse"
       id="clipPath888">
      <path
         d="M 0,612 H 792 V 0 H 0 Z"
         id="path886" />
    </clipPath>
  </defs>
  <metadata
     id="metadata5">
    <rdf:RDF>
      <cc:Work
         rdf:about="">
        <dc:format>image/svg+xml</dc:format>
        <dc:type
           rdf:resource="http://purl.org/dc/dcmitype/StillImage" />
        <dc:title></dc:title>
      </cc:Work>
    </rdf:RDF>
  </metadata>
  <g
     transform="translate(-27.860752,-138.30722)"
     id="layer1">
    <g
       transform="matrix(0.35277777,0,0,-0.35277777,55.780291,138.30722)"
       id="g890">
      <path
         id="path892"
         style="fill:#da1a31;fill-opacity:1;fill-rule:nonzero;stroke:none"
         d="m 0,0 h -71.036 c -4.458,0 -8.106,-3.648 -8.106,-8.107 v -19.102 h 19.703 v 3.121 c 0,2.422 1.963,4.385 4.385,4.385 h 39.073 c 2.421,0 4.384,-1.963 4.384,-4.385 v -3.121 H 8.107 V -8.107 C 8.107,-3.648 4.459,0 0,0" />
    </g>
    <g
       transform="matrix(0.35277777,0,0,-0.35277777,51.689197,159.93317)"
       id="g894">
      <path
         id="path896"
         style="fill:#da1a31;fill-opacity:1;fill-rule:nonzero;stroke:none"
         d="m 0,0 c 0,-2.422 -1.963,-4.385 -4.385,-4.385 h -39.072 c -2.422,0 -4.385,1.963 -4.385,4.385 v 3.121 h -19.703 v -19.103 c 0,-4.458 3.648,-8.106 8.106,-8.106 h 71.036 c 4.459,0 8.106,3.648 8.106,8.106 V 3.121 H 0 Z" />
    </g>
    <path
       id="path898"
       style="fill:#da1a31;fill-opacity:1;fill-rule:nonzero;stroke:none;stroke-width:0.35277778"
       d="m 34.811533,149.8935 h -6.950781 v 6.95078 h 6.950781 z" />
    <path
       id="path900"
       style="fill:#da1a31;fill-opacity:1;fill-rule:nonzero;stroke:none;stroke-width:0.35277778"
       d="m 58.64026,149.8935 h -6.95078 v 6.95078 h 6.95078 z" />
  </g>
</svg>
