<?xml version="1.0" encoding="UTF-8" standalone="no"?>
<svg
   xmlns:dc="http://purl.org/dc/elements/1.1/"
   xmlns:cc="http://creativecommons.org/ns#"
   xmlns:rdf="http://www.w3.org/1999/02/22-rdf-syntax-ns#"
   xmlns:svg="http://www.w3.org/2000/svg"
   xmlns="http://www.w3.org/2000/svg"
   id="svg8"
   version="1.1"
   viewBox="0 0 128.11786 54.201344"
   height="54.201344mm"
   width="128.11786mm">
  <defs
     id="defs2" />
  <metadata
     id="metadata5">
    <rdf:RDF>
      <cc:Work
         rdf:about="">
        <dc:format>image/svg+xml</dc:format>
        <dc:type
           rdf:resource="http://purl.org/dc/dcmitype/StillImage" />
        <dc:title></dc:title>
      </cc:Work>
    </rdf:RDF>
  </metadata>
  <g
     transform="translate(-44.47772,-61.443278)"
     id="layer1">
    <path
       id="rect908"
       d="m 102.4257,80.113885 -0.66042,0.597898 16.8615,34.919837 0.27389,0.006 v 0.007 l 0.14366,-0.003 0.14314,0.003 v -0.007 l 0.2744,-0.006 16.86099,-34.919837 -0.66043,-0.597898 -8.53022,0.02325 -8.08788,17.003615 -8.0884,-17.003615 z"
       style="opacity:1;fill:#000000;fill-opacity:1;stroke:none;stroke-width:0.62646496;stroke-linecap:round;stroke-linejoin:round;stroke-miterlimit:1;stroke-dasharray:none;stroke-opacity:1;paint-order:stroke markers fill" />
    <g
       id="text941"
       style="font-style:normal;font-weight:normal;font-size:70.46791077px;line-height:1.25;font-family:sans-serif;letter-spacing:0px;word-spacing:0px;fill:#000000;fill-opacity:1;stroke:none;stroke-width:1.76169789"
       transform="matrix(0.89499187,0,0,1.0548717,0.13363651,7.8094628)"
       aria-label="S">
      <path
         id="path943"
         style="font-style:normal;font-variant:normal;font-weight:normal;font-stretch:normal;font-family:'Roboto Mono Medium for Powerline';-inkscape-font-specification:'Roboto Mono Medium for Powerline';fill:#000000;fill-opacity:1;stroke-width:1.76169789"
         d="m 183.22839,87.836299 c 0.0528,-0.708382 0.15858,-1.911451 -0.33465,-2.817617 -0.49323,-0.906166 -0.7163,-1.63899 -1.09589,-2.005466 -0.37959,-0.366476 -1.50898,-1.765747 -2.75924,-2.281908 -1.25026,-0.516161 -2.28696,-1.254012 -4.00738,-1.758668 -1.72042,-0.504656 -3.72283,-1.015832 -5.63822,-1.86457 -1.91539,-0.848738 -3.90098,-1.815064 -5.44356,-2.917577 -1.54258,-1.102513 -3.56286,-2.257747 -4.49191,-3.897916 -0.92905,-1.640169 -1.37633,-3.555509 -1.37633,-5.711754 0,-2.156245 0.55289,-4.02684 1.48191,-5.735782 0.92902,-1.708942 2.56017,-2.908284 4.12001,-4.1011 1.55984,-1.192816 3.47758,-2.020789 5.54207,-2.663074 2.06449,-0.642286 3.77092,-0.739481 6.09921,-0.739481 2.32829,0 4.01156,0.07641 6.11052,0.821943 2.09896,0.745533 3.52723,1.210722 5.61088,2.951985 2.08365,1.741263 4.07175,4.256658 4.42216,4.829681 0.35042,0.573023 -7.33466,4.367986 -7.73005,3.896674 -0.39539,-0.471312 -1.4805,-2.164862 -2.50944,-3.158174 -1.02894,-0.993312 -1.79158,-1.028393 -2.89264,-1.441291 -1.10106,-0.412898 -1.73833,-0.305821 -3.08025,-0.305821 -1.34192,0 -1.9105,0.115781 -2.96569,0.436924 -1.05519,0.321143 -1.4035,0.298688 -2.17197,0.918052 -0.76847,0.619364 -0.98385,0.469069 -1.41969,1.340743 -0.43584,0.871674 -0.91771,1.241371 -0.91771,2.376841 0,1.13547 0.0343,1.440688 0.63067,2.300907 0.5964,0.860219 1.37632,1.594244 2.33975,2.23653 0.96343,0.642286 1.94734,0.902193 3.1976,1.372474 1.25026,0.470281 2.09652,1.03718 3.81695,1.541838 1.72043,0.504658 3.97749,1.399252 5.88144,2.305347 1.90395,0.906095 3.89518,2.353975 5.34034,3.62709 1.44516,1.273115 2.32812,3.311976 3.17686,4.986506 0.84874,1.67453 0.42845,3.958614 0.42845,6.149267 0,2.190653 -0.6814,3.783222 -1.62189,5.480691 -0.94049,1.697469 -2.09655,3.074882 -3.67932,4.221822 -1.58277,1.14694 -3.31225,2.477965 -5.39972,3.062915 -2.08747,0.58495 -4.63364,0.8602 -6.53756,0.8602 -1.90391,0 -3.06232,0.20921 -4.57628,-0.089 -1.51396,-0.29821 -3.1404,-0.52156 -4.52821,-1.11797 -1.38781,-0.59641 -2.81924,-1.274171 -4.01208,-2.157332 -1.19284,-0.883161 -2.5119,-2.172591 -3.39509,-3.331062 -0.88319,-1.158471 -1.71821,-2.633605 -2.22287,-4.067281 -0.50466,-1.433676 -0.99108,-3.261071 -1.00255,-4.121275 -0.0115,-0.860204 9.18525,-2.190238 9.2426,-1.433259 0.0573,0.756979 0.81683,3.191254 1.36736,4.315254 0.55053,1.124 1.07339,2.075937 1.99097,2.821469 0.91758,0.745532 1.81426,1.038743 3.04158,1.417264 1.22732,0.378521 2.62413,0.371372 3.98899,0.371372 1.36486,0 1.97479,-0.28347 3.05291,-0.581674 1.07812,-0.298204 1.70182,-1.036069 2.50472,-1.621035 0.8029,-0.584966 1.22251,-1.173131 1.68129,-2.033346 0.45878,-0.860215 0.7,-2.140933 0.74095,-2.690366 0.0409,-0.549433 -0.0528,0.708391 0,1e-5 z" />
    </g>
    <g
       transform="translate(2.4054266,59.85209)"
       id="g988">
      <path
         style="opacity:1;fill:#000000;fill-opacity:1;stroke:none;stroke-width:0.98452181;stroke-linecap:round;stroke-linejoin:round;stroke-miterlimit:1;stroke-dasharray:none;stroke-opacity:1;paint-order:stroke markers fill"
         d="M 69.172963,1.591188 A 27.100596,27.100596 0 0 0 42.072293,28.691861 27.100596,27.100596 0 0 0 69.172963,55.79253 27.100596,27.100596 0 0 0 96.273119,28.691861 27.100596,27.100596 0 0 0 69.172963,1.591188 Z m 0,8.496641 A 18.603683,18.603683 0 0 1 87.776478,28.691861 18.603683,18.603683 0 0 1 69.172963,47.295376 18.603683,18.603683 0 0 1 50.568932,28.691861 18.603683,18.603683 0 0 1 69.172963,10.087829 Z"
         id="path826-3" />
      <g
         id="g982"
         transform="translate(41.010094,-25.310037)">
        <path
           id="rect946"
           d="m 22.427332,47.510211 h 13.566311 v -3.507913 l 7.90005,5.980156 -7.88445,6.171756 -0.049,-3.841999 H 22.427332 Z"
           style="opacity:1;fill:#4b8b47;fill-opacity:1;stroke:none;stroke-width:0.64704996;stroke-linecap:round;stroke-linejoin:round;stroke-miterlimit:1;stroke-dasharray:none;stroke-opacity:1;paint-order:stroke markers fill" />
        <path
           id="rect946-6"
           d="M 33.897893,55.357496 H 20.331575 v -3.507913 l -7.900045,5.980156 7.884451,6.171756 0.049,-3.841999 h 13.532912 z"
           style="opacity:1;fill:#4b8b47;fill-opacity:1;stroke:none;stroke-width:0.64705002;stroke-linecap:round;stroke-linejoin:round;stroke-miterlimit:1;stroke-dasharray:none;stroke-opacity:1;paint-order:stroke markers fill" />
      </g>
    </g>
  </g>
</svg>
