<?xml version="1.0" encoding="UTF-8" standalone="no"?>
<svg
   xmlns:dc="http://purl.org/dc/elements/1.1/"
   xmlns:cc="http://creativecommons.org/ns#"
   xmlns:rdf="http://www.w3.org/1999/02/22-rdf-syntax-ns#"
   xmlns:svg="http://www.w3.org/2000/svg"
   xmlns="http://www.w3.org/2000/svg"
   width="999.99994"
   height="433.2298"
   viewBox="0 0 999.99996 433.2298"
   id="svg4338"
   version="1.1">
  <defs
     id="defs4340">
    <clipPath
       clipPathUnits="userSpaceOnUse"
       id="clipPath4158">
      <path
         d="M 0,792 612,792 612,0 0,0 0,792 Z"
         id="path4160" />
    </clipPath>
  </defs>
  <metadata
     id="metadata4343">
    <rdf:RDF>
      <cc:Work
         rdf:about="">
        <dc:format>image/svg+xml</dc:format>
        <dc:type
           rdf:resource="http://purl.org/dc/dcmitype/StillImage" />
        <dc:title></dc:title>
      </cc:Work>
    </rdf:RDF>
  </metadata>
  <g
     id="layer1"
     transform="translate(-314.54724,-117.86203)">
    <path
       d="m 314.54724,551.09182 999.99996,0 0,-433.22979 -999.99996,0 0,433.22979 z"
       style="fill:#222222;fill-opacity:1;fill-rule:nonzero;stroke:#222222;stroke-opacity:1;stroke-width:24;stroke-miterlimit:4;stroke-dasharray:none;stroke-linejoin:round"
       id="path4146" />
    <g
       transform="matrix(10.869564,0,0,-10.869564,618.61247,484.55314)"
       id="g4162">
      <path
         id="path4164"
         style="fill:#ffffff;fill-opacity:1;fill-rule:nonzero;stroke:none"
         d="m 0,0 -3.068,0 0,13.807 3.068,0 0,-0.883 c 0.384,0.541 1.374,1.06 2.457,1.06 2.934,0 4.568,-2.437 4.568,-5.281 C 7.025,5.86 5.408,3.445 2.475,3.445 1.391,3.445 0.384,3.964 0,4.506 L 0,0 Z m 0,7.056 c 0.384,-0.7 1.012,-1.174 1.825,-1.174 1.512,0 2.379,1.219 2.379,2.821 0,1.625 -0.849,2.844 -2.361,2.844 C 1.008,11.547 0.384,11.05 0,10.373 L 0,7.056 Z" />
    </g>
    <g
       transform="matrix(10.869564,0,0,-10.869564,806.2081,442.86619)"
       id="g4166">
      <path
         id="path4168"
         style="fill:#ffffff;fill-opacity:1;fill-rule:nonzero;stroke:none"
         d="m 0,0 -3.068,0 0,0.761 C -3.452,0.129 -4.545,-0.39 -5.719,-0.39 c -2.257,0 -3.486,1.489 -3.486,3.723 l 0,6.639 2.685,0 0,-6.074 c 0,-1.061 0.53,-1.783 1.636,-1.783 0.857,0 1.816,0.519 1.816,1.399 l 0,6.458 L 0,9.972 0,0 Z" />
    </g>
    <g
       transform="matrix(10.869564,0,0,-10.869564,856.23526,484.55314)"
       id="g4170">
      <path
         id="path4172"
         style="fill:#ffffff;fill-opacity:1;fill-rule:nonzero;stroke:none"
         d="m 0,0 -2.685,0 0,13.807 2.685,0 0,-0.883 c 0.384,0.541 1.411,1.06 2.494,1.06 2.934,0 4.587,-2.437 4.587,-5.281 C 7.081,5.86 5.436,3.445 2.502,3.445 1.419,3.445 0.384,3.964 0,4.506 L 0,0 Z m 0,7.056 c 0.384,-0.7 1.05,-1.174 1.862,-1.174 1.512,0 2.398,1.219 2.398,2.821 0,1.625 -0.877,2.844 -2.389,2.844 C 1.036,11.547 0.384,11.05 0,10.373 L 0,7.056 Z" />
    </g>
    <g
       transform="matrix(10.869564,0,0,-10.869564,977.12982,484.55314)"
       id="g4174">
      <path
         id="path4176"
         style="fill:#ffffff;fill-opacity:1;fill-rule:nonzero;stroke:none"
         d="m 0,0 -2.685,0 0,13.807 2.685,0 0,-0.883 c 0.384,0.541 1.424,1.06 2.507,1.06 2.934,0 4.594,-2.437 4.594,-5.281 C 7.101,5.86 5.446,3.445 2.512,3.445 1.429,3.445 0.384,3.964 0,4.506 L 0,0 Z m 0,7.056 c 0.384,-0.7 1.063,-1.174 1.875,-1.174 1.512,0 2.405,1.219 2.405,2.821 0,1.625 -0.887,2.844 -2.399,2.844 C 1.046,11.547 0.384,11.05 0,10.373 L 0,7.056 Z" />
    </g>
    <g
       transform="matrix(10.869564,0,0,-10.869564,1163.3646,409.51619)"
       id="g4178">
      <path
         id="path4180"
         style="fill:#ffffff;fill-opacity:1;fill-rule:nonzero;stroke:none"
         d="m 0,0 c -0.361,-1.918 -1.941,-3.49 -4.469,-3.49 -2.933,0 -4.896,2.16 -4.896,5.274 0,3.047 2.059,5.289 4.88,5.289 2.957,0 4.61,-2.046 4.61,-5.002 l 0,-0.92 -6.782,0 c 0.09,-1.534 0.948,-2.415 2.188,-2.415 0.949,0 1.648,0.497 1.874,1.264 L 0,0 Z m -6.59,3.068 3.904,0 c -0.022,0.767 -0.654,1.896 -1.805,1.896 -1.083,0 -1.851,-0.745 -2.099,-1.896" />
    </g>
    <g
       transform="matrix(10.869564,0,0,-10.869564,1185.57,359.48902)"
       id="g4182">
      <path
         id="path4184"
         style="fill:#ffffff;fill-opacity:1;fill-rule:nonzero;stroke:none"
         d="m 0,0 -1.534,0 0,2.301 1.534,0 0,2.685 2.685,0 0,-2.685 2.301,0 0,-2.301 -2.301,0 0,-4.427 c 0,-0.79 0.394,-1.151 1.116,-1.151 0.429,0 0.801,0.135 1.185,0.338 l 0,-2.482 C 4.602,-7.925 4.005,-8.038 3.26,-8.038 1.207,-8.038 0,-7.023 0,-4.788 L 0,0 Z" />
    </g>
    <g
       transform="matrix(1.1934463,0,0,1.1934463,-99.507152,-69.542651)"
       style="fill:#ffa61a;fill-opacity:1"
       id="g4268">
      <path
         d="m 539.40487,267.78142 -66.69565,0 0,66.69565 66.69565,0 0,-66.69565 z"
         style="fill:#ffa61a;fill-opacity:1;fill-rule:nonzero;stroke:none"
         id="path4186" />
      <path
         d="m 435.18749,392.83576 -20.84783,0 0,-20.84783 20.84783,0 0,20.84783 z m 25.01086,-45.84782 -70.86955,0 0,70.86955 70.86955,0 0,-70.86955 z"
         style="fill:#ffa61a;fill-opacity:1;fill-rule:nonzero;stroke:none"
         id="path4188" />
      <g
         style="fill:#ffa61a;fill-opacity:1"
         id="g4190"
         transform="matrix(10.869564,0,0,-10.869564,474.1527,284.71186)">
        <path
           d="M 0,0 -3.874,3.874 -2.378,5.37 1.496,1.496 0,0 Z"
           style="fill:#ffa61a;fill-opacity:1;fill-rule:nonzero;stroke:none"
           id="path4192" />
      </g>
      <g
         style="fill:#ffa61a;fill-opacity:1"
         id="g4194"
         transform="matrix(10.869564,0,0,-10.869564,459.52335,363.18576)">
        <path
           d="M 0,0 -1.496,1.496 1.57,4.562 3.066,3.066 0,0 Z"
           style="fill:#ffa61a;fill-opacity:1;fill-rule:nonzero;stroke:none"
           id="path4196" />
      </g>
      <path
         d="m 435.18749,230.25969 -20.84783,0 0,-20.84783 20.84783,0 0,20.84783 z m 25.01086,-45.85869 -70.86955,0 0,70.86956 70.86955,0 0,-70.86956 z"
         style="fill:#ffa61a;fill-opacity:1;fill-rule:nonzero;stroke:none"
         id="path4198" />
    </g>
  </g>
</svg>
