<?xml version="1.0" encoding="UTF-8" standalone="no"?>
<svg
   xmlns:dc="http://purl.org/dc/elements/1.1/"
   xmlns:cc="http://creativecommons.org/ns#"
   xmlns:rdf="http://www.w3.org/1999/02/22-rdf-syntax-ns#"
   xmlns:svg="http://www.w3.org/2000/svg"
   xmlns="http://www.w3.org/2000/svg"
   height="137.89999"
   width="440.71268"
   xml:space="preserve"
   viewBox="0 0 440.71266 137.9"
   y="0px"
   x="0px"
   id="Layer_1"
   version="1.1"><metadata
     id="metadata35"><rdf:RDF><cc:Work
         rdf:about=""><dc:format>image/svg+xml</dc:format><dc:type
           rdf:resource="http://purl.org/dc/dcmitype/StillImage" /><dc:title></dc:title></cc:Work></rdf:RDF></metadata><defs
     id="defs33"><linearGradient
       id="path1948_1_"
       gradientUnits="userSpaceOnUse"
       x1="293.60818"
       y1="158.9346"
       x2="402.63031"
       y2="65.135696"
       gradientTransform="matrix(0.5625,0,0,-0.568,15.6638,325.3453)"><stop
         offset="0"
         style="stop-color:#5A9FD4"
         id="stop13" /><stop
         offset="1"
         style="stop-color:#306998"
         id="stop15" /></linearGradient><linearGradient
       id="path1950_1_"
       gradientUnits="userSpaceOnUse"
       x1="444.77631"
       y1="8.3739004"
       x2="405.84659"
       y2="63.452702"
       gradientTransform="matrix(0.5625,0,0,-0.568,15.6638,325.3453)"><stop
         offset="0"
         style="stop-color:#FFD43B"
         id="stop19" /><stop
         offset="1"
         style="stop-color:#FFE873"
         id="stop21" /></linearGradient><radialGradient
       id="path1894_1_"
       cx="-907.65991"
       cy="319.33649"
       r="29.0375"
       gradientTransform="matrix(0,-0.2399,-1.0547,0,576.165,141.8266)"
       gradientUnits="userSpaceOnUse"><stop
         offset="0"
         style="stop-color:#B8B8B8;stop-opacity:0.498"
         id="stop26" /><stop
         offset="1"
         style="stop-color:#7F7F7F;stop-opacity:0"
         id="stop28" /></radialGradient></defs><style
     id="style3"
     type="text/css">
	.st0{fill:#646464;}
	.st1{fill:url(#path1948_1_);}
	.st2{fill:url(#path1950_1_);}
	.st3{opacity:0.4438;fill:url(#path1894_1_);enable-background:new    ;}
</style><g
     transform="translate(-183.48732,-228.7)"
     id="g4182"><path
       style="fill:#646464"
       d="m 362.6,287.4 c 0,-14.6 -4.2,-22 -12.5,-22.4 -3.3,-0.2 -6.5,0.4 -9.7,1.6 -2.5,0.9 -4.2,1.8 -5.1,2.7 l 0,34.7 c 5.3,3.3 10,4.9 14.1,4.6 8.8,-0.5 13.2,-7.6 13.2,-21.2 z m 10.2,0.6 c 0,7.4 -1.7,13.5 -5.2,18.4 -3.9,5.5 -9.3,8.4 -16.2,8.5 -5.2,0.2 -10.5,-1.5 -16.1,-4.9 l 0,31.6 -8.9,-3.2 0,-70.1 c 1.5,-1.8 3.3,-3.3 5.6,-4.6 5.3,-3.1 11.7,-4.7 19.3,-4.8 l 0.1,0.1 c 6.9,-0.1 12.3,2.8 16,8.5 3.7,5.4 5.4,12.2 5.4,20.5 z"
       class="st0"
       id="path46" /><path
       style="fill:#646464"
       d="m 427.3,308.7 c 0,9.9 -1,16.8 -3,20.6 -2,3.8 -5.8,6.9 -11.4,9.1 -4.6,1.8 -9.5,2.8 -14.8,2.9 l -1.5,-5.6 c 5.4,-0.7 9.2,-1.5 11.3,-2.2 4.3,-1.5 7.3,-3.7 8.9,-6.7 1.3,-2.4 1.9,-7.1 1.9,-14 l 0,-2.3 c -6.1,2.8 -12.5,4.1 -19.2,4.1 -4.4,0 -8.3,-1.4 -11.6,-4.1 -3.7,-3 -5.6,-6.8 -5.6,-11.5 l 0,-37 8.9,-3.1 0,37.3 c 0,4 1.3,7.1 3.9,9.2 2.6,2.2 5.9,3.2 10,3.1 4.1,-0.1 8.5,-1.7 13.1,-4.8 l 0,-43.5 8.9,0 0,48.5 z"
       class="st0"
       id="path48" /><path
       style="fill:#646464"
       d="m 462,314.5 c -1.1,0.1 -2,0.1 -2.9,0.1 -5,0 -9,-1.2 -11.8,-3.6 -2.8,-2.4 -4.2,-5.7 -4.2,-10 l 0,-35.1 -6.1,0 0,-5.6 6.1,0 0,-14.9 8.9,-3.2 0,18.1 10,0 0,5.6 -10,0 0,34.8 c 0,3.3 0.9,5.7 2.7,7.1 1.5,1.1 4,1.8 7.3,2 l 0,4.7 z"
       class="st0"
       id="path50" /><path
       style="fill:#646464"
       d="m 516,313.7 -8.9,0 0,-34.4 c 0,-3.5 -0.8,-6.5 -2.4,-9 -1.9,-2.8 -4.5,-4.3 -7.8,-4.3 -4.1,0 -9.2,2.2 -15.3,6.5 l 0,41.2 -8.9,0 0,-82.2 8.9,-2.8 0,37.4 c 5.7,-4.1 11.9,-6.2 18.7,-6.2 4.7,0 8.5,1.6 11.5,4.8 2.9,3.2 4.4,7.1 4.4,11.8 l 0,37.2 -0.2,0 z"
       class="st0"
       id="path52" /><path
       style="fill:#646464"
       d="m 563.3,286 c 0,-5.6 -1.1,-10.2 -3.2,-13.9 -2.5,-4.5 -6.4,-6.8 -11.7,-7 -9.8,0.6 -14.6,7.6 -14.6,21 0,6.2 1,11.3 3.1,15.4 2.6,5.3 6.5,7.8 11.8,7.8 9.7,-0.1 14.6,-7.9 14.6,-23.3 z m 9.8,0.1 c 0,8 -2,14.6 -6.1,19.9 -4.5,5.9 -10.7,8.9 -18.5,8.9 -7.8,0 -13.9,-3 -18.3,-8.9 -4,-5.3 -6,-11.9 -6,-19.9 0,-7.5 2.2,-13.8 6.5,-18.9 4.6,-5.4 10.5,-8.2 17.9,-8.2 7.4,0 13.4,2.7 18.1,8.2 4.2,5.1 6.4,11.4 6.4,18.9 z"
       class="st0"
       id="path54" /><path
       style="fill:#646464"
       d="m 624.2,313.7 -8.9,0 0,-36.3 c 0,-4 -1.2,-7.1 -3.6,-9.3 -2.4,-2.2 -5.6,-3.3 -9.6,-3.2 -4.2,0.1 -8.3,1.5 -12.1,4.1 l 0,44.8 -8.9,0 0,-45.9 c 5.1,-3.7 9.8,-6.2 14.2,-7.3 4.1,-1.1 7.7,-1.6 10.7,-1.6 2.1,0 4.1,0.2 6,0.6 3.5,0.8 6.3,2.3 8.5,4.5 2.4,2.4 3.7,5.4 3.7,8.8 l 0,40.8 z"
       class="st0"
       id="path56" /><path
       style="fill:url(#path1948_1_)"
       d="m 238.5,231.9 c -4.6,0 -9,0.4 -12.8,1.1 -11.3,2 -13.4,6.2 -13.4,13.9 l 0,10.2 26.8,0 0,3.4 -26.8,0 -10.1,0 c -7.8,0 -14.6,4.7 -16.8,13.6 -2.5,10.2 -2.6,16.6 0,27.3 1.9,7.9 6.5,13.6 14.2,13.6 l 9.2,0 0,-12.2 c 0,-8.9 7.7,-16.7 16.8,-16.7 l 26.8,0 c 7.5,0 13.4,-6.1 13.4,-13.6 l 0,-25.5 c 0,-7.3 -6.1,-12.7 -13.4,-13.9 -4.6,-0.9 -9.4,-1.2 -13.9,-1.2 z m -14.5,8.2 c 2.8,0 5,2.3 5,5.1 0,2.8 -2.3,5.1 -5,5.1 -2.8,0 -5,-2.3 -5,-5.1 -0.1,-2.8 2.2,-5.1 5,-5.1 z"
       class="st1"
       id="path1948" /><path
       style="fill:url(#path1950_1_)"
       d="m 269.2,260.5 0,11.9 c 0,9.2 -7.8,17 -16.7,17 l -26.8,0 c -7.3,0 -13.4,6.3 -13.4,13.6 l 0,25.5 c 0,7.3 6.3,11.5 13.4,13.6 8.5,2.5 16.6,2.9 26.8,0 6.7,-2 13.4,-5.9 13.4,-13.6 l 0,-10.2 -26.8,0 0,-3.3 26.8,0 13.4,0 c 7.8,0 10.7,-5.4 13.4,-13.6 2.8,-8.4 2.7,-16.5 0,-27.3 -1.9,-7.8 -5.6,-13.6 -13.4,-13.6 l -10.1,0 z m -15.1,64.7 c 2.8,0 5,2.3 5,5.1 0,2.8 -2.3,5.1 -5,5.1 -2.8,0 -5,-2.3 -5,-5.1 0,-2.8 2.2,-5.1 5,-5.1 z"
       class="st2"
       id="path1950" /><path
       style="opacity:0.44380002;fill:url(#path1894_1_);enable-background:new"
       d="m 275.3,359.6 c 0,3.8 -16.1,7 -35.9,7 -19.8,0 -35.9,-3.1 -35.9,-7 0,-3.8 16.1,-7 35.9,-7 19.8,0 35.9,3.1 35.9,7 l 0,0 z"
       class="st3"
       id="path1894" /></g></svg>