<?xml version="1.0" encoding="UTF-8"?>
<svg xmlns="http://www.w3.org/2000/svg" xmlns:xlink="http://www.w3.org/1999/xlink" viewBox="0 0 50 50" version="1.1" width="50px" height="50px">
<g id="surface1">
<path style=" " d="M 41.199219 22.699219 L 40.800781 22.101563 C 40.800781 17.601563 38.699219 15.699219 36.300781 14.300781 C 37 14.101563 37.800781 13.898438 38 13 C 39.300781 12.699219 39.5 12.101563 39.601563 11.5 C 39.898438 11.300781 41 10.699219 40.898438 9.601563 C 41.5 9.199219 41.898438 8.601563 41.699219 7.800781 C 42.398438 7.101563 42.5 6.5 42.300781 5.898438 C 43.101563 4.898438 42.699219 4.398438 42.398438 3.898438 C 43 2.800781 42.5 1.601563 40.800781 1.800781 C 40.101563 0.800781 38.699219 1 38.5 1 C 38.300781 0.699219 38 0.398438 37 0.5 C 36.300781 -0.101563 35.601563 0 34.898438 0.300781 C 34 -0.398438 33.398438 0.199219 32.699219 0.398438 C 31.601563 0 31.398438 0.5 30.800781 0.699219 C 29.601563 0.398438 29.300781 1 28.699219 1.601563 L 28 1.601563 C 26.199219 2.699219 25.300781 4.800781 25 5.898438 C 24.699219 4.800781 23.800781 2.601563 22 1.601563 L 21.300781 1.601563 C 20.699219 1 20.398438 0.5 19.199219 0.699219 C 18.699219 0.5 18.398438 0 17.300781 0.398438 C 16.898438 0.300781 16.5 0 16 0 C 15.699219 0 15.5 0.101563 15.199219 0.300781 C 14.398438 0.101563 13.699219 0 13 0.5 C 12 0.398438 11.699219 0.601563 11.398438 1 C 11.199219 1 9.699219 0.800781 9.101563 1.800781 C 7.398438 1.601563 6.898438 2.800781 7.5 3.898438 C 7.199219 4.398438 6.800781 4.898438 7.601563 5.898438 C 7.398438 6.398438 7.5 7 8.199219 7.800781 C 8 8.601563 8.398438 9.101563 9 9.5 C 8.898438 10.601563 10 11.199219 10.300781 11.398438 C 10.398438 12 10.699219 12.601563 11.898438 12.898438 C 12.101563 13.800781 12.898438 14 13.601563 14.199219 C 11.199219 15.601563 9.101563 17.5 9.101563 22 L 8.699219 22.601563 C 6 24.398438 3.5 29.800781 7.398438 34.199219 C 7.699219 35.601563 8.101563 36.601563 8.5 37.699219 C 9.101563 42.101563 12.800781 44.199219 13.800781 44.398438 C 15.199219 45.5 16.800781 46.5 18.800781 47.300781 C 20.699219 49.300781 22.898438 50.101563 25 50.101563 C 25 50.101563 25.101563 50.101563 25.101563 50.101563 C 27.199219 50.101563 29.300781 49.300781 31.300781 47.300781 C 33.398438 46.601563 34.898438 45.5 36.300781 44.398438 C 37.300781 44.199219 41 42.101563 41.601563 37.699219 C 42 36.601563 42.398438 35.601563 42.699219 34.199219 C 46.5 29.800781 44 24.398438 41.199219 22.699219 Z M 38.699219 21.898438 C 38.601563 23.699219 29.199219 15.5 30.800781 15.300781 C 35.199219 14.601563 38.800781 17.199219 38.699219 21.898438 Z M 28.398438 2.898438 C 28.5 3.300781 28.601563 3.601563 28.699219 3.601563 C 29.199219 3 29.601563 2.5 30.300781 1.898438 C 30.300781 2.199219 30.101563 2.601563 30.5 2.800781 C 30.898438 2.300781 31.300781 1.898438 32 1.5 C 31.699219 2 31.898438 2.199219 32.101563 2.398438 C 32.601563 2 33.101563 1.5 34 1.199219 C 33.800781 1.5 33.398438 1.800781 33.800781 2.199219 C 34.300781 1.898438 34.800781 1.601563 36 1.300781 C 35.699219 1.601563 35.199219 1.898438 35.5 2.199219 C 36.101563 2 36.800781 1.800781 37.601563 1.699219 C 37.199219 2 36.898438 2.300781 37.199219 2.601563 C 37.898438 2.398438 38.800781 2.101563 39.699219 2.300781 L 39.101563 2.898438 C 39.199219 3 40.601563 3 41.5 3 C 41.199219 3.5 40.800781 4 40.601563 4.800781 C 40.699219 4.898438 41.199219 4.800781 41.601563 4.800781 C 41.199219 5.800781 40.398438 6 40.199219 6.398438 C 40.5 6.601563 40.898438 6.601563 41.300781 6.398438 C 41 7.101563 40.300781 7.5 39.800781 8.101563 C 39.898438 8.199219 40.199219 8.300781 40.699219 8.199219 C 40.199219 8.699219 39.601563 9.199219 38.898438 9.699219 C 39 9.800781 39.5 9.800781 39.898438 9.898438 C 39.300781 10.5 38.398438 10.898438 37.699219 11.300781 C 38.101563 11.601563 38.398438 11.5 38.699219 11.5 C 38.199219 12 37.199219 12.199219 36.398438 12.5 C 36.601563 12.800781 36.699219 12.800781 37.101563 12.898438 C 36.199219 13.398438 34.898438 13.199219 34.5 13.398438 C 34.601563 13.699219 34.800781 13.800781 35.101563 14 C 33.601563 14.101563 29.601563 13.898438 28.800781 10.800781 C 30.300781 9.101563 33.101563 7.101563 37.800781 4.699219 C 34.101563 6 30.800781 7.601563 28 9.898438 C 24.601563 8.300781 26.800781 4.398438 28.398438 2.898438 Z M 25 14 C 27.300781 14 30.199219 15.699219 30.199219 17.398438 C 30.199219 18.898438 28.199219 20 25 20 C 21.898438 20 19.800781 18.5 19.800781 17.101563 C 19.800781 16 22.398438 14 25 14 Z M 13.199219 12.800781 C 13.601563 12.699219 13.699219 12.699219 13.898438 12.398438 C 13 12.101563 12.101563 11.898438 11.601563 11.398438 C 11.898438 11.398438 12.199219 11.5 12.601563 11.199219 C 11.800781 10.800781 11 10.5 10.398438 9.800781 C 10.800781 9.800781 11.199219 9.800781 11.398438 9.601563 C 10.699219 9.199219 10.101563 8.699219 9.601563 8.101563 C 10.199219 8.199219 10.398438 8.101563 10.5 8 C 10 7.5 9.300781 7 9 6.300781 C 9.398438 6.398438 9.800781 6.5 10.101563 6.300781 C 9.699219 6 8.898438 5.800781 8.5 4.800781 C 8.898438 4.800781 9.398438 4.898438 9.5 4.800781 C 9.300781 4 8.898438 3.5 8.601563 3 C 9.5 3 11 3 10.898438 2.898438 L 10.300781 2.300781 C 11.199219 2.101563 12.199219 2.300781 12.800781 2.601563 C 13.101563 2.398438 12.800781 2.101563 12.398438 1.699219 C 13.199219 1.800781 13.898438 2 14.5 2.199219 C 14.800781 1.898438 14.300781 1.601563 14 1.300781 C 15.199219 1.5 15.699219 1.800781 16.199219 2.199219 C 16.601563 1.800781 16.199219 1.5 16 1.199219 C 17 1.601563 17.5 2 18 2.5 C 18.199219 2.300781 18.398438 2.101563 18.101563 1.601563 C 18.699219 2 19.199219 2.398438 19.601563 2.898438 C 20 2.601563 19.800781 2.300781 19.800781 2 C 20.5 2.5 20.898438 3.101563 21.398438 3.699219 C 21.5 3.601563 21.601563 3.398438 21.699219 3 C 23.300781 4.601563 25.601563 8.5 22.300781 10 C 19.5 7.699219 16.199219 6 12.5 4.800781 C 17.199219 7.199219 20 9.199219 21.5 10.898438 C 20.699219 14 16.699219 14.101563 15.199219 14.101563 C 15.5 14 15.800781 13.800781 15.800781 13.5 C 15.5 13.101563 14.101563 13.300781 13.199219 12.800781 Z M 18.699219 15.199219 C 20.300781 15.5 10.898438 23.699219 10.800781 21.800781 C 10.601563 17 14.300781 14.398438 18.699219 15.199219 Z M 8.800781 33.398438 C 6.5 31.601563 5.800781 26.199219 10 23.800781 C 12.601563 23.101563 10.898438 34.300781 8.800781 33.398438 Z M 17.699219 43 C 16.398438 43.800781 13.300781 43.5 11.101563 40.300781 C 9.601563 37.601563 9.800781 34.898438 10.800781 34.101563 C 12.398438 33.101563 14.800781 34.398438 16.699219 36.601563 C 18.300781 38.5 19.101563 42 17.699219 43 Z M 15.199219 31.300781 C 12.800781 29.800781 12.398438 26.300781 14.300781 23.5 C 16.101563 20.699219 19.5 19.699219 21.898438 21.300781 C 24.300781 22.800781 24.699219 26.300781 22.800781 29.101563 C 20.898438 31.800781 17.5 32.800781 15.199219 31.300781 Z M 25 48.398438 C 22.199219 48.5 19.398438 46.101563 19.398438 45.199219 C 19.398438 44 22.800781 43 25.101563 43.101563 C 27.398438 43 30.398438 43.800781 30.5 44.898438 C 30.5 46.101563 27.699219 48.5 25 48.398438 Z M 30.800781 36.199219 C 30.800781 39.101563 28.300781 41.5 25.101563 41.5 C 21.898438 41.5 19.398438 39.199219 19.398438 36.300781 C 19.398438 36.300781 19.398438 36.300781 19.398438 36.199219 C 19.398438 33.300781 21.898438 30.898438 25.101563 30.898438 C 28.199219 31 30.800781 33.300781 30.800781 36.199219 Z M 27.199219 28.800781 C 25.398438 26 25.800781 22.5 28.101563 21 C 30.5 19.5 33.898438 20.5 35.699219 23.199219 C 37.5 26 37.101563 29.5 34.800781 31 C 32.5 32.601563 29.101563 31.601563 27.199219 28.800781 Z M 38.800781 40.398438 C 36.398438 43.800781 33.101563 43.898438 31.800781 43 C 30.5 41.800781 31.5 38 33.300781 36 C 35.300781 33.699219 37.5 32.199219 39 33.398438 C 39.898438 34.398438 40.5 38.101563 38.800781 40.398438 Z M 40.699219 33.199219 C 38.601563 34.101563 36.898438 22.898438 39.5 23.601563 C 43.699219 26.101563 42.898438 31.398438 40.699219 33.199219 Z "/>
</g>
</svg>
