<?xml version="1.0" encoding="UTF-8" standalone="no"?>
<svg
   xmlns:dc="http://purl.org/dc/elements/1.1/"
   xmlns:cc="http://creativecommons.org/ns#"
   xmlns:rdf="http://www.w3.org/1999/02/22-rdf-syntax-ns#"
   xmlns:svg="http://www.w3.org/2000/svg"
   xmlns="http://www.w3.org/2000/svg"
   version="1.1"
   id="svg2"
   preserveAspectRatio="xMinYMin meet"
   viewBox="0 0 259.16133 236.19955"
   height="2306.2402"
   width="2530.8723">
  <metadata
     id="metadata22">
    <rdf:RDF>
      <cc:Work
         rdf:about="">
        <dc:format>image/svg+xml</dc:format>
        <dc:type
           rdf:resource="http://purl.org/dc/dcmitype/StillImage" />
        <dc:title></dc:title>
      </cc:Work>
    </rdf:RDF>
  </metadata>
  <defs
     id="defs20" />
  <path
     style="fill:#222222;fill-opacity:1;stroke:#ffffff;stroke-width:4.09670353;stroke-linecap:round;stroke-linejoin:round;stroke-miterlimit:4;stroke-dasharray:none;stroke-opacity:1"
     id="path4"
     d="m 140.97535,72.914326 0,-39.968 58.363,29.522 0.004,57.783004 -23.212,-11.2 0,-18.160003 -35.154,-17.977001" />
  <path
     style="fill:#222222;fill-opacity:1;stroke:#ffffff;stroke-width:4.09670353;stroke-linecap:round;stroke-linejoin:round;stroke-miterlimit:4;stroke-dasharray:none;stroke-opacity:1"
     id="path6"
     d="m 218.16035,110.84433 15.124,7.733 -57.012,28.51 -0.143,-38.036 23.212,11.2 18.82,-9.407" />
  <path
     style="fill:#222222;fill-opacity:1;stroke:#ffffff;stroke-width:4.09670353;stroke-linecap:round;stroke-linejoin:round;stroke-miterlimit:4;stroke-dasharray:none;stroke-opacity:1"
     id="path8"
     d="m 140.97535,48.925326 -23.792,11.82 23.792,12.17 0,-23.99" />
  <path
     style="fill:#222222;fill-opacity:1;stroke:#ffffff;stroke-width:4.09670353;stroke-linecap:round;stroke-linejoin:round;stroke-miterlimit:4;stroke-dasharray:none;stroke-opacity:1"
     id="path10"
     d="m 118.33235,176.36133 -0.487,-57.574 L 59.951352,89.970327 2.0483518,61.376326 l 0,58.410004 0.019,0.01 0.559,56.57 55.9870002,27.995 1.68,0.839 0.117,0.056 57.931998,28.895 0,-57.785 -0.01,-0.005" />
  <path
     style="fill:#222222;fill-opacity:1;stroke:#ffffff;stroke-width:4.09670353;stroke-linecap:round;stroke-linejoin:round;stroke-miterlimit:4;stroke-dasharray:none;stroke-opacity:1"
     id="path12"
     d="m 233.28435,118.57833 -57.155,28.583 0,-56.270003 -58.284,27.896003 0.497,58.787 0,56.577 57.787,-28.895 0,-0.317 57.155,-28.573 0,-57.789" />
  <path
     style="fill:#222222;fill-opacity:1;stroke:#ffffff;stroke-width:4.09670353;stroke-linecap:round;stroke-linejoin:round;stroke-miterlimit:4;stroke-dasharray:none;stroke-opacity:1"
     id="path14"
     d="m 257.13135,91.361327 -57.79,28.890003 0,-57.783004 57.79,-28.897 0,57.790001" />
  <path
     style="fill:#222222;fill-opacity:1;stroke:#ffffff;stroke-width:4.09670353;stroke-linecap:round;stroke-linejoin:round;stroke-miterlimit:4;stroke-dasharray:none;stroke-opacity:1"
     id="path16"
     d="m 140.97535,32.946326 58.363,29.522 57.794,-28.897 -58.945,-30.1499999 -39.823,20.5509999 -42.862,-21.9239999 -58.109998,30.2549999 -55.3440002,29.073 57.9030002,28.594001 57.893998,28.817003 58.284,-27.895003 -58.946,-30.146001 -0.76,0.392 -0.147,-0.074 0.907,-0.318 23.792,-11.82 0,-15.98" />
  <path
     id="path4161"
     d="M 142.25927,32.576043 164.56626,20.783214"
     style="fill:#222222;fill-opacity:1;fill-rule:evenodd;stroke:#ffffff;stroke-width:4.39565516;stroke-linecap:round;stroke-linejoin:round;stroke-miterlimit:4;stroke-dasharray:none;stroke-opacity:1" />
</svg>
