<?xml version="1.0" encoding="UTF-8" standalone="no"?>
<svg
   xmlns:dc="http://purl.org/dc/elements/1.1/"
   xmlns:cc="http://creativecommons.org/ns#"
   xmlns:rdf="http://www.w3.org/1999/02/22-rdf-syntax-ns#"
   xmlns:svg="http://www.w3.org/2000/svg"
   xmlns="http://www.w3.org/2000/svg"
   height="18.12892"
   width="159.43524"
   id="svg34"
   xml:space="preserve"
   viewBox="0 0 159.43524 18.12892"
   y="0px"
   x="0px"
   version="1.1"><metadata
     id="metadata40"><rdf:RDF><cc:Work
         rdf:about=""><dc:format>image/svg+xml</dc:format><dc:type
           rdf:resource="http://purl.org/dc/dcmitype/StillImage" /><dc:title></dc:title></cc:Work></rdf:RDF></metadata><defs
     id="defs38" /><g
     transform="translate(-29.812327,-29.162912)"
     id="servicenow"><g
       id="g30"><path
         id="path2"
         d="m 182.637,41.635 c -0.365,-0.39 -0.384,-0.743 -0.482,-1.057 -0.744,-2.385 -1.468,-4.776 -2.217,-7.16 -0.364,-1.16 -0.994,-1.546 -2.412,-1.545 -1.422,10e-4 -2.09,0.411 -2.447,1.529 -0.441,1.38 -0.866,2.765 -1.304,4.146 -0.437,1.377 -0.883,2.752 -1.402,4.366 -0.136,-0.505 -0.209,-0.74 -0.263,-0.978 -0.716,-3.19 -1.415,-6.383 -2.15,-9.568 -0.47,-2.037 -1.98,-2.634 -3.768,-1.576 -0.612,0.362 -0.763,0.774 -0.57,1.454 1.347,4.744 2.664,9.496 3.994,14.244 0.36,1.284 0.822,1.633 2.178,1.679 1.771,0.06 2.305,-0.22 2.757,-1.549 0.627,-1.839 1.216,-3.69 1.827,-5.534 0.32,-0.965 0.651,-1.925 1.007,-2.977 0.347,0.391 0.386,0.734 0.488,1.05 0.8,2.494 1.591,4.99 2.403,7.48 0.38,1.166 0.816,1.487 2.016,1.525 0.462,0.014 0.927,-0.01 1.387,-0.057 0.758,-0.077 1.232,-0.503 1.435,-1.241 1.358,-4.934 2.715,-9.869 4.081,-14.801 0.145,-0.524 -0.012,-0.875 -0.446,-1.189 -1.696,-1.226 -3.386,-0.582 -3.832,1.46 -0.744,3.401 -1.505,6.799 -2.28,10.299 z M 134.251,31.468 c -0.718,-1.604 -1.536,-2.155 -2.811,-1.968 -0.799,0.117 -1.212,0.42 -1.201,1.376 0.056,4.698 0.023,9.398 0.027,14.097 0,0.338 0.017,0.682 0.08,1.013 0.1,0.523 0.436,0.898 0.921,1.082 1.767,0.668 3.036,-0.198 3.044,-2.08 0.012,-2.782 0.061,-5.566 -0.023,-8.346 -0.04,-1.32 0.56,-2.174 1.526,-2.869 1.737,-1.25 4.17,-1.118 5.326,0.271 0.662,0.795 0.884,1.752 0.887,2.764 0.008,2.813 -0.011,5.627 0.013,8.44 0.012,1.382 0.614,1.919 2.026,1.916 1.455,-0.003 2.039,-0.514 2.047,-1.884 0.017,-3.091 0.042,-6.184 -0.006,-9.274 -0.052,-3.306 -1.832,-5.803 -4.634,-6.497 -2.71,-0.671 -5.148,-0.136 -7.222,1.959 z m -12.71,7.668 c 0,0 0,-0.003 0,-0.005 1.979,0 3.958,-0.009 5.937,0.005 0.759,0.005 1.175,-0.333 1.184,-1.094 0.078,-6.43 -4.614,-9.793 -10.01,-8.625 -5.842,1.265 -8.169,7.91 -5.813,12.992 2.838,6.123 11.027,5.707 14.275,2.584 0.384,-0.369 0.708,-0.782 0.898,-1.279 0.281,-0.733 -0.027,-1.488 -0.695,-1.918 -0.768,-0.495 -1.115,-0.046 -1.554,0.526 -1.658,2.156 -3.951,2.517 -6.42,1.995 -2.379,-0.503 -3.758,-2.102 -4.336,-4.439 -0.14,-0.567 -0.022,-0.764 0.597,-0.753 1.979,0.032 3.958,0.011 5.937,0.011 z M 54.287,39.135 c 1.947,0 3.895,0.001 5.842,0 0.595,0 1.15,-0.089 1.206,-0.84 0.215,-2.888 -0.843,-6.561 -4.194,-8.255 -3.553,-1.795 -8.119,-0.753 -10.531,2.378 -2.629,3.414 -2.557,8.777 0.16,11.86 2.728,3.096 7.914,3.864 11.646,1.734 0.928,-0.53 1.766,-1.154 2.256,-2.128 0.405,-0.806 0.115,-1.604 -0.616,-2.085 -0.835,-0.548 -1.161,0.009 -1.61,0.582 -1.654,2.11 -3.927,2.438 -6.356,1.943 -2.347,-0.479 -3.718,-2.059 -4.334,-4.336 -0.166,-0.614 -0.031,-0.885 0.69,-0.869 1.945,0.045 3.893,0.016 5.841,0.016 z m 101.746,8.034 c 2.18,0.005 3.818,-0.379 5.063,-1.085 4.256,-2.412 5.789,-8.113 3.341,-12.425 -0.353,-0.623 -0.75,-1.211 -1.397,-1.569 -0.816,-0.451 -1.798,-0.181 -2.594,0.589 -0.738,0.712 -0.271,1.247 0.13,1.853 0.842,1.275 1.229,2.678 1.128,4.215 -0.159,2.417 -1.772,4.384 -4.003,4.85 -2.352,0.491 -4.605,-0.549 -5.629,-2.723 -1.077,-2.286 -0.845,-4.521 0.662,-6.547 0.56,-0.752 0.439,-1.265 -0.183,-1.817 -1.247,-1.107 -2.709,-0.811 -3.66,0.877 -1.776,3.153 -1.753,6.392 -0.039,9.541 1.618,2.975 4.347,4.139 7.181,4.241 z M 36.584,47.19 c 1.81,-10e-4 3.333,-0.216 4.704,-1.031 1.717,-1.021 2.569,-2.556 2.494,-4.55 -0.075,-1.973 -1.262,-3.141 -2.988,-3.853 -0.483,-0.199 -0.981,-0.373 -1.486,-0.507 -1.49,-0.395 -3.001,-0.717 -4.478,-1.157 -1.21,-0.361 -1.744,-1.023 -1.745,-1.897 0,-1.002 0.637,-1.826 1.861,-2.139 2.435,-0.623 4.682,-0.37 6.367,1.75 0.36,0.453 0.703,0.416 1.125,0.212 1.065,-0.516 1.211,-1.72 0.334,-2.729 -2.378,-2.736 -8.728,-2.834 -11.18,-0.173 -2.337,2.536 -1.567,6.106 1.605,7.448 0.799,0.338 1.637,0.546 2.478,0.745 1.379,0.326 2.81,0.481 4.096,1.122 1.464,0.729 1.555,2.531 0.206,3.468 -0.362,0.251 -0.757,0.435 -1.18,0.518 -2.687,0.522 -5.106,0.113 -6.99,-2.075 -0.208,-0.242 -0.377,-0.455 -0.768,-0.354 -0.902,0.232 -1.428,1.098 -1.154,1.999 0.208,0.683 0.688,1.169 1.246,1.569 1.703,1.219 3.65,1.603 5.453,1.634 z m 58.09,-7.996 c 0.042,2.122 1.218,4.717 3.871,6.544 3.402,2.342 8.713,1.819 11.321,-1.101 0.566,-0.634 1.007,-1.344 1.056,-2.216 0.048,-0.846 -0.452,-1.26 -1.215,-1.515 -0.725,-0.242 -0.907,0.225 -1.165,0.703 -1.428,2.647 -4.635,3.685 -7.421,2.414 -2.494,-1.139 -3.812,-3.765 -3.444,-6.866 0.319,-2.69 2.176,-4.709 4.789,-5.207 2.648,-0.504 4.828,0.535 6.151,3.018 0.434,0.815 0.976,0.599 1.543,0.327 0.754,-0.362 0.974,-1.105 0.604,-2.08 -0.531,-1.4 -1.569,-2.374 -2.877,-3.014 -5.977,-2.926 -13.208,0.617 -13.213,8.993 z m -13.255,4.232 c -0.347,-0.283 -0.379,-0.602 -0.484,-0.88 -1.421,-3.75 -2.837,-7.503 -4.258,-11.253 -0.197,-0.519 -0.386,-1.045 -0.773,-1.465 -0.565,-0.613 -1.471,-0.729 -2.203,-0.308 -0.827,0.475 -0.447,1.066 -0.204,1.674 1.949,4.872 3.907,9.741 5.817,14.629 0.383,0.981 0.967,1.411 2.015,1.382 1.01,-0.028 1.664,-0.385 2.048,-1.38 1.889,-4.896 3.819,-9.777 5.747,-14.659 0.247,-0.624 0.544,-1.21 -0.258,-1.668 -0.692,-0.396 -1.571,-0.271 -2.108,0.34 -0.311,0.354 -0.488,0.782 -0.652,1.217 -1.552,4.098 -3.105,8.196 -4.687,12.371 z M 65.718,31.232 c -0.21,-0.474 -0.311,-0.84 -0.515,-1.136 -0.47,-0.682 -1.165,-0.744 -1.904,-0.562 -0.685,0.169 -0.534,0.734 -0.535,1.21 -0.003,4.887 -0.003,9.774 -0.001,14.661 0.001,1.334 0.354,1.767 1.44,1.785 1.112,0.019 1.491,-0.441 1.493,-1.823 0.003,-2.196 -0.018,-4.392 0.008,-6.588 0.021,-1.83 0.137,-3.654 1.139,-5.273 0.911,-1.473 2.627,-1.946 4.1,-1.065 0.686,0.41 1.019,0.182 1.3,-0.418 0.569,-1.215 -0.141,-2.496 -1.585,-2.744 -1.977,-0.34 -3.674,0.165 -4.94,1.953 z m 24.74,6.961 h 0.003 c 0,2.439 -0.005,4.878 0.002,7.317 0.004,1.245 0.389,1.683 1.441,1.681 1.089,-0.002 1.489,-0.422 1.49,-1.629 0.006,-4.878 0.006,-9.756 -0.001,-14.634 -0.002,-1.173 -0.47,-1.675 -1.493,-1.66 -1.042,0.015 -1.439,0.476 -1.441,1.7 -0.004,2.409 -0.001,4.817 -0.001,7.225 z m 67.925,-3.339 c 0,-1.236 0.024,-2.472 -0.006,-3.707 -0.035,-1.427 -0.582,-1.967 -1.884,-1.941 -1.132,0.023 -1.663,0.631 -1.669,1.968 -0.011,2.441 -0.01,4.882 0,7.323 0.005,1.263 0.607,1.91 1.74,1.918 1.159,0.008 1.779,-0.596 1.812,-1.852 0.033,-1.237 0.008,-2.473 0.007,-3.709 z"
         style="fill:#ffffff" /><path
         id="path4"
         d="m 182.637,41.635 c 0.775,-3.499 1.536,-6.897 2.278,-10.299 0.446,-2.042 2.136,-2.686 3.832,-1.46 0.435,0.314 0.591,0.665 0.446,1.189 -1.366,4.932 -2.723,9.866 -4.081,14.801 -0.203,0.737 -0.677,1.164 -1.435,1.241 -0.46,0.047 -0.926,0.071 -1.387,0.057 -1.2,-0.038 -1.636,-0.359 -2.016,-1.525 -0.812,-2.49 -1.603,-4.987 -2.403,-7.48 -0.101,-0.316 -0.141,-0.659 -0.488,-1.05 -0.356,1.051 -0.687,2.012 -1.007,2.977 -0.611,1.844 -1.201,3.695 -1.827,5.534 -0.453,1.328 -0.986,1.609 -2.757,1.549 -1.355,-0.046 -1.818,-0.395 -2.178,-1.679 -1.331,-4.748 -2.647,-9.5 -3.994,-14.244 -0.193,-0.68 -0.042,-1.091 0.57,-1.454 1.788,-1.058 3.298,-0.46 3.768,1.576 0.735,3.185 1.434,6.379 2.15,9.568 0.054,0.239 0.126,0.473 0.263,0.978 0.519,-1.615 0.964,-2.989 1.402,-4.366 0.438,-1.381 0.863,-2.766 1.304,-4.146 0.357,-1.118 1.025,-1.528 2.447,-1.529 1.418,-0.001 2.048,0.385 2.412,1.545 0.748,2.384 1.473,4.775 2.217,7.16 0.099,0.314 0.118,0.667 0.484,1.057 z"
         style="fill:#d02429" /><path
         id="path6"
         d="m 134.251,31.468 c 2.075,-2.095 4.512,-2.63 7.222,-1.96 2.802,0.694 4.582,3.191 4.634,6.497 0.048,3.091 0.023,6.183 0.006,9.274 -0.008,1.37 -0.591,1.881 -2.047,1.884 -1.412,0.003 -2.014,-0.534 -2.026,-1.916 -0.024,-2.813 -0.005,-5.626 -0.013,-8.44 -0.003,-1.011 -0.225,-1.968 -0.887,-2.764 -1.156,-1.389 -3.589,-1.52 -5.326,-0.271 -0.966,0.695 -1.565,1.549 -1.526,2.869 0.084,2.78 0.035,5.564 0.023,8.346 -0.008,1.881 -1.278,2.747 -3.044,2.08 -0.485,-0.183 -0.821,-0.559 -0.921,-1.082 -0.063,-0.331 -0.08,-0.675 -0.08,-1.013 -0.004,-4.699 0.028,-9.399 -0.027,-14.097 -0.011,-0.956 0.402,-1.259 1.201,-1.376 1.274,-0.186 2.092,0.365 2.811,1.969 z"
         style="fill:#d02328" /><path
         id="path8"
         d="m 121.541,39.136 c -1.979,0 -3.958,0.021 -5.937,-0.012 -0.619,-0.01 -0.737,0.186 -0.597,0.753 0.578,2.337 1.957,3.936 4.336,4.439 2.468,0.522 4.762,0.161 6.42,-1.995 0.439,-0.572 0.786,-1.021 1.554,-0.526 0.668,0.431 0.976,1.185 0.695,1.918 -0.191,0.497 -0.514,0.91 -0.898,1.279 -3.248,3.124 -11.437,3.539 -14.275,-2.584 -2.356,-5.082 -0.029,-11.727 5.813,-12.992 5.396,-1.168 10.088,2.196 10.01,8.625 -0.009,0.762 -0.425,1.099 -1.184,1.094 -1.979,-0.013 -3.958,-0.005 -5.937,-0.005 0,0.003 0,0.004 0,0.006 z m -1.237,-2.584 c 1.547,0 3.094,-0.01 4.64,0.007 0.426,0.005 0.655,-0.089 0.547,-0.568 -0.419,-1.865 -1.337,-3.322 -3.262,-3.923 -2.967,-0.927 -6.179,0.842 -7.036,3.824 -0.173,0.603 0.052,0.676 0.563,0.669 1.517,-0.021 3.033,-0.008 4.548,-0.009 z"
         style="fill:#6e6e6d" /><path
         id="path10"
         d="m 54.287,39.135 c -1.947,0 -3.895,0.029 -5.842,-0.015 -0.721,-0.016 -0.856,0.255 -0.69,0.869 0.615,2.277 1.987,3.858 4.334,4.336 2.428,0.495 4.702,0.167 6.356,-1.943 0.449,-0.573 0.775,-1.13 1.61,-0.582 0.731,0.48 1.021,1.279 0.616,2.085 -0.489,0.974 -1.328,1.598 -2.256,2.128 -3.731,2.13 -8.917,1.363 -11.646,-1.734 -2.717,-3.083 -2.789,-8.446 -0.16,-11.86 2.411,-3.131 6.978,-4.174 10.531,-2.378 3.351,1.694 4.409,5.366 4.194,8.255 -0.056,0.751 -0.611,0.839 -1.206,0.84 -1.947,0 -3.894,-0.001 -5.841,-0.001 z m -1.27,-2.582 c 1.514,0 3.029,-0.025 4.543,0.012 0.661,0.016 0.748,-0.18 0.607,-0.8 -0.556,-2.442 -2.337,-3.928 -4.803,-3.925 -2.584,0.003 -4.905,1.766 -5.438,4.091 -0.124,0.541 0.077,0.633 0.548,0.628 1.514,-0.018 3.028,-0.007 4.543,-0.006 z"
         style="fill:#6e6e6d" /><path
         id="path12"
         d="m 156.033,47.169 c -2.835,-0.102 -5.563,-1.266 -7.182,-4.24 -1.714,-3.149 -1.737,-6.389 0.039,-9.541 0.951,-1.687 2.413,-1.983 3.66,-0.877 0.622,0.552 0.743,1.065 0.183,1.817 -1.507,2.025 -1.738,4.261 -0.662,6.547 1.024,2.173 3.277,3.214 5.629,2.723 2.231,-0.466 3.844,-2.433 4.003,-4.85 0.101,-1.537 -0.286,-2.94 -1.128,-4.215 -0.4,-0.606 -0.867,-1.141 -0.13,-1.853 0.797,-0.77 1.778,-1.04 2.594,-0.589 0.647,0.358 1.044,0.947 1.397,1.569 2.449,4.313 0.915,10.013 -3.341,12.425 -1.244,0.704 -2.881,1.089 -5.062,1.084 z"
         style="fill:#d02429" /><path
         id="path14"
         d="m 36.584,47.19 c -1.803,-0.031 -3.751,-0.416 -5.452,-1.636 -0.558,-0.4 -1.039,-0.886 -1.246,-1.569 -0.274,-0.9 0.252,-1.767 1.154,-1.999 0.39,-0.1 0.56,0.113 0.768,0.354 1.884,2.188 4.303,2.598 6.99,2.075 0.424,-0.082 0.819,-0.267 1.18,-0.518 1.349,-0.937 1.258,-2.738 -0.206,-3.468 -1.286,-0.641 -2.718,-0.795 -4.096,-1.122 -0.842,-0.199 -1.679,-0.407 -2.478,-0.745 -3.172,-1.342 -3.942,-4.913 -1.605,-7.448 2.452,-2.661 8.802,-2.563 11.18,0.173 0.877,1.009 0.731,2.214 -0.334,2.729 -0.422,0.204 -0.765,0.241 -1.125,-0.212 -1.686,-2.12 -3.933,-2.372 -6.367,-1.75 -1.224,0.313 -1.862,1.137 -1.861,2.139 0,0.873 0.534,1.535 1.745,1.897 1.476,0.44 2.987,0.762 4.478,1.157 0.505,0.134 1.003,0.308 1.486,0.507 1.727,0.712 2.913,1.88 2.988,3.853 0.076,1.994 -0.777,3.529 -2.494,4.55 -1.372,0.817 -2.895,1.033 -4.705,1.033 z"
         style="fill:#6e6e6d" /><path
         id="path16"
         d="m 94.674,39.194 c 0.005,-8.375 7.236,-11.919 13.212,-8.994 1.308,0.64 2.346,1.614 2.877,3.014 0.37,0.975 0.15,1.718 -0.604,2.08 -0.566,0.272 -1.109,0.487 -1.543,-0.327 -1.322,-2.483 -3.503,-3.522 -6.151,-3.018 -2.613,0.498 -4.47,2.517 -4.789,5.207 -0.368,3.101 0.95,5.728 3.444,6.866 2.786,1.272 5.993,0.234 7.421,-2.414 0.258,-0.478 0.44,-0.945 1.165,-0.703 0.763,0.254 1.263,0.668 1.215,1.515 -0.049,0.872 -0.49,1.582 -1.056,2.216 -2.608,2.92 -7.919,3.443 -11.321,1.101 -2.652,-1.826 -3.829,-4.421 -3.87,-6.543 z"
         style="fill:#6e6e6d" /><path
         id="path18"
         d="m 81.419,43.426 c 1.582,-4.175 3.135,-8.273 4.686,-12.371 0.165,-0.435 0.341,-0.863 0.652,-1.217 0.537,-0.61 1.416,-0.735 2.108,-0.34 0.802,0.458 0.504,1.044 0.258,1.668 -1.927,4.882 -3.857,9.763 -5.747,14.659 -0.384,0.994 -1.038,1.351 -2.048,1.38 -1.048,0.029 -1.631,-0.401 -2.015,-1.382 -1.91,-4.888 -3.868,-9.757 -5.817,-14.629 -0.243,-0.607 -0.622,-1.199 0.204,-1.674 0.733,-0.421 1.638,-0.305 2.203,0.308 0.387,0.42 0.577,0.945 0.773,1.465 1.421,3.751 2.837,7.503 4.258,11.253 0.106,0.278 0.138,0.597 0.485,0.88 z"
         style="fill:#6f6f6d" /><path
         id="path20"
         d="m 65.718,31.232 c 1.266,-1.788 2.963,-2.293 4.94,-1.953 1.444,0.248 2.154,1.529 1.585,2.744 -0.281,0.6 -0.614,0.828 -1.3,0.418 -1.473,-0.881 -3.188,-0.408 -4.1,1.065 -1.002,1.619 -1.117,3.443 -1.139,5.273 -0.026,2.196 -0.005,4.392 -0.008,6.588 -0.002,1.381 -0.381,1.841 -1.493,1.823 -1.085,-0.018 -1.439,-0.451 -1.44,-1.785 -0.002,-4.887 -0.002,-9.774 0.001,-14.661 0,-0.476 -0.15,-1.041 0.535,-1.21 0.739,-0.182 1.434,-0.121 1.904,0.562 0.204,0.296 0.305,0.662 0.515,1.136 z"
         style="fill:#6e6e6d" /><path
         id="path22"
         d="m 90.458,38.193 c 0,-2.408 -0.003,-4.816 0.001,-7.224 0.002,-1.224 0.399,-1.685 1.441,-1.7 1.023,-0.015 1.492,0.487 1.493,1.66 0.007,4.878 0.007,9.756 0.001,14.634 -0.001,1.207 -0.401,1.627 -1.49,1.629 -1.052,0.002 -1.438,-0.436 -1.441,-1.681 -0.007,-2.439 -0.002,-4.878 -0.002,-7.317 h -0.003 z"
         style="fill:#6f6f6d" /><path
         id="path24"
         d="m 158.384,34.854 c 0,1.236 0.026,2.472 -0.007,3.707 -0.033,1.256 -0.653,1.861 -1.812,1.852 -1.133,-0.008 -1.735,-0.655 -1.74,-1.918 -0.01,-2.441 -0.011,-4.882 0,-7.323 0.006,-1.337 0.537,-1.945 1.669,-1.968 1.301,-0.026 1.849,0.514 1.884,1.941 0.029,1.237 0.005,2.473 0.006,3.709 z"
         style="fill:#d02328" /><path
         id="path26"
         d="m 120.304,36.553 c -1.516,0 -3.032,-0.013 -4.547,0.008 -0.511,0.007 -0.736,-0.066 -0.563,-0.669 0.856,-2.982 4.069,-4.751 7.036,-3.824 1.924,0.601 2.843,2.058 3.262,3.923 0.108,0.48 -0.122,0.573 -0.547,0.568 -1.547,-0.017 -3.094,-0.007 -4.641,-0.006 z"
         style="fill:#fafbfb" /><path
         id="path28"
         d="m 53.017,36.553 c -1.514,0 -3.029,-0.011 -4.543,0.006 -0.472,0.005 -0.672,-0.087 -0.548,-0.628 0.533,-2.326 2.854,-4.088 5.438,-4.091 2.466,-0.003 4.248,1.483 4.803,3.925 0.141,0.62 0.054,0.816 -0.607,0.8 -1.514,-0.037 -3.029,-0.012 -4.543,-0.012 z"
         style="fill:#fafbfb" /></g></g><g
     transform="translate(-29.812327,-29.162912)"
     id="Layer_1" /></svg>