<?xml version="1.0" encoding="UTF-8" standalone="no"?>
<svg
   xmlns:dc="http://purl.org/dc/elements/1.1/"
   xmlns:cc="http://creativecommons.org/ns#"
   xmlns:rdf="http://www.w3.org/1999/02/22-rdf-syntax-ns#"
   xmlns:svg="http://www.w3.org/2000/svg"
   xmlns="http://www.w3.org/2000/svg"
   id="svg24"
   version="1.1"
   viewBox="1.464 25.444 147.24495 146.36492"
   height="734.61987"
   width="738.95593">
  <metadata
     id="metadata30">
    <rdf:RDF>
      <cc:Work
         rdf:about="">
        <dc:format>image/svg+xml</dc:format>
        <dc:type
           rdf:resource="http://purl.org/dc/dcmitype/StillImage" />
        <dc:title>background</dc:title>
      </cc:Work>
    </rdf:RDF>
  </metadata>
  <defs
     id="defs28" />
  <title
     id="title2">background</title>
  <title
     id="title4">Layer 1</title>
  <path
     style="fill:#70cadb"
     id="path8"
     d="M 13.996969,102.92219 C 8.5029691,102.96419 3.8489691,99.690191 2.1329691,94.580191 a 13.67,13.67 0 0 1 -0.178,-0.583 c -1.87000003,-6.544 1.756,-13.39 8.2549999,-15.582 l 104.240001,-34.923 a 14.128,14.128 0 0 1 3.807,-0.556 c 5.64,-0.044 10.422,3.302 12.18,8.52 l 0.156,0.504 c 1.95,6.816 -2.895,12.9 -8.7,14.85 -0.004,0.003 -1.06,0.36 -103.662001,35.390999 a 13.49,13.49 0 0 1 -4.234,0.721 z" />
  <path
     style="fill:#e01765"
     id="path10"
     d="m 31.371969,154.18719 c -5.537,0.04 -10.207,-3.188 -11.903,-8.225 a 13.34,13.34 0 0 1 -0.18,-0.579 c -1.896,-6.622 1.726,-13.54 8.247,-15.735 L 131.77997,94.405191 c 1.347,-0.45 2.738,-0.68 4.137,-0.693 5.552,-0.042 10.43,3.35 12.151,8.443999 l 0.16,0.53 c 1.007,3.521 0.412,7.478 -1.59,10.601 -1.492,2.322 -6.198,4.366 -6.198,4.366 l -104.640001,35.779 a 14.356,14.356 0 0 1 -4.428,0.757 z" />
  <path
     style="fill:#e8a723"
     id="path12"
     d="m 118.14797,154.41019 a 12.798,12.798 0 0 1 -12.255,-8.723 L 71.102969,42.347191 l -0.174,-0.58 c -1.885,-6.59 1.74,-13.464 8.237,-15.654 1.3,-0.437 2.644,-0.665 3.997,-0.677 2.01,-0.015 3.955,0.438 5.787,1.343 a 12.772,12.772 0 0 1 6.449,7.392 l 34.787001,103.330999 0.101,0.332 c 1.954,6.842 -1.663,13.72 -8.16,15.91 a 12.935,12.935 0 0 1 -3.979,0.666 z" />
  <path
     style="fill:#3eb890"
     id="path14"
     d="m 66.434969,171.81619 a 12.803,12.803 0 0 1 -12.26,-8.73 l -34.781,-103.335999 a 12.797,12.797 0 0 1 8.051,-16.23 12.96,12.96 0 0 1 3.985,-0.668 12.796,12.796 0 0 1 12.257,8.723 l 34.782,103.339999 a 12.797,12.797 0 0 1 -8.06,16.233 12.88,12.88 0 0 1 -3.978,0.667 h 0.004 z" />
  <path
     style="fill:#cc2027"
     id="path16"
     d="m 100.99697,131.13819 24.258,-8.294 -7.93,-23.549999 -24.286001,8.206999 z" />
  <path
     style="fill:#361238"
     id="path18"
     d="m 49.363969,148.79219 24.256,-8.293 -7.99,-23.73 -24.28,8.21 z" />
  <path
     style="fill:#65863a"
     id="path20"
     d="m 83.726969,79.842191 24.260001,-8.283 -7.837,-23.275 -24.305001,8.143 z" />
  <path
     style="fill:#1a937d"
     id="path22"
     d="m 32.087969,97.472191 24.26,-8.283 -7.933,-23.572 -24.305,8.142 z" />
</svg>
