<?xml version="1.0" encoding="UTF-8" standalone="no"?>
<!-- Created with Inkscape (http://www.inkscape.org/) -->
<svg xmlns:rdf="http://www.w3.org/1999/02/22-rdf-syntax-ns#" xmlns="http://www.w3.org/2000/svg" version="1.1" xmlns:cc="http://creativecommons.org/ns#" xmlns:dc="http://purl.org/dc/elements/1.1/" viewBox="0 0 213.5 108.2">
 <metadata>
  <rdf:RDF>
   <cc:Work rdf:about="">
    <dc:format>image/svg+xml</dc:format>
    <dc:type rdf:resource="http://purl.org/dc/dcmitype/StillImage"/>
    <dc:title/>
   </cc:Work>
  </rdf:RDF>
 </metadata>
 <g fill-rule="evenodd" transform="translate(-268.24429,-481.98068)" fill="#f0401f">
  <path d="m376.4,586.2-20.62-48.46,21.62,0-11.03-25.43-17.06,35.53-12.34,0,29.4-61.82,26.48,61.82-22.16,0,5.712,38.36,0,0"/>
  <path d="m289.4,549.3c-8.981,0-13.65-5.226-17.11-12.66l8.332-5.69c2.892,5.688,5.629,7.773,8.775,7.773,3.748,0,6.085-2.92,6.085-5.611-0.0005-3.577-3.213-6.15-9.345-11.92-9.397-8.845-11.44-13.12-11.44-18.64,0-7.044,5.534-14.57,14.4-14.57,7.228,0,11.26,4.524,15.23,9.34l-7.36,7.296c-3.049-4.461-5.66-6.04-8.07-6.04-2.765,0-4.33,2.158-4.33,3.859,0,3.001,1.594,3.926,9.827,11.84,4.196,4.032,10.86,9.146,10.86,18.45,0,9.553-6.484,16.57-15.85,16.57"/>
  <path d="m314.7,548,0-58.52,11.6,0c5.671,0,19.64,0,19.64,16.92,0,16.72-14.65,16.72-19.64,16.72h-1.542l0.0205,24.87h-10.08zm10.06-35.69,0-11.87,2.76,0c3.766,0,8.742,0.001,8.742,5.964,0,5.906-4.976,5.906-8.742,5.906h-2.76"/>
  <path d="m397.7,547.8,0-57.1,12.24,0.001c4.112,0,18.31,0,18.31,16.65,0,7.521-3.072,12.3-9.732,15.1l12.12,25.35h-10.74l-11.43-24.15h-0.9425v24.15h-9.822zm9.822-34.74,0-11.82,3.68,0c2.134,0,7.511,0,7.511,5.99,0,5.831-5.378,5.831-7.511,5.831h-3.68"/>
  <path d="m463.6,489.3c5.615,0,10.34,1.486,14.16,4.078v12.86c-4.338-3.976-8.081-6.444-14.45-6.444-10.58,0-17.55,8.734-17.55,19.52s6.976,19.52,17.55,19.52c6.37,0,10.3-2.806,14.45-6.933l0.001,13.25c-3.814,2.631-8.544,4.147-14.16,4.147-16.83,0-27.62-13.3-27.62-30s10.79-30,27.62-30"/>
 </g>
</svg>
