<?xml version="1.0" encoding="UTF-8" standalone="no"?>
<svg
   xmlns:dc="http://purl.org/dc/elements/1.1/"
   xmlns:cc="http://creativecommons.org/ns#"
   xmlns:rdf="http://www.w3.org/1999/02/22-rdf-syntax-ns#"
   xmlns:svg="http://www.w3.org/2000/svg"
   xmlns="http://www.w3.org/2000/svg"
   id="svg833"
   version="1.1"
   viewBox="0 0 54.010784 24.797594"
   height="24.797594mm"
   width="54.010784mm">
  <defs
     id="defs827" />
  <metadata
     id="metadata830">
    <rdf:RDF>
      <cc:Work
         rdf:about="">
        <dc:format>image/svg+xml</dc:format>
        <dc:type
           rdf:resource="http://purl.org/dc/dcmitype/StillImage" />
        <dc:title></dc:title>
      </cc:Work>
    </rdf:RDF>
  </metadata>
  <g
     transform="translate(-63.367161,-86.261928)"
     id="layer1">
    <rect
       ry="3.7998481"
       y="86.609039"
       x="63.714272"
       height="17.859287"
       width="53.316563"
       id="rect1412"
       style="opacity:1;fill:#ffffff;fill-opacity:1;stroke:#f0401f;stroke-width:0.69422185;stroke-miterlimit:4;stroke-dasharray:none;stroke-opacity:1" />
    <g
       id="g14"
       transform="matrix(0.23251308,0,0,0.23251308,2.6780436,-25.239645)"
       style="fill:#f0401f;fill-rule:evenodd">
      <path
         id="path4"
         d="m 376.4,586.2 -20.62,-48.46 h 21.62 l -11.03,-25.43 -17.06,35.53 h -12.34 l 29.4,-61.82 26.48,61.82 h -22.16 l 5.712,38.36 v 0" />
      <path
         id="path6"
         d="m 289.4,549.3 c -8.981,0 -13.65,-5.226 -17.11,-12.66 l 8.332,-5.69 c 2.892,5.688 5.629,7.773 8.775,7.773 3.748,0 6.085,-2.92 6.085,-5.611 -5e-4,-3.577 -3.213,-6.15 -9.345,-11.92 -9.397,-8.845 -11.44,-13.12 -11.44,-18.64 0,-7.044 5.534,-14.57 14.4,-14.57 7.228,0 11.26,4.524 15.23,9.34 l -7.36,7.296 c -3.049,-4.461 -5.66,-6.04 -8.07,-6.04 -2.765,0 -4.33,2.158 -4.33,3.859 0,3.001 1.594,3.926 9.827,11.84 4.196,4.032 10.86,9.146 10.86,18.45 0,9.553 -6.484,16.57 -15.85,16.57" />
      <path
         id="path8"
         d="m 314.7,548 v -58.52 h 11.6 c 5.671,0 19.64,0 19.64,16.92 0,16.72 -14.65,16.72 -19.64,16.72 h -1.542 l 0.0205,24.87 h -10.08 z m 10.06,-35.69 v -11.87 h 2.76 c 3.766,0 8.742,10e-4 8.742,5.964 0,5.906 -4.976,5.906 -8.742,5.906 h -2.76" />
      <path
         id="path10"
         d="m 397.7,547.8 v -57.1 l 12.24,0.001 c 4.112,0 18.31,0 18.31,16.65 0,7.521 -3.072,12.3 -9.732,15.1 l 12.12,25.35 h -10.74 l -11.43,-24.15 h -0.9425 v 24.15 h -9.822 z m 9.822,-34.74 v -11.82 h 3.68 c 2.134,0 7.511,0 7.511,5.99 0,5.831 -5.378,5.831 -7.511,5.831 h -3.68" />
      <path
         id="path12"
         d="m 463.6,489.3 c 5.615,0 10.34,1.486 14.16,4.078 v 12.86 c -4.338,-3.976 -8.081,-6.444 -14.45,-6.444 -10.58,0 -17.55,8.734 -17.55,19.52 0,10.786 6.976,19.52 17.55,19.52 6.37,0 10.3,-2.806 14.45,-6.933 l 0.001,13.25 c -3.814,2.631 -8.544,4.147 -14.16,4.147 -16.83,0 -27.62,-13.3 -27.62,-30 0,-16.7 10.79,-30 27.62,-30" />
    </g>
  </g>
</svg>
