<?xml version="1.0" encoding="UTF-8" standalone="no"?>
<svg
   xmlns:dc="http://purl.org/dc/elements/1.1/"
   xmlns:cc="http://creativecommons.org/ns#"
   xmlns:rdf="http://www.w3.org/1999/02/22-rdf-syntax-ns#"
   xmlns:svg="http://www.w3.org/2000/svg"
   xmlns="http://www.w3.org/2000/svg"
   viewBox="0 0 55.205465 62.118929"
   height="62.118931"
   width="55.205463"
   xml:space="preserve"
   id="svg2"
   version="1.1"><metadata
     id="metadata8"><rdf:RDF><cc:Work
         rdf:about=""><dc:format>image/svg+xml</dc:format><dc:type
           rdf:resource="http://purl.org/dc/dcmitype/StillImage" /><dc:title></dc:title></cc:Work></rdf:RDF></metadata><defs
     id="defs6"><clipPath
       id="clipPath18"
       clipPathUnits="userSpaceOnUse"><path
         id="path16"
         d="m 6.998,7.392 h 109.08 V 96.455 H 6.998 Z" /></clipPath><clipPath
       id="clipPath44"
       clipPathUnits="userSpaceOnUse"><path
         id="path42"
         d="m 61.723,52.808 c -3.456,0.157 -6.115,1.034 -8.175,2.303 v 0 c 1.395,-6.055 6.612,-9.029 6.864,-9.17 v 0 l 1.538,-0.848 c 11.768,0.786 18.656,8.383 18.656,18.317 v 0 2.153 C 77.809,56.437 71.299,52.377 61.723,52.808" /></clipPath><linearGradient
       id="linearGradient54"
       spreadMethod="pad"
       gradientTransform="matrix(27.057007,0,0,27.057007,53.548492,55.328064)"
       gradientUnits="userSpaceOnUse"
       y2="0"
       x2="1"
       y1="0"
       x1="0"><stop
         id="stop50"
         offset="0"
         style="stop-opacity:1;stop-color:#656263" /><stop
         id="stop52"
         offset="1"
         style="stop-opacity:1;stop-color:#a7a5a6" /></linearGradient><clipPath
       id="clipPath66"
       clipPathUnits="userSpaceOnUse"><path
         id="path64"
         d="m 6.998,7.392 h 109.08 V 96.455 H 6.998 Z" /></clipPath></defs><g
     style="fill:#bebebe;fill-opacity:1"
     id="g12"
     transform="matrix(1.3333333,0,0,-1.3333333,-52.269332,122.14666)"><g
       style="fill:#bebebe;fill-opacity:1"
       id="g14"
       clip-path="url(#clipPath18)"><g
         style="fill:#bebebe;fill-opacity:1"
         id="g20"
         transform="translate(79.6021,65.8706)"><path
           d="m 0,0 1.004,3.275 v 22.437 c -11.734,0 -12.956,-4.499 -12.956,-8.796 v -24.64 c 0,-1.276 -0.124,-2.629 -0.382,-3.956 C -6.112,-10.547 -2.053,-6.701 0,0"
           style="fill:#bebebe;fill-opacity:1;fill-rule:nonzero;stroke:none"
           id="path22" /></g><path
         d="m 49.566,86.46 h -2.593 v 2.561 h 2.593 z"
         style="fill:#bebebe;fill-opacity:1;fill-rule:nonzero;stroke:none"
         id="path24" /><path
         d="m 52.156,82.59 h -2.59 v 2.563 h 2.59 z"
         style="fill:#bebebe;fill-opacity:1;fill-rule:nonzero;stroke:none"
         id="path26" /><path
         d="m 49.551,79.367 h -2.563 v 2.562 h 2.563 z"
         style="fill:#bebebe;fill-opacity:1;fill-rule:nonzero;stroke:none"
         id="path28" /><path
         d="m 46.96,75.525 h -2.562 v 2.562 h 2.562 z"
         style="fill:#bebebe;fill-opacity:1;fill-rule:nonzero;stroke:none"
         id="path30" /><path
         d="m 41.792,89.021 h -2.59 v 2.589 h 2.59 z"
         style="fill:#bebebe;fill-opacity:1;fill-rule:nonzero;stroke:none"
         id="path32" /><g
         style="fill:#bebebe;fill-opacity:1"
         id="g34"
         transform="translate(44.3853,72.9648)"><path
           d="m 0,0 h 2.587 v -5.707 h 2.594 v 9.548 h 2.59 v -18.659 c 0,-8.855 7.749,-13.126 7.749,-13.126 -13.017,0 -20.703,7.891 -20.703,18.39 V 11.56 h 2.589 V -2.562 H 0 Z"
           style="fill:#bebebe;fill-opacity:1;fill-rule:nonzero;stroke:none"
           id="path36" /></g></g></g><g
     style="fill:#bebebe;fill-opacity:1"
     id="g38"
     transform="matrix(1.3333333,0,0,-1.3333333,-52.269332,122.14666)"><g
       style="fill:#bebebe;fill-opacity:1"
       id="g40"
       clip-path="url(#clipPath44)"><g
         style="fill:#bebebe;fill-opacity:1"
         id="g46"><g
           style="fill:#bebebe;fill-opacity:1"
           id="g48"><path
             d="m 61.723,52.808 c -3.456,0.157 -6.115,1.034 -8.175,2.303 v 0 c 1.395,-6.055 6.612,-9.029 6.864,-9.17 v 0 l 1.538,-0.848 c 11.768,0.786 18.656,8.383 18.656,18.317 v 0 2.153 C 77.809,56.437 71.299,52.377 61.723,52.808"
             style="fill:#bebebe;stroke:none;fill-opacity:1"
             id="path56" /></g></g></g></g><path
     d="M 10.341333,10.317333 H 6.928 V 6.9013336 h 3.413333 z"
     style="fill:#bebebe;fill-opacity:1;fill-rule:nonzero;stroke:none;stroke-width:1.33333325"
     id="path58" /></svg>