<?xml version="1.0" encoding="UTF-8" standalone="no"?>
<svg
   xmlns:dc="http://purl.org/dc/elements/1.1/"
   xmlns:cc="http://creativecommons.org/ns#"
   xmlns:rdf="http://www.w3.org/1999/02/22-rdf-syntax-ns#"
   xmlns:svg="http://www.w3.org/2000/svg"
   xmlns="http://www.w3.org/2000/svg"
   version="1.1"
   id="svg2"
   xml:space="preserve"
   width="55.205463"
   height="62.118931"
   viewBox="0 0 55.205465 62.118929"><metadata
     id="metadata8"><rdf:RDF><cc:Work
         rdf:about=""><dc:format>image/svg+xml</dc:format><dc:type
           rdf:resource="http://purl.org/dc/dcmitype/StillImage" /><dc:title></dc:title></cc:Work></rdf:RDF></metadata><defs
     id="defs6"><clipPath
       clipPathUnits="userSpaceOnUse"
       id="clipPath18"><path
         d="m 6.998,7.392 h 109.08 V 96.455 H 6.998 Z"
         id="path16" /></clipPath><clipPath
       clipPathUnits="userSpaceOnUse"
       id="clipPath44"><path
         d="m 61.723,52.808 c -3.456,0.157 -6.115,1.034 -8.175,2.303 v 0 c 1.395,-6.055 6.612,-9.029 6.864,-9.17 v 0 l 1.538,-0.848 c 11.768,0.786 18.656,8.383 18.656,18.317 v 0 2.153 C 77.809,56.437 71.299,52.377 61.723,52.808"
         id="path42" /></clipPath><linearGradient
       x1="0"
       y1="0"
       x2="1"
       y2="0"
       gradientUnits="userSpaceOnUse"
       gradientTransform="matrix(27.057007,0,0,27.057007,53.548492,55.328064)"
       spreadMethod="pad"
       id="linearGradient54"><stop
         style="stop-opacity:1;stop-color:#656263"
         offset="0"
         id="stop50" /><stop
         style="stop-opacity:1;stop-color:#a7a5a6"
         offset="1"
         id="stop52" /></linearGradient><clipPath
       clipPathUnits="userSpaceOnUse"
       id="clipPath66"><path
         d="m 6.998,7.392 h 109.08 V 96.455 H 6.998 Z"
         id="path64" /></clipPath></defs><g
     transform="matrix(1.3333333,0,0,-1.3333333,-52.269332,122.14666)"
     id="g12"
     style="fill:#bebebe;fill-opacity:1"><g
       clip-path="url(#clipPath18)"
       id="g14"
       style="fill:#bebebe;fill-opacity:1"><g
         transform="translate(79.6021,65.8706)"
         id="g20"
         style="fill:#bebebe;fill-opacity:1"><path
           id="path22"
           style="fill:#bebebe;fill-opacity:1;fill-rule:nonzero;stroke:none"
           d="m 0,0 1.004,3.275 v 22.437 c -11.734,0 -12.956,-4.499 -12.956,-8.796 v -24.64 c 0,-1.276 -0.124,-2.629 -0.382,-3.956 C -6.112,-10.547 -2.053,-6.701 0,0" /></g><path
         id="path24"
         style="fill:#bebebe;fill-opacity:1;fill-rule:nonzero;stroke:none"
         d="m 49.566,86.46 h -2.593 v 2.561 h 2.593 z" /><path
         id="path26"
         style="fill:#bebebe;fill-opacity:1;fill-rule:nonzero;stroke:none"
         d="m 52.156,82.59 h -2.59 v 2.563 h 2.59 z" /><path
         id="path28"
         style="fill:#bebebe;fill-opacity:1;fill-rule:nonzero;stroke:none"
         d="m 49.551,79.367 h -2.563 v 2.562 h 2.563 z" /><path
         id="path30"
         style="fill:#bebebe;fill-opacity:1;fill-rule:nonzero;stroke:none"
         d="m 46.96,75.525 h -2.562 v 2.562 h 2.562 z" /><path
         id="path32"
         style="fill:#bebebe;fill-opacity:1;fill-rule:nonzero;stroke:none"
         d="m 41.792,89.021 h -2.59 v 2.589 h 2.59 z" /><g
         transform="translate(44.3853,72.9648)"
         id="g34"
         style="fill:#bebebe;fill-opacity:1"><path
           id="path36"
           style="fill:#bebebe;fill-opacity:1;fill-rule:nonzero;stroke:none"
           d="m 0,0 h 2.587 v -5.707 h 2.594 v 9.548 h 2.59 v -18.659 c 0,-8.855 7.749,-13.126 7.749,-13.126 -13.017,0 -20.703,7.891 -20.703,18.39 V 11.56 h 2.589 V -2.562 H 0 Z" /></g></g></g><g
     transform="matrix(1.3333333,0,0,-1.3333333,-52.269332,122.14666)"
     id="g38"
     style="fill:#bebebe;fill-opacity:1"><g
       clip-path="url(#clipPath44)"
       id="g40"
       style="fill:#bebebe;fill-opacity:1"><g
         id="g46"
         style="fill:#bebebe;fill-opacity:1"><g
           id="g48"
           style="fill:#bebebe;fill-opacity:1"><path
             id="path56"
             style="fill:#bebebe;fill-opacity:1;stroke:none"
             d="m 61.723,52.808 c -3.456,0.157 -6.115,1.034 -8.175,2.303 v 0 c 1.395,-6.055 6.612,-9.029 6.864,-9.17 v 0 l 1.538,-0.848 c 11.768,0.786 18.656,8.383 18.656,18.317 v 0 2.153 C 77.809,56.437 71.299,52.377 61.723,52.808" /></g></g></g></g><path
     id="path58"
     style="fill:#bebebe;fill-opacity:1;fill-rule:nonzero;stroke:none;stroke-width:1.33333325"
     d="M 10.341333,10.317337 H 6.928 V 6.9013372 h 3.413333 z" /></svg>