<?xml version="1.0" encoding="UTF-8" standalone="no"?>
<svg
   xmlns:dc="http://purl.org/dc/elements/1.1/"
   xmlns:cc="http://creativecommons.org/ns#"
   xmlns:rdf="http://www.w3.org/1999/02/22-rdf-syntax-ns#"
   xmlns:svg="http://www.w3.org/2000/svg"
   xmlns="http://www.w3.org/2000/svg"
   version="1.1"
   id="svg2"
   viewBox="0 0 265.06401 265.06401"
   height="74.806953mm"
   width="74.806953mm">
  <defs
     id="defs4" />
  <metadata
     id="metadata7">
    <rdf:RDF>
      <cc:Work
         rdf:about="">
        <dc:format>image/svg+xml</dc:format>
        <dc:type
           rdf:resource="http://purl.org/dc/dcmitype/StillImage" />
        <dc:title></dc:title>
      </cc:Work>
    </rdf:RDF>
  </metadata>
  <g
     transform="translate(-224.35487,-324.34524)"
     id="layer1">
    <g
       transform="matrix(1.7610738,0,0,1.7610738,-434.74729,-391.30169)"
       id="g4418">
      <circle
         style="opacity:1;fill:#26b1e6;fill-opacity:1;stroke:none;stroke-width:5;stroke-linecap:round;stroke-linejoin:round;stroke-miterlimit:4;stroke-dasharray:none;stroke-opacity:1"
         id="path4147-0"
         cx="449.51788"
         cy="481.62601"
         r="75.256363" />
      <g
         id="g4235"
         transform="translate(202.36282,197.18597)">
        <path
           style="display:inline;opacity:1;fill:#0d4371;fill-opacity:1;stroke:none;stroke-width:5;stroke-linecap:round;stroke-linejoin:round;stroke-miterlimit:4;stroke-dasharray:none;stroke-opacity:1"
           d="m 287.67485,220.78733 c -22.40799,13.59979 -41.28111,36.04975 -54.90454,58.03568 -2.58505,-1.29657 -13.73198,-13.71475 -13.70736,-13.6067 -6.12185,-6.96938 -17.17175,-17.94982 -30.37136,-27.76939 -6.70323,7.83384 -11.02983,16.8653 -13.77288,26.79521 24.40373,17.86123 41.17108,43.62824 57.05447,68.86249 1.59705,3.64531 3.05402,4.93626 4.22702,0.6645 6.46218,-13.62708 14.7106,-26.32988 22.69782,-39.0969 13.45049,-20.58633 28.48981,-40.59868 47.77069,-56.10587 -4.9405,-7.46333 -11.38401,-13.27637 -18.99386,-17.77902 z"
           id="rect4164" />
      </g>
      <path
         style="opacity:1;fill:#000000;fill-opacity:0;stroke:none;stroke-width:5;stroke-linecap:round;stroke-linejoin:round;stroke-miterlimit:4;stroke-dasharray:none;stroke-opacity:1"
         d="m 435.3815,531.74676 c -1.98431,-3.57036 -14.56544,-22.74706 -19.00448,-28.96746 -2.64934,-3.7125 -7.0628,-9.5625 -9.80769,-13 -5.91406,-7.40632 -18.85919,-20.52117 -24.66457,-24.98793 -2.26875,-1.74561 -4.125,-3.4934 -4.125,-3.88397 0,-1.3797 2.64504,-8.43425 4.80228,-12.80808 2.10293,-4.26371 5.13918,-9.11131 7.4531,-11.8994 l 1.10329,-1.32938 4.69566,3.72797 c 8.38726,6.65879 16.60214,14.39897 26.49527,24.96423 5.33522,5.69768 10.39516,10.89048 11.24431,11.53954 l 1.54391,1.18011 3.52662,-5.39819 c 13.45168,-20.59045 30.82418,-38.98452 47.23798,-50.01579 2.11883,-1.42401 4.00276,-2.58911 4.1865,-2.58911 1.75256,0 14.04611,10.91764 17.1318,15.21437 l 1.5538,2.16363 -4.61226,3.99995 c -8.93047,7.74487 -19.86679,19.78666 -28.9765,31.9055 -10.20501,13.57594 -26.24369,38.98122 -33.51738,53.09155 -2.44535,4.74375 -4.66406,8.625 -4.93049,8.625 -0.26642,0 -0.86769,-0.68964 -1.33615,-1.53254 z"
         id="path4360" />
      <path
         style="opacity:1;fill:#0d4371;fill-opacity:1;stroke:none;stroke-width:5;stroke-linecap:round;stroke-linejoin:round;stroke-miterlimit:4;stroke-dasharray:none;stroke-opacity:1"
         d="m 433.18422,474.27632 c -0.98442,-0.81144 -5.7957,-5.78446 -10.69174,-11.05115 -9.60583,-10.33302 -17.96903,-18.22082 -26.08772,-24.60476 -2.81875,-2.21646 -5.125,-4.18102 -5.125,-4.36568 0,-0.18467 2.22534,-2.56889 4.9452,-5.29827 11.39755,-11.43745 25.08453,-18.56977 40.8048,-21.26347 5.10698,-0.87509 7.33953,-0.98746 15,-0.75499 9.50566,0.28847 13.79578,1.00096 21.54465,3.5781 3.88803,1.2931 14.99877,6.52445 15.46734,7.2826 0.13156,0.21288 -1.61731,1.63684 -3.88639,3.16436 -15.96848,10.74978 -32.98003,28.76056 -46.35937,49.08246 -1.9857,3.01608 -3.65797,5.53381 -3.71614,5.59496 -0.0582,0.0611 -0.91121,-0.55272 -1.89563,-1.36416 z"
         id="path4366" />
      <path
         style="opacity:1;fill:#ffffff;fill-opacity:1;stroke:none;stroke-width:5;stroke-linecap:round;stroke-linejoin:round;stroke-miterlimit:4;stroke-dasharray:none;stroke-opacity:1"
         d="m 431.47367,525.08162 c -16.92801,-26.64736 -35.59259,-48.71028 -54.02627,-63.85926 1.56654,-10.85769 10.80049,-23.91685 13.72922,-27.17214 4.23946,1.67103 22.07972,18.98141 32.16269,29.90192 7.07205,7.65948 10.58849,11.72918 11.22733,11.72918 0.63883,0 3.51988,-3.52937 6.40231,-7.84305 13.98932,-22.26719 31.09433,-37.18636 48.22494,-50.12396 8.70514,4.18431 14.84105,10.91043 19.88629,17.99391 -0.43454,1.36561 -5.23312,3.9648 -14.18621,13.08528 -7.67239,7.81584 -16.70432,19.59627 -21.82168,26.66882 -10.34159,14.29283 -26.25472,38.49861 -31.60502,49.40082 -2.07343,4.225 -4.34555,9.77316 -4.7436,9.81066 -0.39805,0.0375 -2.62305,-5.41235 -5.25,-9.59218 z"
         id="path4416" />
    </g>
  </g>
</svg>
