<?xml version="1.0" encoding="UTF-8" standalone="no"?>
<svg
   xmlns:dc="http://purl.org/dc/elements/1.1/"
   xmlns:cc="http://creativecommons.org/ns#"
   xmlns:rdf="http://www.w3.org/1999/02/22-rdf-syntax-ns#"
   xmlns:svg="http://www.w3.org/2000/svg"
   xmlns="http://www.w3.org/2000/svg"
   version="1.1"
   id="svg4420"
   viewBox="0 0 366.25888 189.87858"
   height="53.587955mm"
   width="103.36639mm">
  <defs
     id="defs4422" />
  <metadata
     id="metadata4425">
    <rdf:RDF>
      <cc:Work
         rdf:about="">
        <dc:format>image/svg+xml</dc:format>
        <dc:type
           rdf:resource="http://purl.org/dc/dcmitype/StillImage" />
        <dc:title></dc:title>
      </cc:Work>
    </rdf:RDF>
  </metadata>
  <g
     transform="translate(-138.65248,-42.424001)"
     id="layer1">
    <g
       transform="matrix(0.96043933,0,0,0.96006682,5.4851843,11.296882)"
       id="g5033">
      <path
         style="fill:#27334e"
         d="m 307.48084,42.146407 20.26069,-9.47875 c 2.35966,-0.63386 4.51112,0.0432 6.60859,1.06108 l 55.12044,25.33473 c 8.0506,0.55059 14.46024,5.40872 21.4544,8.55339 32.82396,14.78874 65.4505,30.03709 98.30376,44.774943 2.0327,1.10117 4.08237,2.18384 6.19835,3.13542 1.12122,0.51049 2.23782,1.01943 3.34671,1.54534 2.15145,1.01327 5.36861,1.27237 5.4303,4.22117 0.0478,2.51543 -2.83005,3.2989 -4.75171,4.42475 -10.88836,6.40193 -21.90166,12.59874 -32.75301,19.05928 -2.25324,0.9855 -4.34301,2.26249 -6.39422,3.60426 -0.63232,0.40562 -1.28778,0.77113 -1.95096,1.12431 -29.23665,16.91398 -58.53037,33.73081 -87.6822,50.78976 -17.20547,9.71317 -34.28602,19.65921 -51.33727,29.64381 -5.30229,3.1092 -9.98768,3.15701 -15.35475,0.10025 -19.00992,-10.82822 -37.64507,-22.30573 -56.93105,-32.63888 -12.51854,-7.13605 -25.41802,-13.61046 -37.4199,-21.64102 -12.72058,-7.992 -25.91771,-15.16352 -38.88504,-22.72523 -16.17679,-9.43555 -32.42451,-18.75081 -48.64911,-28.10618 -1.64713,-0.95003 -3.60581,-1.72887 -3.43153,-4.20883 1.1567,-1.74738 3.09686,-2.23011 4.85196,-3.01975 19.59443,-8.80939 39.06857,-17.879443 58.61982,-26.784463 27.41524,-12.49231 54.79965,-25.04324 82.20409,-37.55715 7.7838,-3.55646 15.9439,-6.42044 23.14164,-11.21224 z"
         id="path26" />
      <path
         style="fill:#fefefd"
         d="m 484.48313,121.5189 c -0.64158,1.64251 -2.14528,1.95559 -3.32512,2.6126 -49.23516,27.6836 -98.49962,55.32555 -147.71011,83.05079 -2.37354,1.3356 -4.09779,1.715 -6.68725,0.2298 -48.83726,-28.02752 -97.75163,-55.93938 -146.64749,-83.8682 -0.73104,-0.41949 -1.39112,-0.95157 -2.77762,-1.90006 1.88002,-0.88835 3.20328,-1.5253 4.53117,-2.14066 48.36224,-22.347373 96.72757,-44.677783 145.0713,-67.063713 2.30414,-1.06262 4.2258,-1.7736 6.89854,-0.54133 49.78883,23.02905 99.63628,45.93472 149.46984,68.877403 0.41641,0.19587 0.78192,0.49044 1.17674,0.74337 z"
         id="path56" />
      <path
         style="fill:#293550"
         d="m 363.57753,96.332227 7.89638,-10.05555 c -0.19587,-0.29149 -0.40254,-0.57526 -0.60611,-0.86829 -26.48526,10.82822 -52.97207,21.653353 -79.45733,32.478493 -0.20512,-0.29149 -0.41795,-0.58298 -0.62307,-0.87446 6.78904,-6.77053 13.58578,-13.53952 20.36557,-20.320843 7.78687,-7.79151 7.78225,-7.79614 -2.46608,-12.49541 -4.59903,-2.10981 -9.19342,-4.23042 -14.89671,-6.86152 8.99602,-4.21655 17.39209,-7.38435 24.97693,-11.9186 8.43772,-5.03703 15.49202,-4.47102 24.35694,-0.1897 38.58893,18.62744 77.60044,36.381963 116.46235,54.460353 1.24615,0.57835 2.4923,1.17674 3.68601,1.74738 -0.15886,1.85534 -1.65485,1.9926 -2.61722,2.52468 -25.28384,14.08085 -50.61703,28.06454 -75.87002,42.20708 -2.79458,1.56385 -5.02778,1.715 -7.80231,0.14652 -5.529,-3.12308 -11.21378,-5.96856 -16.82916,-8.93433 -6.61784,-3.49939 -6.60088,-3.48088 -2.07434,-9.10243 13.07684,-16.2431 26.13671,-32.50008 40.03712,-49.781123 l -20.24527,7.575593 c -0.4889,0.22517 -1.15978,0.37939 -1.44664,-0.02 -3.2696,-4.58977 -8.07066,-7.131423 -12.84704,-9.717793 z"
         id="path112" />
      <path
         style="fill:#2b3753"
         d="m 353.61451,165.29446 16.57778,8.71995 c -8.71841,4.87663 -16.57932,9.33531 -24.505,13.68603 -5.23444,2.87632 -10.53827,7.74061 -15.83594,7.76837 -5.07096,0.0324 -10.18202,-5.00155 -15.2468,-7.85936 -36.89553,-20.82208 -73.78334,-41.65032 -110.6727,-62.47394 -1.52839,-0.8683 -3.04135,-1.76743 -4.53271,-2.62956 0.0725,-2.09439 1.91086,-2.04041 3.00895,-2.55861 25.7095,-12.05895 51.47144,-24.009933 77.16707,-36.095093 2.78069,-1.30938 5.15732,-1.57774 7.96732,-0.15423 3.76775,1.90469 7.65425,3.66596 11.63328,5.06479 4.0253,1.42042 4.87972,2.53702 1.32018,5.9593 -14.91984,14.341493 -29.54665,28.979093 -44.31535,43.474813 -1.38187,1.35874 -2.97811,2.50464 -3.85257,4.56973 10.66782,-4.14098 21.33256,-8.27578 31.99885,-12.4183 3.76466,1.27237 3.74306,4.58515 3.41919,7.45992 -0.7372,6.38188 2.39667,9.70237 7.82698,12.12064 13.68294,6.10427 27.19316,12.5864 40.82829,18.79863 2.99199,1.36336 5.60612,1.33714 8.57652,-0.0447 2.78841,-1.29087 5.15115,-3.83098 8.63666,-3.38835 z"
         id="path114" />
      <path
         style="fill:#32415f"
         d="m 353.61451,165.29446 c -0.86983,0.59377 -1.74275,1.17521 -2.6095,1.77052 -6.20452,4.28132 -11.93402,5.26991 -19.30449,1.12585 -10.97319,-6.16905 -22.86712,-10.69713 -34.36313,-15.93465 -1.44048,-0.66009 -2.82697,-1.4343 -4.26899,-2.08359 -4.72086,-2.11753 -7.72518,-5.09872 -6.68107,-10.92076 0.55213,-3.0799 0.39019,-6.34486 -2.05738,-8.90039 18.76932,-7.89638 37.54173,-15.78814 56.31414,-23.68452 0.24214,0.32542 0.49044,0.64313 0.72949,0.967 l -29.92913,34.86129 c 0.13264,0.25139 0.27298,0.50432 0.41487,0.75879 l 54.69169,-22.56175 c 0.21745,0.25602 0.43183,0.51203 0.6462,0.76188 -4.30753,5.401 -8.61199,10.80663 -12.92723,16.20455 -4.41241,5.51204 -8.76159,11.07652 -13.28505,16.49448 -1.67027,2.00649 -1.63942,2.99508 0.82203,4.26744 4.03918,2.08206 7.8825,4.5651 11.80755,6.87386 z"
         id="path116" />
      <path
         style="fill:#32415e"
         d="m 363.57753,96.332227 c 7.16534,-0.26836 10.39484,5.229813 14.30447,9.737843 l -33.33753,14.1703 c -0.2884,-0.37323 -0.56909,-0.74337 -0.85749,-1.12123 6.62709,-7.59255 13.25728,-15.19436 19.89055,-22.786913 z"
         id="path118" />
    </g>
  </g>
</svg>
