<?xml version="1.0" encoding="UTF-8" standalone="no"?>
<svg
   xmlns:dc="http://purl.org/dc/elements/1.1/"
   xmlns:cc="http://creativecommons.org/ns#"
   xmlns:rdf="http://www.w3.org/1999/02/22-rdf-syntax-ns#"
   xmlns:svg="http://www.w3.org/2000/svg"
   xmlns="http://www.w3.org/2000/svg"
   height="44"
   width="43.900002"
   xml:space="preserve"
   viewBox="0 0 43.900002 44"
   y="0px"
   x="0px"
   id="Layer_1"
   version="1.1"><metadata
     id="metadata15"><rdf:RDF><cc:Work
         rdf:about=""><dc:format>image/svg+xml</dc:format><dc:type
           rdf:resource="http://purl.org/dc/dcmitype/StillImage" /><dc:title></dc:title></cc:Work></rdf:RDF></metadata><defs
     id="defs13" /><style
     id="style3"
     type="text/css">
	.st0{fill-rule:evenodd;clip-rule:evenodd;fill:#568EBD;}
</style><path
     style="clip-rule:evenodd;fill:#568ebd;fill-rule:evenodd"
     id="path5"
     d="M 10.2,0 C 8.5,0 7,1.4 7,3.2 l 0,23.5 c 0,1.8 1.4,3.2 3.2,3.2 l 23.5,0 c 1.7,0 3.2,-1.4 3.2,-3.2 l 0,-23.5 C 36.9,1.5 35.5,0 33.7,0 l -23.5,0 0,0 z M 8.8,26.7 8.8,3.2 c 0,-0.8 0.6,-1.4 1.4,-1.4 l 23.5,0 c 0.8,0 1.4,0.6 1.4,1.4 l 0,23.5 c 0,0.8 -0.6,1.4 -1.4,1.4 l -23.5,0 c -0.7,0 -1.4,-0.6 -1.4,-1.4 l 0,0 z"
     class="st0" /><path
     style="clip-rule:evenodd;fill:#568ebd;fill-rule:evenodd"
     id="path7"
     d="M 17.2,7.1 C 15.5,7.1 14,8.5 14,10.3 l 0,23.5 c 0,1.7 1.4,3.2 3.2,3.2 l 23.5,0 c 1.8,0 3.2,-1.4 3.2,-3.2 l 0,-23.5 c 0,-1.7 -1.4,-3.2 -3.2,-3.2 l -23.5,0 0,0 z m -1.4,26.6 0,-23.5 c 0,-0.8 0.6,-1.4 1.4,-1.4 l 23.5,0 c 0.8,0 1.4,0.6 1.4,1.4 l 0,23.5 c 0,0.8 -0.6,1.4 -1.4,1.4 l -23.5,0 c -0.7,0 -1.4,-0.6 -1.4,-1.4 l 0,0 z"
     class="st0" /><path
     style="clip-rule:evenodd;fill:#568ebd;fill-rule:evenodd"
     id="path9"
     d="M 3.2,14.1 C 1.4,14.1 0,15.5 0,17.3 L 0,40.8 C 0,42.6 1.4,44 3.2,44 l 23.5,0 c 1.7,0 3.2,-1.4 3.2,-3.2 l 0,-23.5 c 0,-1.7 -1.4,-3.2 -3.2,-3.2 l -23.5,0 0,0 z m -1.4,26.6 0,-23.5 c 0,-0.8 0.6,-1.4 1.4,-1.4 l 23.5,0 c 0.8,0 1.4,0.6 1.4,1.4 l 0,23.5 c 0,0.8 -0.6,1.4 -1.4,1.4 l -23.5,0 c -0.8,0 -1.4,-0.6 -1.4,-1.4 l 0,0 z"
     class="st0" /></svg>