<?xml version="1.0" encoding="UTF-8" standalone="no"?>
<svg
   xmlns:dc="http://purl.org/dc/elements/1.1/"
   xmlns:cc="http://creativecommons.org/ns#"
   xmlns:rdf="http://www.w3.org/1999/02/22-rdf-syntax-ns#"
   xmlns:svg="http://www.w3.org/2000/svg"
   xmlns="http://www.w3.org/2000/svg"
   height="44"
   width="180.8"
   xml:space="preserve"
   viewBox="0 0 180.8 43.999999"
   y="0px"
   x="0px"
   id="Layer_1"
   version="1.1"><metadata
     id="metadata27"><rdf:RDF><cc:Work
         rdf:about=""><dc:format>image/svg+xml</dc:format><dc:type
           rdf:resource="http://purl.org/dc/dcmitype/StillImage" /><dc:title></dc:title></cc:Work></rdf:RDF></metadata><defs
     id="defs25" /><style
     id="style3"
     type="text/css">
	.st0{fill-rule:evenodd;clip-rule:evenodd;fill:#FFFFFF;}
	.st1{fill-rule:evenodd;clip-rule:evenodd;fill:#624630;}
	.st2{fill-rule:evenodd;clip-rule:evenodd;fill:#568EBD;}
</style><path
     style="clip-rule:evenodd;fill:#624630;fill-rule:evenodd"
     id="path7"
     d="m 66.7,32.2 c -0.5,1.4 -1.1,2.2 -2.9,2.2 -1.8,0 -2.4,-0.9 -2.9,-2.2 L 55.5,18.3 c -0.3,-0.7 -0.3,-1.1 -0.3,-1.6 0,-1.7 1.3,-2.6 2.8,-2.6 1.5,0 2.1,1.1 2.4,1.9 l 3.4,10.6 0.1,0 3.4,-10.6 c 0.3,-0.8 0.9,-1.9 2.4,-1.9 0,0 5.2,0 5.3,0 1.4,0 2.3,0.7 2.4,2 1.3,-1.4 3,-2.2 5,-2.2 2.2,0 4.1,0.9 5.5,2.7 1.5,-1.7 3.8,-2.7 5.7,-2.7 4.4,0 7.3,2.5 7.3,7.2 l 0,10.3 c 0,1.8 -1.1,3 -2.7,3 -1.6,0 -2.7,-1.2 -2.7,-3 l 0,-9.3 c 0,-2.2 -1.2,-3.7 -3.2,-3.7 -2,0 -3.2,1.5 -3.2,3.7 l 0,9.3 c 0,1.8 -1.1,3 -2.7,3 -1.6,0 -2.7,-1.2 -2.7,-3 l 0,-9.3 c 0,-2.2 -1.2,-3.7 -3.2,-3.7 -2.2,0 -3.2,1.5 -3.2,3.7 l 0,9.3 c 0,1.8 -1.1,3 -2.7,3 -1.6,0 -2.7,-1.2 -2.7,-3 l 0,-13.4 -5.2,14.2 0,0 z"
     class="st1" /><path
     style="clip-rule:evenodd;fill:#624630;fill-rule:evenodd"
     id="path9"
     d="m 102.7,16.9 c -0.1,-0.5 -0.3,-0.9 -0.3,-1.3 0,-0.6 0.5,-1.5 1.6,-1.5 0.7,0 1.4,0.3 1.8,1.7 l 4.2,13.6 0.1,0 4.1,-13.1 c 0.5,-1.4 0.7,-2.2 1.9,-2.2 1.2,0 1.5,0.7 1.9,2.2 l 4.1,13.1 0.1,0 4.2,-13.6 c 0.5,-1.4 1.1,-1.7 1.8,-1.7 1.1,0 1.6,0.8 1.6,1.5 0,0.3 -0.1,0.8 -0.3,1.3 l -5.4,15.9 c -0.4,1.3 -1,1.7 -1.9,1.7 -0.9,0 -1.5,-0.4 -1.9,-1.7 l -4.2,-13.4 0.1,0 -4.2,13.4 c -0.4,1.3 -1,1.7 -1.9,1.7 -0.9,0 -1.5,-0.4 -1.9,-1.7 l -5.5,-15.9 0,0 z"
     class="st1" /><path
     style="clip-rule:evenodd;fill:#624630;fill-rule:evenodd"
     id="path11"
     d="m 134.6,24.3 c 0,-3.4 1.4,-7.3 5.4,-7.3 4,0 5.4,4 5.4,7.3 0,3.4 -1.4,7.3 -5.4,7.3 -4,0 -5.4,-3.9 -5.4,-7.3 l 0,0 z m 13.9,-8.6 c 0,-1.1 -0.9,-1.6 -1.5,-1.6 -0.7,0 -1.5,0.4 -1.5,1.6 l 0,1 -0.1,0 c -1.5,-1.7 -3.1,-2.6 -5.4,-2.6 -5.6,0 -8.7,4.9 -8.7,10.1 0,5.3 3.1,10.1 8.7,10.1 2.1,0 4,-1 5.4,-3 l 0.1,0 0,1.4 c 0,1.1 0.8,1.6 1.5,1.6 0.6,0 1.5,-0.4 1.5,-1.6 l 0,-17 0,0 z"
     class="st1" /><path
     style="clip-rule:evenodd;fill:#624630;fill-rule:evenodd"
     id="path13"
     d="m 152.8,15.9 c 0,-1.1 0.6,-1.7 1.6,-1.7 1,0 1.6,0.7 1.6,1.7 l 0,1.7 0.1,0 c 0.7,-1.5 2.6,-3.4 4.5,-3.4 1.1,0 1.8,0.7 1.8,1.7 0,0.9 -0.7,1.5 -2.1,1.8 -1.9,0.3 -4.3,1.8 -4.3,5.6 l 0,9.4 c 0,1.1 -0.6,1.8 -1.6,1.8 -1,0 -1.6,-0.7 -1.6,-1.8 l 0,-16.8 0,0 z"
     class="st1" /><path
     style="clip-rule:evenodd;fill:#624630;fill-rule:evenodd"
     id="path15"
     d="m 166.6,23.1 c 0.1,-3 1.6,-6.3 5.6,-6.2 3.6,0 5.3,3.3 5.3,6.2 l -10.9,0 0,0 z m 12.4,2.5 c 1.4,0 1.8,-0.6 1.8,-1.7 0,-4.8 -3.1,-9.7 -8.5,-9.7 -5.5,0 -8.9,4.8 -8.9,10.2 0,5.3 2.8,10.1 9.1,10.1 3.9,0 7.9,-2.4 7.9,-4 0,-0.9 -0.6,-1.5 -1.2,-1.5 -1.2,0 -2.3,2.7 -6.7,2.7 -3.7,0 -5.8,-2.7 -5.8,-6.1 l 12.3,0 0,0 z"
     class="st1" /><path
     style="clip-rule:evenodd;fill:#568ebd;fill-rule:evenodd"
     id="path17"
     d="M 10.2,0 C 8.5,0 7,1.4 7,3.2 l 0,23.5 c 0,1.8 1.4,3.2 3.2,3.2 l 23.5,0 c 1.7,0 3.2,-1.4 3.2,-3.2 l 0,-23.5 C 36.9,1.5 35.5,0 33.7,0 l -23.5,0 0,0 z M 8.8,26.7 8.8,3.2 c 0,-0.8 0.6,-1.4 1.4,-1.4 l 23.5,0 c 0.8,0 1.4,0.6 1.4,1.4 l 0,23.5 c 0,0.8 -0.6,1.4 -1.4,1.4 l -23.5,0 c -0.7,0 -1.4,-0.6 -1.4,-1.4 l 0,0 z"
     class="st2" /><path
     style="clip-rule:evenodd;fill:#568ebd;fill-rule:evenodd"
     id="path19"
     d="M 17.2,7.1 C 15.5,7.1 14,8.5 14,10.3 l 0,23.5 c 0,1.7 1.4,3.2 3.2,3.2 l 23.5,0 c 1.8,0 3.2,-1.4 3.2,-3.2 l 0,-23.5 c 0,-1.7 -1.4,-3.2 -3.2,-3.2 l -23.5,0 0,0 z m -1.4,26.6 0,-23.5 c 0,-0.8 0.6,-1.4 1.4,-1.4 l 23.5,0 c 0.8,0 1.4,0.6 1.4,1.4 l 0,23.5 c 0,0.8 -0.6,1.4 -1.4,1.4 l -23.5,0 c -0.7,0 -1.4,-0.6 -1.4,-1.4 l 0,0 z"
     class="st2" /><path
     style="clip-rule:evenodd;fill:#568ebd;fill-rule:evenodd"
     id="path21"
     d="M 3.2,14.1 C 1.4,14.1 0,15.5 0,17.3 L 0,40.8 C 0,42.6 1.4,44 3.2,44 l 23.5,0 c 1.7,0 3.2,-1.4 3.2,-3.2 l 0,-23.5 c 0,-1.7 -1.4,-3.2 -3.2,-3.2 l -23.5,0 0,0 z m -1.4,26.6 0,-23.5 c 0,-0.8 0.6,-1.4 1.4,-1.4 l 23.5,0 c 0.8,0 1.4,0.6 1.4,1.4 l 0,23.5 c 0,0.8 -0.6,1.4 -1.4,1.4 l -23.5,0 c -0.8,0 -1.4,-0.6 -1.4,-1.4 l 0,0 z"
     class="st2" /></svg>